<svg width="40" height="40" viewBox="0 0 40 40" fill="none" xmlns="http://www.w3.org/2000/svg">
<circle cx="20" cy="20" r="20" fill="#D4DCFF"/>
<g clip-path="url(#clip0_6045_4803)">
<path d="M30.19 16.8874L29.0008 19.3739L23.8477 18.4297L25.0369 15.9431L30.19 16.8874Z" fill="#ADA2FF"/>
<path d="M29.0009 19.4489C28.9964 19.4489 28.9919 19.4485 28.9873 19.4477L23.8342 18.5034C23.8112 18.4992 23.7915 18.4845 23.7809 18.4638C23.7703 18.443 23.77 18.4184 23.78 18.3974L24.9692 15.9109C24.9839 15.8803 25.0171 15.8634 25.0504 15.8695L30.2036 16.8138C30.2266 16.818 30.2463 16.8327 30.2568 16.8534C30.2675 16.8742 30.2678 16.8987 30.2577 16.9198L29.0685 19.4063C29.0559 19.4327 29.0293 19.4489 29.0009 19.4489ZM23.9576 18.3737L28.9579 19.2899L30.0802 16.9434L25.0798 16.0271L23.9576 18.3737Z" fill="#111111"/>
<path d="M24.1747 15.3671L23.5404 14.2784C23.421 14.0735 23.4032 13.865 23.4842 13.6956L22.295 16.1822C22.214 16.3517 22.2318 16.5601 22.3512 16.765L22.9854 17.8536C23.1513 18.1384 23.4891 18.3646 23.8476 18.4297L25.0368 15.9431C24.6784 15.878 24.3406 15.6518 24.1747 15.3671Z" fill="#ADA2FF"/>
<path d="M23.8478 18.5045C23.8433 18.5045 23.8388 18.5042 23.8343 18.5033C23.4559 18.4346 23.0973 18.1944 22.9207 17.8912L22.2864 16.8026C22.1549 16.577 22.134 16.3451 22.2274 16.1498L23.4164 13.6638C23.4165 13.6636 23.4166 13.6634 23.4167 13.6632C23.4346 13.6259 23.4794 13.6101 23.5167 13.6279C23.554 13.6458 23.5698 13.6905 23.552 13.7278L23.5517 13.7282C23.4807 13.8774 23.4996 14.0593 23.6053 14.2406L24.2396 15.3293C24.395 15.5961 24.7133 15.8081 25.0504 15.8693C25.0734 15.8735 25.0931 15.8881 25.1038 15.9089C25.1144 15.9298 25.1147 15.9543 25.1047 15.9753L23.9155 18.4619C23.9028 18.4883 23.8762 18.5045 23.8478 18.5045ZM23.3804 14.0866L22.3627 16.2144C22.2913 16.3636 22.3103 16.5458 22.416 16.7272L23.0502 17.8159C23.1971 18.068 23.4893 18.2711 23.8053 18.3444L24.9285 15.9958C24.586 15.9071 24.2716 15.6823 24.1099 15.4046L23.4756 14.316C23.4312 14.2397 23.3994 14.1627 23.3804 14.0866Z" fill="#111111"/>
<path d="M34.7375 17.1539L29.2 21.7253L28.0107 24.2119L33.5483 19.6405C33.6087 19.591 33.6548 19.532 33.6861 19.4665L34.8753 16.9799C34.844 17.0454 34.7979 17.1045 34.7375 17.1539Z" fill="#ADA2FF"/>
<path d="M28.0105 24.2867C27.9942 24.2867 27.978 24.2815 27.9644 24.2708C27.9366 24.2492 27.9277 24.2112 27.9429 24.1795L29.1321 21.6929C29.1368 21.6831 29.1436 21.6744 29.1519 21.6674L34.6895 17.0961L34.6897 17.0959C34.7405 17.0543 34.78 17.0045 34.8072 16.9479L34.8074 16.9474C34.8252 16.9101 34.87 16.8943 34.9073 16.9121C34.9447 16.9299 34.9605 16.9747 34.9427 17.012L34.9425 17.0123L33.7534 19.4985C33.7167 19.5752 33.6636 19.6424 33.5955 19.6982L28.0581 24.2693C28.0445 24.281 28.0275 24.2867 28.0105 24.2867ZM29.2603 21.7725L28.2246 23.9379L33.5003 19.5827C33.5515 19.5407 33.5912 19.4908 33.6183 19.434L34.6134 17.3532L29.2603 21.7725Z" fill="#111111"/>
<path d="M23.9375 13.3776C24.0592 13.3539 24.1955 13.3542 24.3381 13.3808L33.5324 15.0858C33.8902 15.1524 34.228 15.3786 34.3924 15.6608L34.8203 16.3954C34.9855 16.6789 34.9533 16.977 34.7373 17.1538L29.1998 21.7252C29.1158 21.7948 29.0067 21.8442 28.8844 21.868C28.7278 21.8985 28.5523 21.8882 28.376 21.8395C28.0552 21.7508 27.774 21.5447 27.6251 21.2892L26.9908 20.2005C26.8249 19.9158 26.8579 19.6189 27.0745 19.4404L30.1901 16.8874L25.0369 15.9431C24.6784 15.878 24.3406 15.6518 24.1747 15.367L23.5404 14.2784C23.3915 14.0229 23.4006 13.7618 23.5624 13.5777C23.6532 13.4757 23.7838 13.4075 23.9375 13.3776Z" fill="#FEBA00"/>
<path d="M28.6998 21.9602C28.5886 21.9602 28.4724 21.944 28.3559 21.9118C28.0164 21.8178 27.7189 21.5993 27.5603 21.3269L26.926 20.2383C26.7412 19.9212 26.7808 19.5854 27.0268 19.3827L30.0173 16.9319L25.0233 16.0168C24.645 15.9481 24.2864 15.7078 24.1098 15.4047L23.4755 14.3161C23.3102 14.0325 23.3216 13.738 23.5059 13.5283C23.6067 13.4151 23.7508 13.3376 23.923 13.3041C24.0568 13.2781 24.2011 13.2791 24.3517 13.3073L33.546 15.0122C33.9243 15.0827 34.2818 15.3225 34.4571 15.6232L34.885 16.3578C35.07 16.6753 35.0306 17.0105 34.7848 17.2119L29.2475 21.783C29.1541 21.8605 29.0334 21.9154 28.8986 21.9417C28.835 21.954 28.7683 21.9602 28.6998 21.9602ZM23.9517 13.4511C23.8121 13.4783 23.6969 13.5393 23.6184 13.6274C23.479 13.786 23.4739 14.0154 23.6051 14.2406L24.2394 15.3293C24.3949 15.5961 24.7132 15.8081 25.0502 15.8693L30.2035 16.8136C30.2322 16.8189 30.2553 16.8403 30.2626 16.8686C30.2699 16.8968 30.2601 16.9267 30.2376 16.9452L27.1221 19.4983C26.9331 19.6541 26.9076 19.9087 27.0557 20.1629L27.69 21.2515C27.8295 21.4908 28.0934 21.6836 28.3961 21.7673C28.562 21.8131 28.7259 21.8226 28.8701 21.7945C28.9802 21.7731 29.0777 21.7292 29.1519 21.6675L34.6896 17.0961C34.8757 16.9436 34.9014 16.6834 34.7555 16.433L34.3275 15.6984C34.1733 15.4338 33.8558 15.2222 33.5186 15.1593L24.3243 13.4545C24.194 13.4301 24.0653 13.429 23.9517 13.4511Z" fill="#111111"/>
<path d="M28.8844 21.8681C28.7278 21.8986 28.5524 21.8883 28.3762 21.8396C28.0553 21.7509 27.7742 21.5448 27.6253 21.2893L26.991 20.2006C26.8717 19.9958 26.8552 19.7848 26.9359 19.6161L25.7466 22.1027C25.666 22.2715 25.6824 22.4825 25.8017 22.6872L26.436 23.7759C26.5849 24.0314 26.8661 24.2375 27.1869 24.3262C27.3631 24.3749 27.5385 24.3851 27.6952 24.3547C27.8175 24.3309 27.9266 24.2815 28.0106 24.2119L29.1998 21.7253C29.1158 21.7949 29.0067 21.8443 28.8844 21.8681Z" fill="#ADA2FF"/>
<path d="M27.5108 24.4467C27.3995 24.4467 27.2834 24.4305 27.1669 24.3983C26.8273 24.3044 26.5299 24.0858 26.3713 23.8135L25.7369 22.7248C25.6075 22.5026 25.5864 22.264 25.6791 22.0703L26.8684 19.5837C26.8862 19.5464 26.931 19.5306 26.9683 19.5484C27.0056 19.5662 27.0215 19.6109 27.0036 19.6482L27.0035 19.6484C26.9327 19.7967 26.9517 19.9842 27.0558 20.1627L27.6901 21.2514C27.8295 21.4906 28.0934 21.6835 28.3962 21.7671C28.5621 21.813 28.726 21.8224 28.8702 21.7943C28.9803 21.7728 29.0779 21.7289 29.1521 21.6674C29.1792 21.6449 29.2183 21.6443 29.246 21.6659C29.2738 21.6875 29.2828 21.7255 29.2676 21.7572L28.0783 24.2439C28.0737 24.2536 28.0669 24.2623 28.0586 24.2692C27.9651 24.3468 27.8444 24.4017 27.7096 24.428C27.6459 24.4406 27.5793 24.4467 27.5108 24.4467ZM26.8318 20.0077L25.8143 22.1349C25.7434 22.2832 25.7624 22.4708 25.8665 22.6495L26.5008 23.7381C26.6403 23.9774 26.9042 24.1702 27.2069 24.2539C27.3727 24.2997 27.5365 24.3091 27.6809 24.2811C27.785 24.2608 27.8778 24.2204 27.9503 24.1641L29.0308 21.9051C28.9888 21.9204 28.9446 21.9326 28.8988 21.9416C28.732 21.9741 28.5444 21.9638 28.3562 21.9118C28.0166 21.8178 27.7191 21.5992 27.5605 21.3269L26.9262 20.2383C26.8821 20.1626 26.8505 20.0848 26.8318 20.0077Z" fill="#111111"/>
<path d="M17.5819 12.941C17.5524 12.8084 17.5657 12.6853 17.6157 12.5808L16.4265 15.0674C16.3765 15.172 16.3632 15.295 16.3927 15.4276L19.1146 27.703L20.3038 25.2165L17.5819 12.941Z" fill="#ADA2FF"/>
<path d="M19.1146 27.778C19.1118 27.778 19.1089 27.7778 19.1061 27.7775C19.0743 27.7738 19.0483 27.7505 19.0414 27.7193L16.3195 15.4439C16.287 15.2982 16.3006 15.1568 16.3588 15.0351L17.5481 12.5485C17.566 12.5112 17.6107 12.4955 17.6481 12.5132C17.6854 12.531 17.7012 12.5758 17.6834 12.6131C17.6397 12.7042 17.63 12.812 17.6551 12.9247L20.377 25.2003C20.3806 25.2166 20.3786 25.2337 20.3714 25.2487L19.1822 27.7353C19.1696 27.7616 19.1432 27.778 19.1146 27.778ZM17.5119 12.9716L16.4941 15.0997C16.4505 15.1909 16.4407 15.2987 16.4658 15.4114L19.1407 27.4747L20.225 25.2076L17.5119 12.9716Z" fill="#111111"/>
<path d="M19.2489 12.0359C19.5115 11.9848 19.8265 12.0495 20.091 12.2069C20.3578 12.3654 20.5467 12.6013 20.5994 12.84L23.3019 25.1191C23.3744 25.4518 23.1784 25.7225 22.8128 25.7936L21.6535 26.0191C21.3924 26.0699 21.0781 26.0066 20.8121 25.8495C20.5468 25.6907 20.3579 25.4548 20.3037 25.2164L17.5819 12.9411C17.5079 12.6088 17.7032 12.3367 18.0688 12.2656L19.2489 12.0359Z" fill="#FEBA00"/>
<path d="M21.4693 26.1112C21.2392 26.1112 20.9908 26.0421 20.774 25.914C20.4922 25.7453 20.2892 25.4908 20.2306 25.233L17.5086 12.9573C17.4697 12.7825 17.4963 12.6183 17.5853 12.4823C17.6818 12.3352 17.8484 12.2321 18.0543 12.1921L19.2345 11.9624C19.5139 11.908 19.8485 11.9754 20.1293 12.1426C20.4124 12.3108 20.6155 12.5655 20.6725 12.8239L23.375 25.1031C23.4132 25.2779 23.3861 25.4418 23.2969 25.5772C23.2002 25.7241 23.0333 25.827 22.827 25.8671L21.6677 26.0927C21.6042 26.1051 21.5375 26.1112 21.4693 26.1112ZM19.4344 12.0935C19.3754 12.0935 19.318 12.0987 19.2632 12.1094L18.083 12.339C17.9147 12.3718 17.786 12.4497 17.7109 12.5643C17.6444 12.6657 17.6252 12.7903 17.6551 12.9248L20.377 25.2002C20.4266 25.4186 20.6037 25.6373 20.8507 25.7852C21.1007 25.933 21.3955 25.993 21.6392 25.9456L22.7985 25.7201C22.9673 25.6873 23.0963 25.6094 23.1717 25.4949C23.2382 25.3938 23.258 25.2694 23.2286 25.1351L20.5262 12.8561C20.4779 12.6374 20.3009 12.4188 20.0527 12.2713C19.8587 12.1558 19.6377 12.0935 19.4344 12.0935Z" fill="#111111"/>
<path d="M22.8127 25.7936L21.6535 26.0192C21.3924 26.07 21.0781 26.0067 20.8121 25.8496C20.5469 25.6908 20.3579 25.4549 20.3037 25.2166L19.1145 27.7031C19.1686 27.9414 19.3577 28.1774 19.6229 28.3361C19.8889 28.4933 20.2032 28.5566 20.4642 28.5057L21.6235 28.2802C21.8439 28.2374 22.0027 28.1219 22.0781 27.9641L23.2673 25.4776C23.1919 25.6353 23.0332 25.7508 22.8127 25.7936Z" fill="#ADA2FF"/>
<path d="M20.2798 28.5977C20.0497 28.5977 19.8014 28.5287 19.5845 28.4005C19.3028 28.2319 19.0998 27.9775 19.0412 27.7196C19.0374 27.7032 19.0394 27.6859 19.0466 27.6707L20.2359 25.1841C20.2497 25.1553 20.2804 25.1384 20.3118 25.142C20.3435 25.1455 20.3695 25.1687 20.3766 25.1998C20.4263 25.4185 20.6035 25.6374 20.8504 25.7851C21.1005 25.9329 21.3953 25.9929 21.6389 25.9455L22.7982 25.7199C22.9899 25.6826 23.1324 25.5852 23.1993 25.4454L23.1995 25.445C23.2174 25.4077 23.2622 25.392 23.2994 25.4097C23.3368 25.4276 23.3526 25.4723 23.3347 25.5096C23.3347 25.5098 23.3345 25.51 23.3344 25.5103L22.1455 27.9962C22.0576 28.18 21.8773 28.3069 21.6376 28.3535L20.4783 28.5791C20.4147 28.5917 20.3481 28.5977 20.2798 28.5977ZM19.1936 27.711C19.2506 27.9215 19.4236 28.1295 19.6613 28.2718C19.9113 28.4195 20.2061 28.4795 20.4498 28.4322L21.6091 28.2067C21.8009 28.1693 21.9435 28.0717 22.0103 27.9318L23.0285 25.8028C22.9675 25.8313 22.8999 25.8529 22.8269 25.8671L21.6676 26.0927C21.3891 26.1469 21.0549 26.0801 20.7737 25.914C20.5574 25.7845 20.3874 25.6043 20.2937 25.4109L19.1936 27.711Z" fill="#111111"/>
<path d="M14.1126 18.0687L10.9986 20.6215L9.80933 23.108L12.9233 20.5552C12.9847 20.5052 13.0315 20.4454 13.0632 20.3791L14.2525 17.8925C14.2207 17.9589 14.174 18.0187 14.1126 18.0687Z" fill="#ADA2FF"/>
<path d="M9.8094 23.183C9.79306 23.183 9.77671 23.1776 9.76314 23.167C9.73548 23.1454 9.72655 23.1075 9.7417 23.0758L10.931 20.5892C10.9357 20.5793 10.9426 20.5705 10.9511 20.5635L14.065 18.0107C14.0651 18.0106 14.0652 18.0106 14.0652 18.0106C14.1171 17.9683 14.1573 17.9178 14.1848 17.8602C14.2026 17.8229 14.2474 17.8071 14.2847 17.825C14.3221 17.8428 14.3379 17.8875 14.32 17.9248C14.3199 17.9251 14.3197 17.9254 14.3197 17.9256L13.1308 20.4113C13.0937 20.4889 13.0399 20.5568 12.9707 20.6132L9.85686 23.166C9.84314 23.1773 9.82627 23.183 9.8094 23.183ZM11.0591 20.6689L10.0223 22.8367L12.8758 20.4974C12.9279 20.4549 12.9681 20.4044 12.9956 20.3468L13.9913 18.2651L11.0591 20.6689Z" fill="#111111"/>
<path d="M17.7051 23.8118L16.5159 26.2983C16.4955 26.341 16.4687 26.3811 16.4356 26.4181C16.3477 26.5181 16.2173 26.588 16.0606 26.6184C15.9383 26.6423 15.7997 26.6411 15.6614 26.6146L16.8506 24.1281C16.9889 24.1545 17.1275 24.1556 17.2498 24.1319C17.4065 24.1014 17.5369 24.0316 17.6248 23.9315C17.6579 23.8946 17.6847 23.8545 17.7051 23.8118Z" fill="#ADA2FF"/>
<path d="M15.877 26.7103C15.8019 26.7103 15.7246 26.7029 15.6473 26.6882C15.6245 26.6838 15.605 26.6691 15.5945 26.6484C15.584 26.6277 15.5838 26.6032 15.5937 26.5823L16.7829 24.0958C16.7976 24.0651 16.8313 24.0482 16.8647 24.0545C16.9936 24.0792 17.1218 24.0805 17.2355 24.0584C17.3761 24.0311 17.4912 23.9701 17.5684 23.8822C17.5969 23.8504 17.6199 23.816 17.6374 23.7795C17.6552 23.7422 17.7 23.7264 17.7373 23.7442C17.7747 23.762 17.7905 23.8068 17.7726 23.8441C17.7726 23.8443 17.7724 23.8444 17.7723 23.8447L16.5834 26.3306C16.5597 26.3799 16.5288 26.4262 16.4913 26.468C16.3925 26.5805 16.2483 26.6581 16.0748 26.6919C16.012 26.7042 15.9454 26.7103 15.877 26.7103ZM15.7729 26.5553C15.8684 26.565 15.9614 26.5615 16.0463 26.545C16.1869 26.5176 16.302 26.4567 16.3792 26.3687C16.4077 26.337 16.4307 26.3026 16.4482 26.2661L17.4645 24.1411C17.4036 24.1697 17.3364 24.1914 17.2642 24.2055C17.1491 24.2279 17.0222 24.2297 16.894 24.2113L15.7729 26.5553Z" fill="#111111"/>
<path d="M16.8507 24.1281L15.6614 26.6146L6.46704 24.9097L7.65633 22.4232L16.8507 24.1281Z" fill="#ADA2FF"/>
<path d="M15.6614 26.6895C15.6568 26.6895 15.6523 26.6892 15.6477 26.6883L6.45332 24.9833C6.43038 24.9791 6.41074 24.9644 6.40024 24.9436C6.38967 24.9229 6.38937 24.8984 6.39942 24.8773L7.5887 22.3908C7.60332 22.3602 7.63669 22.3433 7.67005 22.3495L16.8644 24.0544C16.8874 24.0587 16.907 24.0733 16.9175 24.0941C16.9281 24.1148 16.9284 24.1393 16.9183 24.1604L15.7291 26.6469C15.7164 26.6733 15.6898 26.6895 15.6614 26.6895ZM6.57681 24.8539L15.6185 26.5305L16.7409 24.1839L7.69907 22.5073L6.57681 24.8539Z" fill="#111111"/>
<path d="M6.79627 21.8482L6.3683 21.1136C6.24968 20.9101 6.23341 20.6982 6.31431 20.5291L5.1251 23.0156C5.0442 23.1847 5.06047 23.3965 5.17908 23.6001L5.60705 24.3347C5.77223 24.6182 6.11 24.8444 6.46697 24.9098L7.65618 22.4232C7.29921 22.3578 6.96144 22.1316 6.79627 21.8482Z" fill="#ADA2FF"/>
<path d="M6.46702 24.9846C6.46252 24.9846 6.45802 24.9842 6.45345 24.9834C6.07586 24.9142 5.71822 24.6744 5.54218 24.3723L5.11421 23.6378C4.98517 23.4163 4.9644 23.1777 5.05738 22.9833L6.24636 20.4972C6.24644 20.497 6.24651 20.4968 6.24659 20.4967C6.26443 20.4593 6.30927 20.4435 6.34653 20.4614C6.38387 20.4792 6.39969 20.5239 6.38185 20.5612C6.31054 20.7102 6.32921 20.8978 6.43298 21.0758L6.86095 21.8104C7.01593 22.0763 7.33331 22.2879 7.66958 22.3494C7.69252 22.3536 7.71224 22.3683 7.72281 22.3891C7.73338 22.4098 7.73376 22.4344 7.72371 22.4554L6.5345 24.942C6.52205 24.9683 6.49551 24.9846 6.46702 24.9846ZM6.20955 20.9216L5.19271 23.0478C5.12148 23.1968 5.14008 23.3844 5.24384 23.5624L5.67181 24.2969C5.81809 24.5481 6.10938 24.7508 6.42466 24.8244L7.54789 22.4757C7.2063 22.3868 6.89267 22.1624 6.73146 21.8857L6.3035 21.1511C6.25956 21.0759 6.22822 20.9986 6.20955 20.9216Z" fill="#111111"/>
<path d="M12.3039 15.6412C12.4573 15.6114 12.6322 15.6201 12.8112 15.6696C13.1343 15.7594 13.4147 15.9642 13.5635 16.2197L14.1978 17.3083C14.3638 17.5931 14.33 17.8915 14.1127 18.0687L10.9987 20.6215L16.1504 21.5661C16.5097 21.6326 16.8481 21.8571 17.0141 22.1419L17.6484 23.2305C17.7973 23.486 17.7891 23.7484 17.625 23.9315C17.5371 24.0315 17.4067 24.1013 17.25 24.1318C17.1277 24.1556 16.9891 24.1544 16.8508 24.128L7.65639 22.4231C7.29935 22.3578 6.96158 22.1316 6.79648 21.8481L6.36851 21.1136C6.20408 20.8314 6.2364 20.5332 6.45151 20.3551L11.989 15.7837C12.0746 15.7126 12.1825 15.6648 12.3039 15.6412Z" fill="#FEBA00"/>
<path d="M17.0662 24.2238C16.9911 24.2238 16.9138 24.2164 16.8366 24.2017L7.64257 22.4968C7.26521 22.4277 6.90749 22.1879 6.73152 21.8858L6.30355 21.1512C6.11949 20.8352 6.1587 20.5 6.4035 20.2974L11.9411 15.7259C12.0356 15.6475 12.1529 15.5942 12.2895 15.5676C12.4561 15.5352 12.6434 15.5456 12.8311 15.5974C13.1722 15.6922 13.4702 15.9107 13.6282 16.1819L14.2625 17.2706C14.4479 17.5887 14.4077 17.9248 14.16 18.1267L11.1711 20.577L16.1639 21.4924C16.5442 21.5628 16.9033 21.8029 17.0788 22.1042L17.7131 23.1929C17.8795 23.4784 17.8674 23.7732 17.6807 23.9815C17.5819 24.094 17.4377 24.1717 17.2642 24.2054C17.2012 24.2177 17.1346 24.2238 17.0662 24.2238ZM12.3181 15.7147C12.2065 15.7364 12.1118 15.779 12.0367 15.8413L6.49902 20.4127C6.31375 20.5662 6.28781 20.8265 6.43304 21.0758L6.86101 21.8104C7.01591 22.0763 7.33336 22.2878 7.66964 22.3494L16.8642 24.0544C16.9935 24.079 17.1217 24.0804 17.2354 24.0583C17.376 24.0309 17.491 23.97 17.5683 23.882C17.7099 23.724 17.7153 23.4947 17.5833 23.2681L16.949 22.1795C16.7944 21.9143 16.4755 21.7024 16.1364 21.6397L10.9848 20.6951C10.9561 20.6899 10.9331 20.6684 10.9257 20.6402C10.9184 20.612 10.9282 20.5821 10.9508 20.5636L14.0647 18.0107C14.2523 17.8579 14.2789 17.597 14.1327 17.3459L13.4984 16.2573C13.3595 16.019 13.095 15.8263 12.7907 15.7417C12.6257 15.6961 12.4622 15.6867 12.3181 15.7147Z" fill="#111111"/>
</g>
<defs>
<clipPath id="clip0_6045_4803">
<rect width="30" height="16.6667" fill="white" transform="translate(5 11.9375)"/>
</clipPath>
</defs>
</svg>
