<svg width="200" height="111" viewBox="0 0 200 111" fill="none" xmlns="http://www.w3.org/2000/svg">
<g clip-path="url(#clip0_6045_6812)">
<path d="M167.934 32.9664L160.005 49.5268L125.651 43.2378L133.579 26.6774L167.934 32.9664Z" fill="#ADA2FF"/>
<path d="M160.006 50.0256C159.976 50.0256 159.946 50.0231 159.915 50.0176L125.561 43.7286C125.408 43.7007 125.276 43.6029 125.206 43.4647C125.135 43.3266 125.133 43.1629 125.2 43.0228L133.128 26.4624C133.225 26.2589 133.447 26.1467 133.669 26.1871L168.024 32.4761C168.177 32.504 168.308 32.6018 168.379 32.74C168.45 32.8781 168.452 33.0418 168.385 33.1819L160.456 49.7423C160.372 49.9179 160.195 50.0256 160.006 50.0256ZM126.383 42.8646L159.719 48.9671L167.201 33.3391L133.865 27.2366L126.383 42.8646Z" fill="#111111"/>
<path d="M127.831 22.8408L123.602 15.5905C122.807 14.2256 122.688 12.8373 123.228 11.7089L115.3 28.2692C114.759 29.3981 114.878 30.7864 115.674 32.1508L119.902 39.4011C121.009 41.2977 123.26 42.8042 125.651 43.2377L133.579 26.6769C131.189 26.2439 128.937 24.7374 127.831 22.8408Z" fill="#ADA2FF"/>
<path d="M125.651 43.7366C125.622 43.7366 125.592 43.7341 125.562 43.7286C123.039 43.2712 120.648 41.6709 119.471 39.652L115.242 32.4017C114.366 30.8992 114.226 29.3548 114.849 28.0538L122.776 11.4974C122.776 11.4959 122.777 11.4949 122.778 11.4934C122.896 11.245 123.195 11.1398 123.444 11.2585C123.693 11.3772 123.798 11.675 123.679 11.9234L123.678 11.9264C123.204 12.9197 123.33 14.1314 124.035 15.3391L128.263 22.5894C129.3 24.3668 131.421 25.7785 133.669 26.1861C133.822 26.214 133.954 26.3113 134.025 26.45C134.096 26.5886 134.098 26.7518 134.031 26.8919L126.103 43.4528C126.018 43.6284 125.841 43.7366 125.651 43.7366ZM122.535 14.3134L115.751 28.4843C115.275 29.478 115.401 30.6912 116.106 31.8999L120.334 39.1502C121.313 40.8293 123.261 42.1822 125.368 42.6701L132.856 27.0286C130.573 26.438 128.477 24.9404 127.399 23.0912L123.17 15.8409C122.874 15.3331 122.662 14.8198 122.535 14.3134Z" fill="#111111"/>
<path d="M198.249 34.7414L161.332 65.1867L153.404 81.7475L190.321 51.3022C190.724 50.9724 191.031 50.5793 191.24 50.1429L199.168 33.582C198.959 34.0185 198.652 34.4121 198.249 34.7414Z" fill="#ADA2FF"/>
<path d="M153.404 82.2459C153.295 82.2459 153.187 82.211 153.096 82.1401C152.911 81.996 152.852 81.743 152.953 81.532L160.881 64.9712C160.912 64.9059 160.957 64.848 161.013 64.8016L197.93 34.3563L197.932 34.3548C198.271 34.0779 198.534 33.7467 198.715 33.3695L198.716 33.3661C198.835 33.1176 199.134 33.0124 199.383 33.1311C199.632 33.2498 199.737 33.5476 199.618 33.7961L199.617 33.7981L191.69 50.3564C191.445 50.8672 191.091 51.3147 190.637 51.6863L153.721 82.1301C153.63 82.208 153.517 82.2459 153.404 82.2459ZM161.736 65.501L154.831 79.9227L190.003 50.9171C190.344 50.6377 190.608 50.305 190.789 49.9269L197.423 36.0688L161.736 65.501Z" fill="#111111"/>
<path d="M126.25 9.59133C127.061 9.43369 127.97 9.43569 128.92 9.61278L190.216 20.9676C192.601 21.4116 194.853 22.9181 195.949 24.7973L198.802 29.6895C199.903 31.5776 199.688 33.5636 198.249 34.7409L161.332 65.1862C160.772 65.6501 160.045 65.9788 159.229 66.1375C158.185 66.3405 157.015 66.2717 155.84 65.9474C153.701 65.3568 151.827 63.9839 150.834 62.2824L146.605 55.0321C145.499 53.1355 145.719 51.1585 147.163 49.9697L167.934 32.9664L133.579 26.6774C131.189 26.2439 128.937 24.7374 127.831 22.8408L123.602 15.5905C122.61 13.8889 122.67 12.1499 123.749 10.9238C124.354 10.2448 125.225 9.79037 126.25 9.59133Z" fill="#FEBA00"/>
<path d="M157.999 66.7511C157.258 66.7511 156.483 66.6433 155.707 66.4288C153.443 65.8033 151.46 64.3476 150.403 62.5338L146.174 55.2835C144.942 53.1719 145.206 50.935 146.846 49.5852L166.783 33.2628L133.489 27.1683C130.968 26.7109 128.577 25.1106 127.399 23.0917L123.17 15.8414C122.069 13.9528 122.145 11.9913 123.373 10.595C124.045 9.84077 125.006 9.32496 126.154 9.10197C127.046 8.92837 128.008 8.93536 129.012 9.12292L190.307 20.4777C192.829 20.9472 195.213 22.5445 196.381 24.5469L199.234 29.4396C200.467 31.5537 200.205 33.7866 198.566 35.128L161.651 65.5713C161.028 66.0876 160.223 66.4533 159.325 66.6279C158.901 66.7102 158.456 66.7511 157.999 66.7511ZM126.345 10.0807C125.415 10.2618 124.646 10.6679 124.123 11.255C123.194 12.3111 123.16 13.8391 124.035 15.3391L128.263 22.5894C129.3 24.3668 131.422 25.7785 133.669 26.1861L168.024 32.4751C168.216 32.51 168.369 32.6527 168.418 32.8413C168.467 33.0293 168.402 33.2284 168.251 33.3516L147.481 50.3554C146.221 51.3925 146.051 53.0886 147.039 54.7812L151.267 62.0315C152.197 63.6253 153.957 64.9093 155.974 65.4665C157.081 65.7718 158.173 65.8347 159.134 65.6476C159.869 65.505 160.519 65.2126 161.013 64.8021L197.931 34.3563C199.172 33.3411 199.344 31.6081 198.37 29.9404L195.517 25.0477C194.489 23.2853 192.373 21.876 190.124 21.4575L128.829 10.1032C127.961 9.94104 127.103 9.93355 126.345 10.0807Z" fill="#111111"/>
<path d="M159.229 66.138C158.185 66.341 157.016 66.2721 155.841 65.9479C153.702 65.3573 151.828 63.9849 150.835 62.2828L146.606 55.0326C145.811 53.6687 145.701 52.2634 146.239 51.1395L138.311 67.7004C137.773 68.8243 137.882 70.2295 138.678 71.5934L142.906 78.8437C143.899 80.5452 145.774 81.9181 147.912 82.5087C149.087 82.833 150.257 82.9013 151.301 82.6988C152.117 82.5401 152.844 82.2114 153.404 81.7475L161.332 65.1866C160.772 65.6506 160.045 65.9793 159.229 66.138Z" fill="#ADA2FF"/>
<path d="M150.071 83.3114C149.329 83.3114 148.555 83.2037 147.779 82.9892C145.515 82.3636 143.532 80.908 142.475 79.0941L138.246 71.8439C137.383 70.3638 137.242 68.7749 137.86 67.4844L145.789 50.9236C145.907 50.6752 146.206 50.5704 146.455 50.6886C146.704 50.8073 146.809 51.1052 146.69 51.3536L146.69 51.3546C146.217 52.3423 146.344 53.5909 147.038 54.7802L151.267 62.0305C152.196 63.6238 153.956 64.9083 155.974 65.4656C157.08 65.7709 158.173 65.8337 159.134 65.6466C159.868 65.5035 160.519 65.2111 161.013 64.8011C161.194 64.6514 161.455 64.6474 161.64 64.7911C161.825 64.9353 161.885 65.1882 161.784 65.3997L153.855 81.9605C153.824 82.0254 153.779 82.0833 153.724 82.1291C153.1 82.646 152.296 83.0116 151.397 83.1867C150.972 83.2705 150.528 83.3114 150.071 83.3114ZM145.545 53.7476L138.762 67.9149C138.289 68.9026 138.416 70.1518 139.11 71.342L143.338 78.5923C144.268 80.1856 146.027 81.4702 148.045 82.0274C149.151 82.3327 150.243 82.395 151.205 82.2085C151.9 82.0733 152.518 81.8044 153.002 81.4293L160.205 66.3844C159.925 66.4862 159.63 66.5675 159.325 66.6274C158.213 66.8439 156.962 66.775 155.708 66.4288C153.443 65.8033 151.46 64.3471 150.403 62.5338L146.174 55.2835C145.88 54.7792 145.67 54.2614 145.545 53.7476Z" fill="#111111"/>
<path d="M83.8789 6.68352C83.6819 5.80005 83.7709 4.98044 84.1043 4.28455L76.1762 20.8454C75.8428 21.5418 75.7539 22.3609 75.9508 23.2443L94.0968 104.998L102.025 88.4381L83.8789 6.68352Z" fill="#ADA2FF"/>
<path d="M94.0968 105.497C94.0779 105.497 94.0589 105.496 94.0399 105.494C93.8279 105.47 93.6545 105.314 93.6085 105.107L75.4625 23.3521C75.2461 22.3818 75.3371 21.4405 75.725 20.6299L83.6535 4.06903C83.7725 3.8206 84.0709 3.71584 84.3198 3.83407C84.5687 3.95279 84.6742 4.25061 84.5553 4.49904C84.2643 5.10614 84.1994 5.82398 84.3668 6.57475L102.513 88.3298C102.537 88.4385 102.524 88.5523 102.476 88.6526L94.5472 105.213C94.4637 105.388 94.2873 105.497 94.0968 105.497ZM83.4121 6.88703L76.6267 21.0604C76.3363 21.6675 76.2708 22.3853 76.4382 23.1361L94.2708 103.477L101.5 88.3787L83.4121 6.88703Z" fill="#111111"/>
<path d="M94.992 0.655409C96.7424 0.315193 98.8428 0.745701 100.606 1.79428C102.385 2.84985 103.644 4.42073 103.995 6.01056L122.012 87.7896C122.496 90.0049 121.188 91.8083 118.751 92.2817L111.023 93.7837C109.282 94.122 107.187 93.7004 105.413 92.6538C103.645 91.5963 102.385 90.0254 102.024 88.4376L83.8789 6.68401C83.3855 4.47061 84.6871 2.65879 87.1244 2.18488L94.992 0.655409Z" fill="#FEBA00"/>
<path d="M109.795 94.3969C108.261 94.3969 106.605 93.9369 105.159 93.0834C103.281 91.96 101.928 90.2654 101.537 88.5483L83.3906 6.7918C83.1312 5.62799 83.3081 4.53401 83.9019 3.6286C84.5447 2.64885 85.6554 1.96244 87.0285 1.69555L94.8961 0.166078C96.759 -0.196586 98.9893 0.252379 100.862 1.36581C102.749 2.48623 104.103 4.18232 104.483 5.90335L122.5 87.6828C122.754 88.8472 122.574 89.9386 121.979 90.8406C121.334 91.8188 120.222 92.5042 118.846 92.7716L111.118 94.2736C110.694 94.3565 110.25 94.3969 109.795 94.3969ZM96.2287 1.03907C95.8358 1.03907 95.4529 1.07399 95.0875 1.14482L87.2199 2.6743C86.0978 2.89279 85.2395 3.4116 84.7387 4.17484C84.2958 4.84978 84.1674 5.67987 84.3668 6.5753L102.513 88.3298C102.844 89.784 104.024 91.2411 105.671 92.2259C107.338 93.2101 109.303 93.6097 110.928 93.2944L118.656 91.7924C119.781 91.5739 120.642 91.0551 121.145 90.2923C121.588 89.6194 121.719 88.7908 121.524 87.8963L103.507 6.11786C103.186 4.66122 102.005 3.20557 100.351 2.22334C99.0578 1.45411 97.5843 1.03907 96.2287 1.03907Z" fill="#111111"/>
<path d="M118.751 92.2817L111.023 93.7843C109.282 94.1225 107.187 93.701 105.414 92.6544C103.645 91.5968 102.386 90.0259 102.024 88.4386L94.0963 104.999C94.4572 106.586 95.7173 108.158 97.4858 109.215C99.2592 110.262 101.354 110.683 103.095 110.345L110.823 108.843C112.292 108.557 113.351 107.788 113.854 106.737L121.782 90.1771C121.279 91.2277 120.221 91.9964 118.751 92.2817Z" fill="#ADA2FF"/>
<path d="M101.866 110.957C100.332 110.957 98.6764 110.497 97.2309 109.644C95.3525 108.521 93.9994 106.826 93.6085 105.109C93.5835 104.999 93.5965 104.885 93.645 104.783L101.573 88.2226C101.665 88.0305 101.87 87.9178 102.079 87.9417C102.291 87.9652 102.464 88.1198 102.511 88.3268C102.843 89.7835 104.024 91.2411 105.67 92.2254C107.337 93.2091 109.303 93.6087 110.927 93.2934L118.655 91.7909C119.933 91.5424 120.883 90.8934 121.33 89.9626L121.331 89.9601C121.45 89.7116 121.748 89.6069 121.997 89.7251C122.246 89.8438 122.351 90.1417 122.232 90.3901C122.232 90.3916 122.231 90.3931 122.23 90.3951L114.304 106.951C113.718 108.175 112.516 109.02 110.918 109.331L103.19 110.833C102.765 110.917 102.321 110.957 101.866 110.957ZM94.6247 105.052C95.0046 106.454 96.1577 107.839 97.7427 108.786C99.4092 109.77 101.375 110.17 102.999 109.855L110.728 108.353C112.007 108.104 112.957 107.454 113.403 106.522L120.191 92.3431C119.784 92.5326 119.334 92.6768 118.847 92.7711L111.118 94.2736C109.261 94.6348 107.033 94.1898 105.159 93.0834C103.716 92.2209 102.583 91.0206 101.958 89.7326L94.6247 105.052Z" fill="#111111"/>
<path d="M60.7505 40.8338L39.9908 57.8356L32.0623 74.396L52.8219 57.3941C53.2313 57.0609 53.5432 56.6628 53.7546 56.2213L61.6832 39.6605C61.4713 40.1025 61.1599 40.5006 60.7505 40.8338Z" fill="#ADA2FF"/>
<path d="M32.0622 74.8948C31.9532 74.8948 31.8443 74.8594 31.7538 74.7886C31.5693 74.6444 31.5099 74.392 31.6108 74.181L39.5394 57.6201C39.5709 57.5543 39.6169 57.4959 39.6734 57.4495L60.433 40.4477C60.4335 40.4472 60.434 40.4472 60.434 40.4467C60.7799 40.1654 61.0484 39.8286 61.2313 39.4455C61.3503 39.1971 61.6492 39.0918 61.8976 39.2106C62.147 39.3293 62.252 39.6271 62.133 39.8755C62.132 39.8775 62.131 39.8795 62.1305 39.881L54.2049 56.4359C53.9575 56.9522 53.5986 57.4046 53.1373 57.7803L32.3786 74.7816C32.2871 74.8569 32.1747 74.8948 32.0622 74.8948ZM40.3937 58.1509L33.4818 72.5886L52.505 57.009C52.8519 56.7262 53.1203 56.3895 53.3037 56.0064L59.9417 42.1418L40.3937 58.1509Z" fill="#111111"/>
<path d="M84.7006 79.0826L76.7726 95.643C76.6366 95.9273 76.4582 96.1947 76.2372 96.4406C75.6514 97.1071 74.7822 97.572 73.7375 97.775C72.9217 97.9337 71.998 97.9257 71.0758 97.7496L79.0039 81.1893C79.9261 81.3654 80.8498 81.3729 81.6656 81.2147C82.7098 81.0117 83.5795 80.5468 84.1653 79.8803C84.3862 79.6344 84.5647 79.367 84.7006 79.0826Z" fill="#ADA2FF"/>
<path d="M72.5129 98.3872C72.0121 98.3872 71.4967 98.3378 70.9819 98.2395C70.8299 98.2106 70.6995 98.1128 70.6295 97.9746C70.5595 97.8364 70.558 97.6738 70.6245 97.5346L78.5526 80.9743C78.6506 80.7698 78.875 80.657 79.0974 80.6994C79.9572 80.8635 80.8119 80.8725 81.5697 80.7254C82.5069 80.5433 83.2741 80.1372 83.789 79.5516C83.9789 79.3401 84.1324 79.1111 84.2488 78.8676C84.3678 78.6192 84.6662 78.514 84.9151 78.6327C85.1641 78.7514 85.2695 79.0492 85.1506 79.2977C85.1501 79.2992 85.1491 79.3001 85.1486 79.3016L77.222 95.858C77.0645 96.1867 76.8581 96.495 76.6082 96.7729C75.9494 97.5226 74.9882 98.0395 73.8315 98.2644C73.4127 98.3462 72.9688 98.3872 72.5129 98.3872ZM71.8191 97.3545C72.4554 97.4189 73.0758 97.3959 73.6416 97.2857C74.5788 97.1036 75.3461 96.6975 75.8609 96.1119C76.0509 95.9004 76.2043 95.6714 76.3208 95.4285L83.0962 81.2761C82.6903 81.4667 82.2425 81.6108 81.7611 81.7046C80.9938 81.8538 80.1476 81.8662 79.2929 81.7435L71.8191 97.3545Z" fill="#111111"/>
<path d="M79.0044 81.1893L71.0758 97.7496L9.78003 86.3948L17.7086 69.8345L79.0044 81.1893Z" fill="#ADA2FF"/>
<path d="M71.0763 98.2485C71.0458 98.2485 71.0153 98.246 70.9848 98.24L9.68899 86.8852C9.53603 86.8567 9.40507 86.7594 9.3351 86.6208C9.26462 86.4826 9.26262 86.3195 9.3296 86.1793L17.2582 69.619C17.3556 69.4154 17.5781 69.3027 17.8005 69.3436L79.0963 80.6984C79.2493 80.7269 79.3802 80.8241 79.4502 80.9628C79.5207 81.101 79.5227 81.2641 79.4557 81.4043L71.5276 97.9646C71.4426 98.1402 71.2657 98.2485 71.0763 98.2485ZM10.5122 86.0231L70.7903 97.1894L78.2726 81.5609L17.994 70.3947L10.5122 86.0231Z" fill="#111111"/>
<path d="M11.9753 66.0048L9.12217 61.1126C8.33142 59.7572 8.22295 58.3459 8.76228 57.2195L0.834203 73.7799C0.294868 74.9063 0.403334 76.317 1.19409 77.6729L4.04722 82.5651C5.14839 84.4533 7.4002 85.9598 9.77997 86.3953L17.7081 69.8345C15.3283 69.399 13.0765 67.8924 11.9753 66.0048Z" fill="#ADA2FF"/>
<path d="M9.7805 86.8937C9.75051 86.8937 9.72052 86.8912 9.69003 86.8857C7.1728 86.4252 4.78853 84.8279 3.61489 82.8161L0.761756 77.9243C-0.098482 76.4487 -0.23694 74.8599 0.382871 73.5649L8.30945 57.0076C8.30995 57.0066 8.31045 57.0051 8.31095 57.0041C8.42992 56.7556 8.72882 56.6504 8.97725 56.7691C9.22617 56.8878 9.33164 57.1856 9.21268 57.4341C8.73732 58.4263 8.86178 59.6754 9.55357 60.8612L12.4067 65.7539C13.4399 67.5248 15.5557 68.9341 17.7976 69.3436C17.9505 69.3715 18.082 69.4693 18.1525 69.6075C18.2229 69.7457 18.2254 69.9093 18.1584 70.0495L10.2304 86.6103C10.1474 86.7854 9.97045 86.8937 9.7805 86.8937ZM8.06403 59.8345L1.2851 73.9949C0.810241 74.9871 0.934203 76.2362 1.62599 77.422L4.47912 82.3137C5.45432 83.9869 7.39623 85.3368 9.49809 85.8266L16.9863 70.1847C14.709 69.5925 12.6181 68.098 11.5435 66.2552L8.69034 61.3625C8.39743 60.8617 8.18849 60.3469 8.06403 59.8345Z" fill="#111111"/>
<path d="M48.6922 24.6666C49.7144 24.468 50.8805 24.5264 52.0741 24.8561C54.228 25.4537 56.0974 26.8176 57.0896 28.5192L61.3183 35.7695C62.4245 37.6661 62.1996 39.654 60.7505 40.8338L39.9908 57.8356L74.3354 64.1266C76.7306 64.5691 78.9869 66.0646 80.0936 67.9613L84.3223 75.2116C85.315 76.9131 85.26 78.6606 84.1659 79.8798C83.58 80.5463 82.7108 81.0112 81.6661 81.2142C80.8504 81.3728 79.9267 81.3649 79.0044 81.1888L17.7086 69.8344C15.3283 69.3995 13.0765 67.8929 11.9759 66.0048L9.12274 61.1126C8.02657 59.2334 8.24201 57.2475 9.67607 56.0612L46.5928 25.6159C47.1631 25.1425 47.8824 24.8237 48.6922 24.6666Z" fill="#FEBA00"/>
<path d="M80.4415 81.8268C79.9407 81.8268 79.4253 81.7774 78.9105 81.6792L17.6172 70.3248C15.1014 69.8649 12.7167 68.2676 11.5435 66.2557L8.6904 61.363C7.46327 59.2589 7.7247 57.0265 9.3567 55.6766L46.2739 25.2308C46.9042 24.7085 47.686 24.3538 48.5967 24.1767C49.7074 23.9607 50.956 24.0296 52.2071 24.3748C54.4814 25.0063 56.4678 26.4615 57.5215 28.2678L61.7502 35.5181C62.9863 37.6372 62.7179 39.875 61.0664 41.2199L41.141 57.5388L74.4259 63.6358C76.9611 64.1042 79.3553 65.7035 80.5255 67.7104L84.7542 74.9607C85.8634 76.8623 85.7824 78.8257 84.5383 80.213C83.8795 80.9623 82.9183 81.4796 81.7616 81.7041C81.3412 81.7859 80.8974 81.8268 80.4415 81.8268ZM48.7877 25.156C48.0434 25.3006 47.4121 25.5845 46.9112 25.999L9.9935 56.4448C8.75838 57.467 8.58543 59.2005 9.55364 60.8612L12.4068 65.7534C13.4395 67.5243 15.5558 68.9331 17.7976 69.3431L79.0944 80.6984C79.9567 80.8626 80.8114 80.8715 81.5692 80.7244C82.5064 80.5423 83.2737 80.1362 83.7885 79.5506C84.7327 78.498 84.7687 76.971 83.8885 75.462L79.6598 68.2117C78.6296 66.4453 76.5032 65.034 74.2429 64.6165L39.8989 58.3255C39.7074 58.2906 39.554 58.1479 39.505 57.9598C39.456 57.7718 39.5215 57.5727 39.6719 57.4495L60.4316 40.4477C61.6822 39.4296 61.8597 37.6921 60.8845 36.0199L56.6558 28.7696C55.7301 27.1828 53.9666 25.8992 51.9382 25.336C50.838 25.0322 49.7479 24.9694 48.7877 25.156Z" fill="#111111"/>
</g>
<defs>
<clipPath id="clip0_6045_6812">
<rect width="200" height="111" fill="white"/>
</clipPath>
</defs>
</svg>
