<svg width="379" height="208" viewBox="0 0 379 208" fill="none" xmlns="http://www.w3.org/2000/svg">
<g clip-path="url(#clip0_6186_13248)">
<path d="M57.8149 177.727C49.3989 183.991 47.0137 195.011 47.0137 195.011C47.0137 195.011 58.2736 195.876 66.6896 189.613C75.1057 183.349 77.4909 172.329 77.4909 172.329C77.4909 172.329 66.231 171.464 57.8149 177.727Z" fill="#F1F1F1"/>
<path d="M61.3206 180.668C57.2758 190.339 47.1456 195.322 47.1456 195.322C47.1456 195.322 43.5734 184.626 47.6182 174.956C51.663 165.285 61.7932 160.302 61.7932 160.302C61.7932 160.302 65.3654 170.997 61.3206 180.668Z" fill="#F1F1F1"/>
<path d="M303.458 152.712C302.564 146.698 302.328 140.605 302.753 134.541L303.458 124.504C299.576 132.216 300.453 142.366 303.458 152.712Z" fill="#CACACA"/>
<path d="M306.485 154.391C306.055 150.802 305.941 147.183 306.146 143.575L306.485 137.6C304.618 142.191 305.04 148.233 306.485 154.391Z" fill="#CACACA"/>
<path d="M319.942 161.779V165.137C319.94 165.404 319.833 165.66 319.644 165.848C319.456 166.037 319.2 166.143 318.932 166.145H317.251C317.206 166.145 317.163 166.153 317.122 166.17C317.081 166.187 317.044 166.212 317.012 166.243C316.981 166.274 316.956 166.311 316.94 166.352C316.923 166.393 316.914 166.436 316.914 166.481V194.017C316.913 194.284 316.806 194.539 316.617 194.728C316.428 194.917 316.172 195.023 315.905 195.025H295.387C295.119 195.024 294.863 194.918 294.674 194.729C294.484 194.54 294.378 194.284 294.378 194.017V166.481C294.378 166.392 294.342 166.306 294.279 166.243C294.216 166.181 294.131 166.145 294.041 166.145H292.023C291.756 166.145 291.499 166.038 291.31 165.85C291.121 165.661 291.014 165.405 291.014 165.137V161.779C291.014 161.647 291.04 161.516 291.091 161.394C291.141 161.271 291.216 161.16 291.309 161.067C291.403 160.973 291.514 160.899 291.637 160.848C291.759 160.798 291.891 160.772 292.023 160.772H318.932C319.2 160.773 319.456 160.879 319.645 161.068C319.834 161.257 319.941 161.512 319.942 161.779Z" fill="#F2F2F2"/>
<path d="M316.944 166.85H294.408V167.857H316.944V166.85Z" fill="#E6E6E6"/>
<path d="M316.914 181.674C309.373 184.79 301.749 184.824 294.041 181.674V174.577C301.462 172.089 309.494 172.089 316.914 174.577V181.674Z" fill="#E6E6E6"/>
<path d="M190.595 73.156C207.429 73.156 221.076 59.5313 221.076 42.7243C221.076 25.9173 207.429 12.2926 190.595 12.2926C173.76 12.2926 160.113 25.9173 160.113 42.7243C160.113 59.5313 173.76 73.156 190.595 73.156Z" fill="#FEB8B8"/>
<path d="M219.065 16.4703C214.508 9.08216 207.374 3.6381 199.037 1.18612L195.295 3.91243V0.372398C193.293 0.0664651 191.267 -0.0513891 189.242 0.0203856L186.014 2.93678V0.262681C181.234 0.855712 176.628 2.43111 172.488 4.88954C168.349 7.34797 164.764 10.6361 161.96 14.5466C154.949 24.6375 153.765 38.6762 160.661 48.848C162.554 43.0399 164.852 37.5902 166.745 31.7827C168.233 31.9851 169.741 31.9924 171.231 31.8044L173.534 26.4392L174.177 31.5773C181.316 30.9566 191.904 29.5932 198.672 28.3441L198.014 24.4022L201.951 27.6777C204.024 27.2013 205.255 26.7689 205.154 26.4386C210.187 34.5395 216.347 39.7135 221.379 47.8143C223.291 36.3916 225.491 26.8939 219.065 16.4703Z" fill="#2F2E41"/>
<path d="M256.153 120.98C255.104 114.685 254.023 108.268 251.092 102.597C249.166 98.8819 246.109 95.3419 241.987 94.6074C241.175 94.5351 240.377 94.3507 239.616 94.0594C238.408 93.4786 222.178 84.229 219.599 82.618C217.384 81.235 213.887 78.6742 212.125 78.6742C210.351 78.6352 203.55 80.2154 177.006 78.1439C177.006 78.1439 169.714 81.0134 164.072 84.4928C163.987 84.4366 136.522 99.1606 135.49 99.1219C133.536 99.0397 131.72 100.289 130.6 101.862C129.48 103.435 128.954 105.382 128.404 107.264C134.403 120.601 139.892 133.955 145.891 147.292C146.172 147.795 146.321 148.36 146.325 148.935C146.204 149.532 145.949 150.094 145.578 150.578C142.636 155.296 142.73 161.23 143.051 166.775C143.373 172.321 143.771 178.178 141.288 183.149C140.613 184.513 139.735 185.762 139.093 187.127C137.589 190.217 137.046 200.102 137.924 203.423L247.971 206.57C245.605 200.077 256.153 120.98 256.153 120.98Z" fill="#7A45FF"/>
<path d="M118.892 147.884C118.672 149.469 118.65 151.076 118.826 152.668L120.403 175.282C120.551 177.413 120.697 179.539 120.897 181.665C121.276 185.791 121.841 189.885 122.543 193.972C122.559 194.552 122.805 195.103 123.226 195.502C123.648 195.902 124.212 196.118 124.793 196.104C131.736 197.57 138.909 197.512 145.995 197.112C156.808 196.51 184.471 195.37 186.161 193.178C187.851 190.986 186.866 187.441 184.663 185.668C182.459 183.896 145.954 179.575 145.954 179.575C146.31 176.753 147.386 174.095 148.407 171.416C150.241 166.664 151.953 161.756 151.986 156.665C152.019 151.575 150.098 146.222 145.921 143.306C142.485 140.912 138.061 140.467 133.874 140.566C130.827 140.653 125.564 139.925 122.781 141.114C120.58 142.082 119.303 145.731 118.892 147.884Z" fill="#FBBEBE"/>
<path d="M128.087 107.67C127.552 108.229 127.138 108.891 126.869 109.616C122.432 119.598 119.812 130.289 119.13 141.189C119.142 141.72 119.019 142.246 118.773 142.717C118.531 143.031 118.261 143.323 117.966 143.589C117.71 143.892 117.516 144.243 117.395 144.622C117.274 145 117.23 145.399 117.263 145.795C117.297 146.191 117.408 146.576 117.591 146.929C117.774 147.282 118.025 147.595 118.329 147.851C118.379 147.893 118.43 147.934 118.482 147.972C119.388 146.271 121.556 145.715 123.483 145.567C132.709 144.838 141.721 149.123 150.975 148.8C150.322 146.548 149.383 144.384 148.85 142.104C146.496 131.984 152.369 120.964 148.768 111.216C148.049 109.265 146.847 107.348 144.954 106.493C144.17 106.177 143.349 105.96 142.511 105.847C140.173 105.426 135.518 103.623 133.258 104.346C132.423 104.615 132.094 105.398 131.402 105.872C130.352 106.542 128.958 106.788 128.087 107.67Z" fill="#7A45FF"/>
<path d="M256.218 141.114C253.436 139.925 248.172 140.653 245.126 140.566C240.939 140.467 236.515 140.912 233.079 143.306C228.902 146.222 226.981 151.575 227.014 156.665C227.047 161.756 228.759 166.664 230.593 171.416C231.613 174.095 232.689 176.753 233.046 179.575C233.046 179.575 196.541 183.896 194.337 185.668C192.133 187.441 191.149 190.986 192.839 193.178C194.529 195.37 247.264 197.57 254.207 196.104C254.788 196.118 255.352 195.902 255.773 195.502C256.195 195.103 256.441 194.552 256.457 193.972C257.159 189.885 257.724 185.791 258.102 181.665C258.303 179.539 258.448 177.413 258.597 175.282L260.174 152.668C260.35 151.076 260.328 149.47 260.108 147.884C259.697 145.731 258.42 142.082 256.218 141.114Z" fill="#FBBEBE"/>
<path d="M247.598 105.872C246.906 105.398 246.577 104.615 245.742 104.346C243.482 103.623 238.827 105.426 236.489 105.847C235.651 105.96 234.83 106.177 234.046 106.493C232.153 107.348 230.951 109.265 230.232 111.216C226.631 120.964 232.504 131.984 230.15 142.104C229.617 144.384 228.678 146.548 228.025 148.8C237.279 149.123 246.291 144.838 255.517 145.567C257.444 145.715 259.612 146.271 260.518 147.972C260.57 147.934 260.621 147.893 260.671 147.851C260.975 147.595 261.226 147.282 261.409 146.929C261.592 146.576 261.703 146.191 261.737 145.795C261.77 145.399 261.726 145 261.605 144.622C261.484 144.243 261.29 143.892 261.034 143.589C260.739 143.323 260.469 143.031 260.227 142.717C259.981 142.246 259.858 141.72 259.87 141.189C259.188 130.289 256.568 119.598 252.131 109.616C251.862 108.891 251.448 108.229 250.913 107.67C250.042 106.788 248.648 106.542 247.598 105.872Z" fill="#7A45FF"/>
<path d="M181.567 197.184C186.11 197.184 189.794 193.506 189.794 188.97C189.794 184.434 186.11 180.757 181.567 180.757C177.023 180.757 173.34 184.434 173.34 188.97C173.34 193.506 177.023 197.184 181.567 197.184Z" fill="#FBBEBE"/>
<path d="M199.784 197.184C204.328 197.184 208.011 193.506 208.011 188.97C208.011 184.434 204.328 180.757 199.784 180.757C195.24 180.757 191.557 184.434 191.557 188.97C191.557 193.506 195.24 197.184 199.784 197.184Z" fill="#FBBEBE"/>
<path d="M250.568 207.478H137.54C136.22 207.477 134.955 206.953 134.022 206.021C133.089 205.09 132.564 203.827 132.562 202.509V134.051C132.564 132.734 133.089 131.471 134.022 130.539C134.955 129.608 136.22 129.084 137.54 129.082H250.568C251.887 129.084 253.152 129.608 254.085 130.539C255.019 131.471 255.544 132.734 255.545 134.051V202.509C255.544 203.827 255.019 205.09 254.085 206.021C253.152 206.953 251.887 207.477 250.568 207.478Z" fill="#061A40"/>
<path d="M193.78 171.568C195.598 171.568 197.073 170.096 197.073 168.28C197.073 166.465 195.598 164.993 193.78 164.993C191.961 164.993 190.486 166.465 190.486 168.28C190.486 170.096 191.961 171.568 193.78 171.568Z" fill="white"/>
<path d="M379 196.67H0V208.297H22.4174H356.591H379V196.67Z" fill="#F1F1F1"/>
<path d="M162.564 54.0667C157.667 54.0667 153.696 49.7808 153.696 44.4938V39.7073C153.696 34.4203 157.667 30.1344 162.564 30.1344L162.564 54.0667Z" fill="#7A45FF"/>
<path d="M219.168 30.1344C224.066 30.1344 228.037 34.4203 228.037 39.7073V44.4938C228.037 49.7808 224.066 54.0667 219.168 54.0667V30.1344Z" fill="#7A45FF"/>
<path d="M223.815 40.4595H222.408C222.408 21.1969 207.89 5.52557 190.045 5.52557C172.201 5.52557 157.683 21.1969 157.683 40.4595H156.276C156.276 20.3594 171.425 4.00671 190.045 4.00671C208.666 4.00672 223.815 20.3594 223.815 40.4595Z" fill="#7A45FF"/>
</g>
<defs>
<clipPath id="clip0_6186_13248">
<rect width="379" height="208" fill="white"/>
</clipPath>
</defs>
</svg>
