<svg width="236" height="210" viewBox="0 0 236 210" fill="none" xmlns="http://www.w3.org/2000/svg">
<g clip-path="url(#clip0_5943_13156)">
<g opacity="0.3">
<path d="M228.493 13.3361V197.568H7.80175V13.3361H228.493ZM229.216 12.6H7.07996V198.304H229.216V12.6Z" fill="#C4ECFE"/>
<path d="M60.8153 12.6H61.4906V198.304H60.8153V12.6ZM89.0797 12.6H89.7551V198.304H89.0797V12.6Z" fill="#C4ECFE"/>
<path d="M60.8154 12.6H61.4907V198.304H60.8154V12.6ZM32.5507 12.6H33.226V198.304H32.5507V12.6ZM117.344 12.6H118.02V198.304H117.344V12.6ZM145.609 12.6H146.284V198.304H145.609V12.6ZM173.524 12.6H174.199V198.304H173.524V12.6ZM201.44 12.6H202.115V198.304H201.44V12.6Z" fill="#C4ECFE"/>
</g>
<path d="M102.563 29.9862C103.357 29.9862 104.001 29.3315 104.001 28.5239C104.001 27.7163 103.357 27.0616 102.563 27.0616C101.768 27.0616 101.124 27.7163 101.124 28.5239C101.124 29.3315 101.768 29.9862 102.563 29.9862Z" fill="#BFD9FF"/>
<path d="M48.7533 66.3722C49.5477 66.3722 50.1917 65.7175 50.1917 64.9099C50.1917 64.1023 49.5477 63.4476 48.7533 63.4476C47.9589 63.4476 47.3149 64.1023 47.3149 64.9099C47.3149 65.7175 47.9589 66.3722 48.7533 66.3722Z" fill="#BFD9FF"/>
<path d="M20.1743 44.7762C20.9687 44.7762 21.6127 44.1215 21.6127 43.3139C21.6127 42.5063 20.9687 41.8516 20.1743 41.8516C19.3799 41.8516 18.736 42.5063 18.736 43.3139C18.736 44.1215 19.3799 44.7762 20.1743 44.7762Z" fill="#BFD9FF"/>
<path d="M219.072 67.2613C219.866 67.2613 220.51 66.6066 220.51 65.799C220.51 64.9914 219.866 64.3367 219.072 64.3367C218.278 64.3367 217.634 64.9914 217.634 65.799C217.634 66.6066 218.278 67.2613 219.072 67.2613Z" fill="#BFD9FF"/>
<path d="M11.0359 197.195H224.777V198.336H11.0359V197.195Z" fill="#2B2B2B"/>
</g>
<g clip-path="url(#clip1_5943_13156)">
<path d="M55.0171 196.368H80.7705L71.1584 192.419H64.6292L55.0171 196.368Z" fill="white"/>
<path d="M55.0171 197.25H80.7705C80.9706 197.252 81.165 197.182 81.32 197.053C81.475 196.925 81.5809 196.745 81.6192 196.545C81.6547 196.345 81.6227 196.138 81.5284 195.959C81.434 195.78 81.2829 195.638 81.0995 195.557L71.4876 191.608C71.3826 191.566 71.2713 191.542 71.1584 191.537H64.6292C64.5157 191.535 64.4032 191.559 64.3003 191.608L54.6881 195.557C54.5027 195.635 54.3494 195.775 54.2544 195.954C54.1594 196.134 54.1288 196.342 54.1677 196.542C54.2065 196.742 54.3126 196.922 54.4675 197.051C54.6225 197.18 54.8168 197.251 55.0171 197.25ZM76.3195 195.487H59.4854L64.8024 193.3H71.0028L76.3195 195.487Z" fill="#F9D5FF"/>
<path d="M69.8942 170.734H65.9109V192.137H69.8942V170.734Z" fill="white"/>
<path d="M65.9109 193.019H69.8941C70.0081 193.02 70.1212 192.998 70.2267 192.954C70.3322 192.91 70.428 192.845 70.5087 192.763C70.5893 192.681 70.653 192.583 70.6961 192.476C70.7392 192.369 70.7609 192.254 70.7599 192.138V170.734C70.7609 170.618 70.7392 170.503 70.6961 170.396C70.653 170.288 70.5893 170.191 70.5087 170.108C70.428 170.026 70.3322 169.962 70.2267 169.918C70.1212 169.874 70.0081 169.852 69.8941 169.853H65.9109C65.7969 169.852 65.6838 169.874 65.5783 169.918C65.4727 169.961 65.3769 170.026 65.2963 170.108C65.2157 170.19 65.1519 170.288 65.1088 170.395C65.0657 170.503 65.044 170.618 65.0451 170.734V192.138C65.044 192.254 65.0657 192.369 65.1088 192.476C65.1519 192.584 65.2157 192.681 65.2963 192.763C65.3769 192.845 65.4727 192.91 65.5783 192.954C65.6838 192.998 65.7969 193.02 65.9109 193.019ZM69.0282 191.256H66.7766V171.615H69.0282V191.256Z" fill="#F9D5FF"/>
<path d="M70.7601 171.122H65.045V174.824H70.7601V171.122Z" fill="#2B2B2B"/>
<path d="M71.401 147.991H64.4041V173.731H71.401V147.991Z" fill="#F9D5FF"/>
<path d="M71.401 154.778H64.4041V157.864H71.401V154.778Z" fill="#2B2B2B"/>
<path d="M77.9302 152.927H57.8576V156.63H77.9302V152.927Z" fill="#F9D5FF"/>
<path d="M97.1274 144.024L96.2961 128.915C96.1747 126.709 95.2269 124.635 93.6482 123.12C92.0694 121.604 89.9799 120.763 87.8099 120.769L75.3229 120.822L76.6912 145.805C76.7325 146.617 77.0795 147.382 77.66 147.94C78.2405 148.498 79.01 148.807 79.8085 148.803H92.7979C93.1488 148.801 93.498 148.754 93.837 148.662C95.8979 148.167 97.2489 146.175 97.1274 144.024Z" fill="white"/>
<path d="M79.8086 149.683H92.7979C93.2184 149.683 93.6371 149.629 94.0448 149.524C96.4871 148.943 98.1322 146.615 97.9934 143.989L97.1621 128.879C97.0263 126.45 95.9811 124.165 94.2416 122.496C92.5021 120.827 90.2004 119.9 87.81 119.905L74.405 119.958L75.8253 145.875C75.8849 146.908 76.331 147.878 77.0719 148.587C77.8128 149.295 78.7922 149.687 79.8086 149.683ZM87.8446 121.651C89.7875 121.654 91.6555 122.414 93.0658 123.775C94.4762 125.135 95.3221 126.993 95.4302 128.968L96.2615 144.077C96.3273 144.914 96.0986 145.747 95.6164 146.429C95.1342 147.11 94.4299 147.595 93.629 147.797H93.6117C93.3457 147.865 93.0724 147.901 92.7979 147.902H79.8086C79.2325 147.902 78.6786 147.677 78.2601 147.274C77.8416 146.871 77.5902 146.32 77.5572 145.735L76.2408 121.669L87.81 121.617C87.8273 121.651 87.8273 121.651 87.8446 121.651Z" fill="#F9D5FF"/>
<path d="M46.9986 144.711H81.4113C84.7537 144.711 87.2823 141.52 87.0572 137.59L85.031 102.505C84.8059 98.573 81.9134 95.3813 78.5537 95.3813H44.1408C40.7984 95.3813 38.2697 98.573 38.4948 102.503L40.5211 137.588C40.7464 141.52 43.656 144.711 46.9986 144.711Z" fill="white"/>
<path d="M46.9986 145.593H81.4113C82.2551 145.593 83.0896 145.415 83.8619 145.069C84.6341 144.723 85.3272 144.217 85.8969 143.583C87.3169 142.049 88.0617 139.845 87.9232 137.536L85.8969 102.451C85.637 98.0614 82.3465 94.5 78.5537 94.5H44.1407C43.297 94.4998 42.4624 94.6784 41.6902 95.0244C40.9179 95.3704 40.2249 95.8763 39.6551 96.5098C38.2351 98.0437 37.4903 100.247 37.6289 102.557L39.6551 137.642C39.9151 142.032 43.2055 145.593 46.9986 145.593ZM78.5537 96.2626C81.4459 96.2626 83.9745 99.0834 84.165 102.557L86.1913 137.642C86.2952 139.476 85.7233 141.203 84.6325 142.384C84.2223 142.838 83.7244 143.2 83.1701 143.449C82.6158 143.698 82.0171 143.828 81.4113 143.83H46.9986C44.1061 143.83 41.5777 141.009 41.387 137.536L39.3608 102.451C39.2569 100.617 39.8287 98.8895 40.9196 97.7084C41.3298 97.2547 41.8276 96.892 42.3819 96.6433C42.9362 96.3945 43.535 96.2649 44.1407 96.2626H78.5537Z" fill="#F9D5FF"/>
<path d="M61.3558 144.024L60.5247 128.915C60.4032 126.709 59.4554 124.635 57.8766 123.12C56.2978 121.604 54.2082 120.763 52.0383 120.769L39.5513 120.822L40.6077 140.268C40.7333 142.575 41.7226 144.745 43.3721 146.332C45.0215 147.92 47.2058 148.803 49.4755 148.801H57.0262C57.3771 148.8 57.7264 148.752 58.0653 148.66C60.1089 148.167 61.4772 146.175 61.3558 144.024Z" fill="white"/>
<path d="M49.4751 149.683H57.0263C57.4467 149.683 57.8655 149.629 58.2732 149.525C59.464 149.219 60.5116 148.497 61.2332 147.485C61.9549 146.473 62.3047 145.236 62.2218 143.989L61.3907 128.879C61.2566 126.455 60.2168 124.175 58.4843 122.507C56.7518 120.838 54.4579 119.908 52.0729 119.906H52.0383L38.6334 119.958L39.7418 140.339C39.8855 142.867 40.9738 145.244 42.7836 146.981C44.5933 148.718 46.9875 149.685 49.4751 149.683ZM52.0722 121.651C54.0153 121.654 55.8834 122.414 57.294 123.774C58.7045 125.135 59.5506 126.993 59.6588 128.968L60.4901 144.077C60.594 145.822 59.4508 147.427 57.8576 147.797H57.8403C57.5742 147.865 57.3008 147.901 57.0263 147.902H49.4751C47.4259 147.905 45.4538 147.108 43.9651 145.674C42.4763 144.241 41.5844 142.281 41.473 140.198L40.4685 121.686L52.0376 121.633C52.0545 121.651 52.0545 121.651 52.0729 121.651H52.0722Z" fill="#F9D5FF"/>
<path d="M75.2111 144.89H43.5537C43.0329 144.889 42.5171 144.993 42.0359 145.196C41.5547 145.399 41.1174 145.696 40.7491 146.071C40.3809 146.446 40.0888 146.891 39.8897 147.381C39.6906 147.871 39.5883 148.396 39.5887 148.926C39.5881 149.456 39.6904 149.981 39.8895 150.471C40.0886 150.961 40.3806 151.406 40.749 151.781C41.1173 152.156 41.5547 152.454 42.036 152.656C42.5174 152.859 43.0333 152.963 43.5542 152.963H75.2115L75.2111 144.89Z" fill="white"/>
<path d="M43.5542 143.762H75.2115V146.017H43.5542C43.1767 146.014 42.8023 146.087 42.4526 146.231C42.1029 146.376 41.7848 146.59 41.5167 146.86C41.2486 147.131 41.0357 147.452 40.8905 147.807C40.7453 148.162 40.6705 148.542 40.6705 148.927C40.6705 149.311 40.7453 149.691 40.8905 150.046C41.0357 150.401 41.2486 150.722 41.5167 150.993C41.7848 151.263 42.1029 151.477 42.4526 151.622C42.8023 151.766 43.1767 151.839 43.5542 151.836H75.2115V154.091H43.5542C42.8851 154.095 42.2217 153.965 41.6022 153.708C40.9827 153.45 40.4194 153.071 39.9447 152.591C39.4699 152.111 39.0931 151.54 38.836 150.911C38.5789 150.282 38.4466 149.608 38.4466 148.927C38.4466 148.245 38.5789 147.571 38.836 146.942C39.0931 146.313 39.4699 145.742 39.9447 145.262C40.4194 144.782 40.9827 144.403 41.6022 144.145C42.2217 143.888 42.8851 143.758 43.5542 143.762Z" fill="#F9D5FF"/>
<path d="M65.0449 152.963H96.7019C97.2228 152.964 97.7388 152.86 98.2201 152.657C98.7015 152.454 99.1389 152.157 99.5072 151.782C99.8755 151.407 100.168 150.961 100.367 150.471C100.566 149.981 100.668 149.456 100.667 148.926C100.668 148.395 100.565 147.87 100.366 147.38C100.167 146.89 99.8752 146.445 99.5069 146.07C99.1386 145.695 98.7012 145.398 98.2199 145.195C97.7386 144.993 97.2227 144.889 96.7019 144.889H65.0445L65.0449 152.963Z" fill="white"/>
<path d="M101.775 148.926C101.771 150.294 101.236 151.606 100.285 152.573C99.3347 153.541 98.0465 154.086 96.7021 154.09H65.0447V151.835H96.7019C97.4553 151.828 98.1755 151.518 98.7059 150.974C99.2363 150.429 99.5338 149.693 99.5338 148.926C99.5338 148.159 99.2363 147.423 98.7059 146.878C98.1755 146.333 97.4553 146.024 96.7019 146.017H65.0445V143.762H96.7019C97.3686 143.76 98.0292 143.892 98.6456 144.15C99.262 144.409 99.822 144.79 100.294 145.27C100.765 145.749 101.139 146.32 101.393 146.947C101.647 147.574 101.777 148.247 101.775 148.926Z" fill="#F9D5FF"/>
<path d="M43.4819 143.909H57.1784C59.9402 143.909 62.1792 146.189 62.1792 149C62.1792 151.812 59.9402 154.091 57.1784 154.091H43.4819C40.72 154.091 38.4811 151.812 38.4811 149C38.4811 146.189 40.72 143.909 43.4819 143.909Z" fill="#F9D5FF"/>
</g>
<g clip-path="url(#clip2_5943_13156)">
<path d="M90.6163 111.074H176.067V133.366H90.6163V111.074Z" fill="#F9D5FF"/>
<path d="M83.9275 110.7H183.49V112.263H83.9275V110.7Z" fill="#96B5C8"/>
<path d="M175.365 111.651H176.801V197.25H175.365V111.651ZM90.6163 111.651H92.0523V197.25H90.6163V111.651Z" fill="#96B5C8"/>
</g>
<g clip-path="url(#clip3_5943_13156)">
<path d="M111.436 16.7999H95.949C94.9484 16.7982 93.9574 16.9977 93.033 17.3869C92.1087 17.7762 91.2692 18.3475 90.5631 19.068C89.8569 19.7885 89.298 20.6439 88.9186 21.5849C88.5392 22.5259 88.3467 23.534 88.3523 24.5509V28.1421C88.3523 29.1561 88.5487 30.1601 88.9305 31.0969C89.3122 32.0337 89.8717 32.8848 90.5771 33.6018C91.2825 34.3188 92.12 34.8875 93.0416 35.2755C93.9633 35.6635 94.9511 35.8632 95.9487 35.8632H102.8L104.371 59.2499L106.486 59.1016L104.925 35.8632H111.436C112.434 35.8632 113.422 35.6635 114.343 35.2755C115.265 34.8875 116.102 34.3188 116.808 33.6018C117.513 32.8848 118.073 32.0337 118.454 31.0969C118.836 30.1601 119.033 29.1561 119.033 28.1421V24.521C119.033 23.507 118.836 22.503 118.454 21.5662C118.073 20.6294 117.513 19.7782 116.808 19.0612C116.102 18.3442 115.265 17.7755 114.343 17.3875C113.422 16.9995 112.434 16.7999 111.436 16.7999Z" fill="#F9D5FF"/>
<path d="M101.19 21.9772C100.336 21.9772 99.7766 22.4559 99.8356 23.2939L99.8648 23.9823C99.894 24.9997 99.4527 25.7478 98.5399 26.107C99.4527 26.4662 99.8943 27.2143 99.8648 28.2317L99.8356 28.9202C99.8064 29.7581 100.336 30.2369 101.19 30.2369H101.485V31.494H101.19C99.3351 31.494 98.3636 30.4463 98.4517 28.7407L98.4809 28.0523C98.5101 27.2143 97.9804 26.7356 97.097 26.7356V25.4785C97.9804 25.4785 98.5104 24.9997 98.4809 24.1618L98.4517 23.4736C98.3642 21.7977 99.3351 20.7204 101.19 20.7204H101.485V21.9772H101.19ZM106.225 30.2665C107.079 30.2665 107.638 29.7878 107.579 28.9498L107.55 28.2614C107.521 27.244 107.962 26.4959 108.875 26.1367C107.962 25.7775 107.521 25.0294 107.55 24.012L107.579 23.3235C107.609 22.4856 107.079 22.0068 106.225 22.0068H105.931V20.7504H106.225C108.08 20.7504 109.051 21.7977 108.963 23.5036L108.934 24.1918C108.905 25.0297 109.434 25.5085 110.317 25.5085V26.7664C109.434 26.7664 108.904 27.2452 108.934 28.0831L108.963 28.7713C109.05 30.4472 108.08 31.5245 106.225 31.5245H105.931V30.2665H106.225Z" fill="#FFA300"/>
</g>
<g clip-path="url(#clip4_5943_13156)">
<path d="M205.757 68.55H188.606C186.371 68.5572 184.231 69.4537 182.654 71.0429C181.077 72.6322 180.192 74.7843 180.193 77.0275V78.1402H164.02V80.4969H180.193V80.9553C180.193 82.0643 180.411 83.1624 180.833 84.187C181.256 85.2115 181.876 86.1425 182.657 86.9267C183.438 87.7109 184.366 88.3329 185.386 88.7573C186.407 89.1816 187.501 89.4 188.606 89.4H205.757C206.862 89.4 207.956 89.1816 208.977 88.7573C209.997 88.3329 210.925 87.7109 211.706 86.9267C212.487 86.1425 213.107 85.2115 213.53 84.187C213.952 83.1624 214.17 82.0643 214.17 80.9553V76.9947C214.17 75.8857 213.952 74.7876 213.53 73.763C213.107 72.7384 212.487 71.8075 211.706 71.0233C210.925 70.2391 209.997 69.6171 208.977 69.1927C207.956 68.7683 206.862 68.5499 205.757 68.55Z" fill="#F9D5FF"/>
<path d="M191.769 82.1664H190.204L187.725 75.9793H189.193L191.019 80.758L192.845 75.9793H194.247L191.769 82.1664ZM201.258 82.1664H199.888V81.4461C199.661 81.7369 199.368 81.9689 199.033 82.1226C198.698 82.2764 198.332 82.3474 197.964 82.3299C196.236 82.3299 194.899 80.988 194.899 79.0895C194.899 77.191 196.236 75.8495 197.964 75.8495C198.332 75.8319 198.698 75.903 199.033 76.0567C199.368 76.2105 199.661 76.4425 199.888 76.7332V76.0117H201.225V82.1664H201.258ZM196.301 79.0895C196.301 80.1695 197.019 81.086 198.16 81.086C199.268 81.086 200.018 80.2351 200.018 79.0895C200.018 77.944 199.268 77.093 198.16 77.093C196.986 77.1255 196.301 77.9768 196.301 79.0895ZM207.485 76.0117L207.159 77.3539C206.84 77.2123 206.497 77.1344 206.148 77.1245C205.301 77.1245 204.681 77.7464 204.681 78.794V82.1664H203.344V75.9793H204.681V76.6667C204.886 76.3867 205.157 76.1623 205.471 76.014C205.784 75.8656 206.129 75.7979 206.474 75.8171C206.819 75.8344 207.159 75.8999 207.485 76.0117Z" fill="#FFA300"/>
</g>
<g clip-path="url(#clip5_5943_13156)">
<path d="M161.176 16.8H146.657C144.765 16.8062 142.953 17.5833 141.618 18.9606C140.283 20.338 139.534 22.2033 139.535 24.1475V27.5517C139.535 28.5129 139.719 29.4646 140.077 30.3526C140.435 31.2406 140.96 32.0475 141.621 32.7272C142.282 33.4068 143.067 33.9459 143.931 34.3137C144.795 34.6815 145.721 34.8708 146.657 34.8708H150.763L146.692 56.7667L148.644 57.15L152.786 34.8708H161.176C162.111 34.8708 163.038 34.6815 163.902 34.3137C164.766 33.9459 165.551 33.4068 166.212 32.7272C166.873 32.0475 167.398 31.2406 167.756 30.3526C168.114 29.4646 168.298 28.5129 168.298 27.5517V24.1191C168.298 23.1579 168.114 22.2061 167.756 21.3181C167.398 20.4301 166.873 19.6233 166.212 18.9436C165.551 18.264 164.766 17.7248 163.902 17.357C163.038 16.9892 162.111 16.8 161.176 16.8Z" fill="#F9D5FF"/>
<path d="M149.969 25.9063C149.974 26.0393 149.964 26.1725 149.942 26.3036H146.436C146.464 26.6601 146.627 26.991 146.89 27.2246C147.154 27.4583 147.496 27.5758 147.843 27.5517C148.342 27.5243 148.822 27.3468 149.224 27.0411L149.748 27.807C149.202 28.2807 148.502 28.524 147.788 28.4878C146.381 28.4878 145.359 27.4665 145.359 25.9347C145.359 24.4028 146.325 23.3816 147.733 23.3816C149.058 23.3532 149.969 24.4028 149.969 25.9063ZM146.463 25.5092H148.919C148.81 24.7433 148.367 24.2892 147.732 24.2892C147.407 24.279 147.091 24.4015 146.853 24.6301C146.615 24.8587 146.475 25.1748 146.463 25.5092H146.463ZM152.288 28.3745H151.239V21.027H152.288V28.3745ZM157.146 24.7149C156.698 24.4583 156.195 24.3216 155.683 24.3176C155.131 24.3176 154.772 24.5445 154.772 24.885C154.772 25.2255 155.103 25.3105 155.545 25.3957L156.042 25.48C157.091 25.6206 157.698 26.0755 157.698 26.9267C157.698 27.863 156.897 28.5153 155.545 28.5153C154.817 28.5367 154.101 28.3179 153.502 27.8911L153.971 27.0971C154.41 27.4496 154.962 27.6216 155.517 27.5793C156.207 27.5793 156.594 27.3524 156.594 26.9835C156.594 26.7282 156.345 26.5296 155.766 26.4444L155.269 26.3882C154.22 26.2476 153.64 25.7359 153.64 24.9415C153.64 23.9768 154.385 23.3813 155.6 23.3813C156.269 23.3615 156.93 23.5386 157.505 23.8919L157.146 24.7149ZM163.219 25.9063C163.223 26.0393 163.214 26.1725 163.191 26.3036H159.685C159.713 26.6603 159.876 26.9915 160.14 27.2252C160.404 27.4588 160.747 27.5762 161.094 27.5517C161.593 27.5243 162.073 27.3468 162.474 27.0411L162.999 27.807C162.453 28.2807 161.752 28.524 161.039 28.4878C159.631 28.4878 158.61 27.4665 158.61 25.9347C158.61 24.4028 159.576 23.3816 160.956 23.3816C162.28 23.3532 163.191 24.4028 163.219 25.9063ZM159.685 25.5092H162.142C162.033 24.7433 161.59 24.2892 160.955 24.2892C160.63 24.279 160.313 24.4015 160.075 24.6301C159.838 24.8587 159.697 25.1748 159.685 25.5092Z" fill="#5E41F4"/>
</g>
<g clip-path="url(#clip6_5943_13156)">
<path d="M93.9575 56.7H164.905V100.481H93.9575V56.7Z" fill="#2B2B2B"/>
<path d="M99.4215 62.6339H131.21V64.1874H99.4215V62.6339Z" fill="#5E41F4"/>
<path d="M138.093 62.6339H159.441V64.1874H138.093V62.6339Z" fill="#FFA300"/>
<path d="M99.4215 67.1219H115.877V68.6755H99.4215V67.1219Z" fill="#FF288C"/>
<path d="M122.76 67.1219H159.441V68.6755H122.76V67.1219Z" fill="#3ACDFF"/>
<path d="M99.4215 71.6318H131.21V73.1854H99.4215V71.6318Z" fill="#5E41F4"/>
<path d="M135.213 71.6318H159.42V73.1854H135.213V71.6318Z" fill="#FF75C2"/>
<path d="M99.4215 76.1415H131.21V77.6951H99.4215V76.1415Z" fill="#FFA300"/>
<path d="M138.093 76.1415H159.441V77.6951H138.093V76.1415ZM99.4215 80.6296H131.21V82.1832H99.4215V80.6296Z" fill="#FF288C"/>
<path d="M138.093 80.6296H159.441V82.1831H138.093V80.6296Z" fill="#5E41F4"/>
<path d="M99.4215 85.1179H111.091V86.6715H99.4215V85.1179Z" fill="#3ACDFF"/>
<path d="M117.931 85.1179H159.42V86.6715H117.931V85.1179ZM99.4215 89.6276H123.755V91.1812H99.4215V89.6276Z" fill="#5E41F4"/>
<path d="M130.617 89.6276H159.42V91.1811H130.617V89.6276Z" fill="#FFA300"/>
<path d="M99.4215 94.1373H131.21V95.6908H99.4215V94.1373Z" fill="#3ACDFF"/>
<path d="M138.093 94.1373H159.441V95.6908H138.093V94.1373Z" fill="#FF288C"/>
<path d="M149.047 109.771H144.737L135.805 97.4512C135.756 97.3839 135.692 97.3292 135.619 97.2915C135.546 97.2538 135.465 97.2342 135.383 97.2341H123.48C123.397 97.2341 123.316 97.2538 123.243 97.2915C123.17 97.3292 123.106 97.3839 123.057 97.4512L114.125 109.771H109.816C109.676 109.771 109.543 109.828 109.444 109.928C109.346 110.028 109.291 110.164 109.291 110.306C109.291 110.448 109.346 110.584 109.444 110.684C109.543 110.784 109.676 110.841 109.816 110.841H114.319C114.34 110.845 114.362 110.848 114.383 110.85H144.479C144.501 110.848 144.522 110.845 144.543 110.841H149.047C149.186 110.841 149.319 110.784 149.418 110.684C149.516 110.584 149.572 110.448 149.572 110.306C149.572 110.164 149.516 110.028 149.418 109.928C149.319 109.828 149.186 109.771 149.047 109.771ZM123.744 98.3035H135.118L143.432 109.771H115.43L123.744 98.3035Z" fill="#2B2B2B"/>
</g>
<g clip-path="url(#clip7_5943_13156)">
<path d="M63.0386 115.387L90.1422 133.52L90.6741 133.868C94.4489 136.39 99.5153 135.316 101.99 131.47C103.133 129.693 103.567 127.538 103.202 125.446L97.6719 94.038C97.0765 90.6531 93.9011 88.401 90.5794 89.0078C87.6092 89.5504 85.4724 92.2215 85.5493 95.2957L86.3617 127.198L99.4057 119.127L72.3023 100.994C68.4024 98.3877 63.1668 99.4962 60.6087 103.471C58.0507 107.445 59.1386 112.78 63.0386 115.387Z" fill="url(#paint0_linear_5943_13156)"/>
<path d="M72.5054 121.037L123.479 117.647C125.662 117.642 127.806 118.242 129.681 119.382L176.968 148.164L168.532 162.523L167.688 162.252L166.86 161.965L165.189 161.392C164.08 160.995 162.986 160.581 161.877 160.184C160.784 159.785 159.69 159.356 158.596 158.942C157.503 158.528 156.425 158.098 155.331 157.668C151.004 155.949 146.708 154.134 142.459 152.271C140.35 151.332 138.21 150.393 136.117 149.422L132.961 147.973L129.82 146.493C127.727 145.522 125.649 144.487 123.571 143.484L122.009 142.72L121.113 142.268L119.619 142.354L115.761 142.561C114.48 142.626 113.183 142.689 111.902 142.737L108.043 142.896C106.763 142.943 105.466 142.975 104.185 143.023C102.904 143.055 101.607 143.119 100.326 143.134L96.4678 143.214C95.1869 143.246 93.8903 143.246 92.6093 143.262C87.454 143.31 82.3144 143.278 77.1595 143.134L73.3008 143.007C72.0199 142.942 70.7233 142.912 69.4423 142.832L67.5052 142.721L65.5682 142.593L63.631 142.45L62.6625 142.37L61.694 142.275L72.5054 121.037Z" fill="url(#paint1_linear_5943_13156)"/>
<path d="M102.439 123.05C108.837 122.808 114.315 127.678 114.95 134.17L115.747 142.561C114.47 142.624 113.179 142.688 111.903 142.735L108.044 142.894C106.763 142.942 105.466 142.974 104.185 143.022C102.904 143.054 101.608 143.117 100.327 143.133L96.4682 143.213C95.1873 143.245 93.8907 143.245 92.6097 143.26C87.4544 143.308 82.3148 143.276 77.1599 143.133L73.3012 143.006C72.0203 142.941 70.7237 142.91 69.4427 142.831L67.5056 142.719L65.5686 142.592L63.6314 142.449L62.6629 142.369L61.6944 142.274L69.5472 126.849L73.0508 125.536L102.439 123.05Z" fill="#2B2B2B"/>
<path d="M73.1303 124.571C72.7312 123.442 72.52 122.253 72.5054 121.053C72.4585 119.031 77.208 115.847 76.9576 109.718C76.7545 105.006 71.6305 98.161 63.57 98.4477L57.088 98.8932C50.0114 99.1479 44.5282 105.579 44.3407 110.593H44.3093C44.3093 110.736 44.325 110.88 44.325 111.007V111.134H44.3407C46.5952 118.727 49.0107 119.431 48.6209 124.936L73.1303 124.571Z" fill="url(#paint2_linear_5943_13156)"/>
<path d="M48.5887 124.937L72.4742 121.053L101.78 124.396C108.104 125.417 112.557 131.274 111.95 137.768L106.373 195.682L90.0485 194.042L89.9392 193.119L89.8455 192.195L89.6424 190.349C89.5331 189.107 89.4081 187.881 89.3143 186.655C89.1113 184.188 88.9393 181.736 88.7832 179.285C88.4708 174.382 88.2676 169.494 88.1265 164.607C88.063 162.172 87.9859 159.72 87.9702 157.285L87.9234 153.623L87.9077 149.962C87.9028 149.213 87.9035 148.464 87.9056 147.715L87.5953 147.685C86.7361 147.606 85.8612 147.494 84.9866 147.399C84.1119 147.303 83.2526 147.208 82.3777 147.096L79.7688 146.762C78.8939 146.651 78.0348 146.523 77.1601 146.395C75.3011 146.109 67.9902 144.771 61.5851 143.593C59.3126 143.169 57.1473 142.282 55.2184 140.986C53.2895 139.69 51.6365 138.012 50.3581 136.051C48.8743 133.775 48.1971 131.05 48.3718 128.323L48.5887 124.937Z" fill="url(#paint3_linear_5943_13156)"/>
<path d="M67.3034 93.0036L61.3828 93.2106C58.3322 93.328 55.7659 90.9032 55.6507 87.7946L55.6496 87.7663L55.3372 78.6765C55.1614 73.6861 58.9889 69.4953 63.886 69.3164L63.8979 69.3159C68.7949 69.1368 72.9072 73.037 73.083 78.0271L73.0834 78.0397L73.3645 86.3813C73.4908 89.9098 70.7861 92.8743 67.3236 93.0029L67.3034 93.0036Z" fill="#FDC068"/>
<path d="M72.3803 80.6503C72.3816 80.8898 72.4651 81.1212 72.6163 81.3044C72.7676 81.4876 72.9771 81.611 73.2084 81.6532L73.1459 79.6634C72.6989 79.7746 72.3833 80.1815 72.3803 80.6503ZM66.1161 102.237L69.5689 99.6578C69.5689 99.6578 66.7728 98.4002 64.6638 98.449L66.1161 102.237Z" fill="#2B2B2B"/>
<path d="M63.0073 103.478L55.306 100.899L55.509 83.675L64.9445 83.3406L66.4286 100.693C66.5696 102.155 65.5205 103.457 64.0853 103.601C63.7215 103.638 63.3542 103.596 63.0073 103.478Z" fill="#FDC068"/>
<path d="M73.7238 82.8155C75.4579 82.8155 76.8013 81.8603 76.8013 80.6504C76.8013 79.4405 75.4422 78.4855 73.7238 78.4855C71.99 78.4855 70.6464 79.4405 70.6464 80.6504C70.6464 81.8603 71.9908 82.8155 73.7238 82.8155ZM73.7238 79.0595C75.0829 79.0595 76.2391 79.7919 76.2391 80.6515C76.2391 81.511 75.0829 82.2435 73.7238 82.2435C72.3647 82.2435 71.2088 81.511 71.2088 80.6515C71.2088 79.7919 72.3649 79.0584 73.7238 79.0584V79.0595ZM67.3503 82.8155C69.0843 82.8155 70.4277 81.8603 70.4277 80.6504C70.4277 79.4405 69.0676 78.4855 67.3503 78.4855C65.6162 78.4855 64.2728 79.4405 64.2728 80.6504C64.2728 81.8603 65.6162 82.8155 67.3503 82.8155ZM67.3503 79.0595C68.7094 79.0595 69.8653 79.7919 69.8653 80.6515C69.8653 81.511 68.7094 82.2435 67.3503 82.2435C65.9912 82.2435 64.8352 81.511 64.8352 80.6515C64.8352 79.7919 65.9912 79.0584 67.3503 79.0584V79.0595Z" fill="#2B2B2B"/>
<path d="M70.5995 80.5389L71.9128 82.0193C71.9762 82.0885 72.0247 82.1704 72.0553 82.2598C72.0859 82.3491 72.0979 82.444 72.0906 82.5383C72.0832 82.6327 72.0567 82.7244 72.0126 82.8077C71.9685 82.891 71.9079 82.9641 71.8347 83.0222L71.0376 83.547L70.5995 80.5389Z" fill="#FDC068"/>
<path d="M71.0376 83.8341C71.0931 83.8332 71.1472 83.8167 71.194 83.7864L72.0055 83.2448C72.1106 83.1641 72.1972 83.0611 72.2594 82.9429C72.3216 82.8247 72.3578 82.6942 72.3656 82.5603C72.3758 82.4249 72.359 82.2887 72.316 82.1601C72.273 82.0315 72.2049 81.9131 72.1156 81.8121L70.8033 80.3315C70.7777 80.3033 70.7468 80.2804 70.7125 80.2643C70.6781 80.2482 70.641 80.2392 70.6032 80.2377C70.5655 80.2362 70.5278 80.2423 70.4923 80.2557C70.4569 80.269 70.4244 80.2894 70.3966 80.3156C70.3689 80.3417 70.3465 80.3732 70.3307 80.4082C70.3149 80.4432 70.306 80.481 70.3046 80.5195C70.3031 80.558 70.3091 80.5964 70.3222 80.6325C70.3353 80.6686 70.3553 80.7018 70.381 80.73L71.693 82.2104C71.7674 82.2924 71.8068 82.4011 71.8026 82.5126C71.7845 82.6156 71.7354 82.7101 71.6619 82.7833L70.8809 83.2928C70.8486 83.3123 70.8207 83.3385 70.799 83.3698C70.7773 83.401 70.7623 83.4365 70.7549 83.4741C70.7475 83.5116 70.748 83.5503 70.7562 83.5876C70.7645 83.6249 70.7803 83.6601 70.8027 83.6908C70.8247 83.7348 70.8584 83.7716 70.8999 83.7969C70.9415 83.8223 70.9892 83.8352 71.0376 83.8341ZM70.8495 87.8777C70.949 87.875 71.0482 87.8643 71.1461 87.8458C71.4011 87.7817 71.6407 87.6653 71.8502 87.5039C72.0597 87.3424 72.2348 87.1392 72.3647 86.9065C72.3822 86.8721 72.3929 86.8346 72.3961 86.796C72.3993 86.7574 72.395 86.7185 72.3835 86.6816C72.3719 86.6447 72.3534 86.6105 72.3289 86.5809C72.3044 86.5513 72.2744 86.5269 72.2406 86.5091L72.2398 86.5087C72.1729 86.4735 72.0954 86.4654 72.023 86.4861C71.9505 86.5067 71.8884 86.5546 71.8491 86.6201C71.761 86.7798 71.6423 86.9198 71.5 87.032C71.3578 87.1441 71.1949 87.226 71.0211 87.2729C70.6462 87.3523 70.209 87.1772 69.7402 86.7792C69.682 86.7297 69.6071 86.7056 69.5316 86.712C69.4561 86.7184 69.3861 86.7549 69.3369 86.8135C69.2876 86.8721 69.2629 86.9482 69.2682 87.0252C69.2735 87.1022 69.3084 87.1739 69.3652 87.2249C69.881 87.6547 70.381 87.8777 70.8495 87.8777ZM65.7881 93.0673L61.9296 93.1947L66.1162 96.9358L65.7881 93.0673Z" fill="#2B2B2B"/>
<path d="M67.6159 81.9079C67.0637 81.9079 66.616 81.4518 66.616 80.8891C66.616 80.3263 67.0637 79.8702 67.6159 79.8702C68.1681 79.8702 68.6157 80.3263 68.6157 80.8891C68.6157 81.4518 68.1681 81.9079 67.6159 81.9079Z" fill="#2B2B2B"/>
<path d="M70.1466 80.4116H70.8338C70.8714 80.4126 70.9088 80.406 70.9438 80.3921C70.9788 80.3781 71.0107 80.3572 71.0377 80.3305C71.0646 80.3038 71.086 80.2718 71.1006 80.2365C71.1153 80.2013 71.1228 80.1633 71.1228 80.125C71.1228 80.0867 71.1153 80.0488 71.1006 80.0135C71.086 79.9782 71.0646 79.9463 71.0377 79.9196C71.0107 79.8928 70.9788 79.8719 70.9438 79.858C70.9088 79.844 70.8714 79.8374 70.8338 79.8385H70.1466C70.109 79.8374 70.0716 79.844 70.0366 79.858C70.0016 79.8719 69.9697 79.8928 69.9427 79.9196C69.9158 79.9463 69.8944 79.9782 69.8797 80.0135C69.8651 80.0488 69.8576 80.0867 69.8576 80.125C69.8576 80.1633 69.8651 80.2013 69.8797 80.2365C69.8944 80.2718 69.9158 80.3038 69.9427 80.3305C69.9697 80.3572 70.0016 80.3781 70.0366 80.3921C70.0716 80.406 70.109 80.4126 70.1466 80.4116ZM60.1643 80.1579H64.6634C64.7366 80.1559 64.8062 80.1248 64.8573 80.0713C64.9084 80.0178 64.937 79.9461 64.937 79.8714C64.937 79.7967 64.9084 79.725 64.8573 79.6715C64.8062 79.618 64.7366 79.5869 64.6634 79.5848H60.1643C60.1267 79.5838 60.0894 79.5904 60.0543 79.6043C60.0193 79.6183 59.9874 79.6392 59.9604 79.6659C59.9335 79.6926 59.9121 79.7246 59.8975 79.7599C59.8828 79.7952 59.8753 79.8331 59.8753 79.8714C59.8753 79.9097 59.8828 79.9476 59.8975 79.9829C59.9121 80.0182 59.9335 80.0501 59.9604 80.0769C59.9874 80.1036 60.0193 80.1245 60.0543 80.1384C60.0894 80.1524 60.1267 80.159 60.1643 80.1579ZM185.688 138.278L174.831 162.602C174.26 163.875 172.799 164.454 171.534 163.908L168.488 162.586L175.502 147.288L183.531 136.941C184.454 135.731 186.313 136.877 185.688 138.278ZM118.674 198.149L92.4457 198.101C91.075 198.102 89.9561 196.984 89.9307 195.587L89.8525 192.212L106.427 192.419L118.987 195.602C120.455 195.953 120.191 198.149 118.674 198.149Z" fill="#2B2B2B"/>
<g clip-path="url(#clip8_5943_13156)">
</g>
<path d="M62.0545 69.3H65.9287C69.7584 69.3024 72.8623 72.4654 72.8646 76.368L70.132 72.3564L67.7888 75.413C67.5647 75.7112 67.2761 75.9526 66.9454 76.1182C66.6146 76.2839 66.2508 76.3694 65.8823 76.368C64.5493 76.3633 63.4651 77.4607 63.4605 78.8192V82.8472H61.3358V82.1946C61.336 82.0865 61.3021 81.9812 61.2393 81.8941C61.1764 81.807 61.0878 81.7427 60.9865 81.7106C60.8851 81.6786 60.7764 81.6804 60.6762 81.7159C60.5759 81.7515 60.4895 81.8188 60.4296 81.908L55.4304 89.5174L55.1023 78.1198V76.368C55.112 72.4622 58.2217 69.3009 62.0545 69.3Z" fill="#9F70A7"/>
<path d="M58.149 84.9804C56.3113 84.9804 54.8216 83.4623 54.8216 81.5896C54.8216 79.7169 56.3113 78.1988 58.149 78.1988C59.9867 78.1988 61.4764 79.7169 61.4764 81.5896C61.4764 83.4623 59.9867 84.9804 58.149 84.9804Z" fill="#FDC068"/>
<path d="M83.5031 120.05L68.8657 124.523L59.7583 105.117C57.7474 100.817 52.6971 98.9934 48.4781 101.043C44.2591 103.092 42.4691 108.238 44.48 112.538L56.6649 138.564L56.9615 139.201C58.8042 143.135 63.4269 144.803 67.2882 142.926L67.4131 142.862L88.2523 132.259L83.5031 120.05Z" fill="url(#paint4_linear_5943_13156)"/>
<path d="M88.2676 132.26L92.0638 130.334C95.0836 128.795 96.3078 125.053 94.7977 121.976C93.4697 119.269 90.4253 117.927 87.5802 118.793L83.5031 120.034L88.2676 132.26ZM97.9624 95.6697L97.0825 91.5899C96.3792 88.3418 93.2253 86.2898 90.0379 87.0065C87.2311 87.6374 85.2768 90.2349 85.4072 93.1607L85.5911 97.3485L97.9624 95.6697Z" fill="#FDC068"/>
<path d="M76.5201 121.34H76.5514C76.5883 121.336 76.6239 121.324 76.6564 121.306C76.6889 121.288 76.7176 121.264 76.7408 121.234C76.764 121.205 76.7813 121.171 76.7917 121.135C76.8021 121.099 76.8054 121.061 76.8014 121.023L76.8012 121.022C76.6451 119.366 76.8169 118.236 78.1916 116.676C78.2434 116.619 78.2709 116.543 78.268 116.465C78.2651 116.388 78.232 116.314 78.1761 116.262C78.1201 116.209 78.0459 116.181 77.9697 116.184C77.8936 116.187 77.8217 116.22 77.7699 116.277C76.2545 117.981 76.0515 119.286 76.2235 121.07C76.2348 121.143 76.2705 121.209 76.3245 121.259C76.3786 121.308 76.4477 121.337 76.5201 121.34ZM67.7719 122.231C67.8154 122.23 67.8581 122.219 67.8969 122.199C67.9652 122.164 68.0168 122.102 68.0404 122.028C68.064 121.953 68.0576 121.873 68.0228 121.803L68.0219 121.801L66.2254 118.108C66.2096 118.072 66.1868 118.039 66.1584 118.012C66.13 117.985 66.0965 117.964 66.06 117.951C66.0234 117.937 65.9845 117.931 65.9457 117.933C65.9068 117.935 65.8687 117.945 65.8337 117.962C65.7987 117.979 65.7674 118.004 65.7418 118.033C65.7162 118.063 65.6967 118.098 65.6845 118.136C65.6723 118.173 65.6677 118.213 65.6709 118.253C65.6741 118.292 65.6851 118.331 65.7032 118.366L65.7098 118.379L67.5061 122.072C67.5313 122.121 67.5696 122.162 67.6166 122.191C67.6636 122.219 67.7174 122.233 67.7719 122.231Z" fill="#2B2B2B"/>
</g>
<defs>
<linearGradient id="paint0_linear_5943_13156" x1="81.2761" y1="144.481" x2="81.2761" y2="87.0143" gradientUnits="userSpaceOnUse">
<stop stop-color="#F89D9A"/>
<stop offset="0.263" stop-color="#F5943B"/>
<stop offset="0.499" stop-color="#F05052"/>
<stop offset="0.758" stop-color="#ECE674"/>
<stop offset="1" stop-color="#E1EEC3"/>
</linearGradient>
<linearGradient id="paint1_linear_5943_13156" x1="119.331" y1="117.406" x2="119.331" y2="182.402" gradientUnits="userSpaceOnUse">
<stop stop-color="#9774AC"/>
<stop offset="0.401" stop-color="#47A6D3"/>
<stop offset="0.501" stop-color="#A7A7AE"/>
<stop offset="0.591" stop-color="#E89AC0"/>
<stop offset="1" stop-color="#BFE7D1"/>
</linearGradient>
<linearGradient id="paint2_linear_5943_13156" x1="60.6382" y1="144.481" x2="60.6382" y2="87.0142" gradientUnits="userSpaceOnUse">
<stop stop-color="#F89D9A"/>
<stop offset="0.263" stop-color="#F5943B"/>
<stop offset="0.499" stop-color="#F05052"/>
<stop offset="0.758" stop-color="#ECE674"/>
<stop offset="1" stop-color="#E1EEC3"/>
</linearGradient>
<linearGradient id="paint3_linear_5943_13156" x1="80.1751" y1="121.154" x2="80.1751" y2="190.736" gradientUnits="userSpaceOnUse">
<stop stop-color="#9774AC"/>
<stop offset="0.401" stop-color="#47A6D3"/>
<stop offset="0.501" stop-color="#A7A7AE"/>
<stop offset="0.591" stop-color="#E89AC0"/>
<stop offset="1" stop-color="#BFE7D1"/>
</linearGradient>
<linearGradient id="paint4_linear_5943_13156" x1="65.9534" y1="144.481" x2="65.9534" y2="87.0142" gradientUnits="userSpaceOnUse">
<stop stop-color="#F89D9A"/>
<stop offset="0.263" stop-color="#F5943B"/>
<stop offset="0.499" stop-color="#F05052"/>
<stop offset="0.758" stop-color="#ECE674"/>
<stop offset="1" stop-color="#E1EEC3"/>
</linearGradient>
<clipPath id="clip0_5943_13156">
<rect width="222.135" height="185.85" fill="white" transform="translate(7.07996 12.6)"/>
</clipPath>
<clipPath id="clip1_5943_13156">
<rect width="64.1625" height="102.75" fill="white" transform="matrix(-1 0 0 1 101.775 94.5)"/>
</clipPath>
<clipPath id="clip2_5943_13156">
<rect width="99.5625" height="86.55" fill="white" transform="translate(83.9275 110.7)"/>
</clipPath>
<clipPath id="clip3_5943_13156">
<rect width="30.68" height="42.45" fill="white" transform="translate(88.3525 16.8)"/>
</clipPath>
<clipPath id="clip4_5943_13156">
<rect width="50.15" height="20.85" fill="white" transform="translate(164.02 68.55)"/>
</clipPath>
<clipPath id="clip5_5943_13156">
<rect width="28.7625" height="40.35" fill="white" transform="translate(139.535 16.8)"/>
</clipPath>
<clipPath id="clip6_5943_13156">
<rect width="70.9475" height="54.15" fill="white" transform="translate(93.9575 56.7)"/>
</clipPath>
<clipPath id="clip7_5943_13156">
<rect width="142.338" height="128.85" fill="white" transform="matrix(-1 0 0 1 185.998 69.3)"/>
</clipPath>
<clipPath id="clip8_5943_13156">
<rect width="1042.04" height="709.089" fill="white" transform="translate(-856.226 79.5847)"/>
</clipPath>
</defs>
</svg>
