<svg width="40" height="40" viewBox="0 0 40 40" fill="none" xmlns="http://www.w3.org/2000/svg">
<circle cx="20" cy="20" r="20" fill="#D4DCFF"/>
<g clip-path="url(#clip0_6045_4836)">
<g opacity="0.3">
<path d="M12.7307 8.60364H12.8166V32.2387H12.7307V8.60364ZM16.3236 8.60364H16.4095V32.2387H16.3236V8.60364Z" fill="#C4ECFE"/>
<path d="M12.7307 8.60364H12.8165V32.2387H12.7307V8.60364ZM9.1377 8.60364H9.22354V32.2387H9.1377V8.60364ZM19.9165 8.60364H20.0024V32.2387H19.9165V8.60364ZM23.5095 8.60364H23.5953V32.2387H23.5095V8.60364ZM27.058 8.60364H27.1439V32.2387H27.058V8.60364ZM30.6066 8.60364H30.6925V32.2387H30.6066V8.60364Z" fill="#C4ECFE"/>
</g>
<path d="M18.0376 10.8164C18.1386 10.8164 18.2204 10.7331 18.2204 10.6303C18.2204 10.5275 18.1386 10.4442 18.0376 10.4442C17.9366 10.4442 17.8547 10.5275 17.8547 10.6303C17.8547 10.7331 17.9366 10.8164 18.0376 10.8164Z" fill="#BFD9FF"/>
<path d="M11.1972 15.4474C11.2982 15.4474 11.3801 15.364 11.3801 15.2612C11.3801 15.1585 11.2982 15.0751 11.1972 15.0751C11.0963 15.0751 11.0144 15.1585 11.0144 15.2612C11.0144 15.364 11.0963 15.4474 11.1972 15.4474Z" fill="#BFD9FF"/>
<path d="M7.56444 12.6988C7.66542 12.6988 7.74728 12.6155 7.74728 12.5127C7.74728 12.4099 7.66542 12.3266 7.56444 12.3266C7.46345 12.3266 7.38159 12.4099 7.38159 12.5127C7.38159 12.6155 7.46345 12.6988 7.56444 12.6988Z" fill="#BFD9FF"/>
<path d="M32.8481 15.5605C32.9491 15.5605 33.031 15.4772 33.031 15.3744C33.031 15.2716 32.9491 15.1883 32.8481 15.1883C32.7471 15.1883 32.6653 15.2716 32.6653 15.3744C32.6653 15.4772 32.7471 15.5605 32.8481 15.5605Z" fill="#BFD9FF"/>
<path d="M6.40283 32.0976H33.5732V32.2427H6.40283V32.0976Z" fill="#2B2B2B"/>
</g>
<g clip-path="url(#clip1_6045_4836)">
<path d="M11.9936 31.9924H15.2673L14.0455 31.4897H13.2155L11.9936 31.9924Z" fill="white"/>
<path d="M11.9938 32.1046H15.2675C15.293 32.1048 15.3177 32.096 15.3374 32.0796C15.3571 32.0632 15.3705 32.0403 15.3754 32.0148C15.3799 31.9894 15.3759 31.9631 15.3639 31.9403C15.3519 31.9174 15.3327 31.8994 15.3093 31.8892L14.0875 31.3865C14.0741 31.3812 14.06 31.3781 14.0456 31.3775H13.2157C13.2012 31.3772 13.1869 31.3803 13.1738 31.3865L11.952 31.8892C11.9284 31.899 11.9089 31.9168 11.8968 31.9397C11.8848 31.9626 11.8809 31.989 11.8858 32.0144C11.8907 32.0399 11.9042 32.0628 11.9239 32.0793C11.9436 32.0957 11.9683 32.1047 11.9938 32.1046ZM14.7017 31.8803H12.5618L13.2377 31.6018H14.0259L14.7017 31.8803Z" fill="#F9D5FF"/>
<path d="M13.8848 28.7298H13.3784V31.4538H13.8848V28.7298Z" fill="white"/>
<path d="M13.3785 31.566H13.8848C13.8993 31.5662 13.9137 31.5634 13.9271 31.5578C13.9405 31.5522 13.9527 31.5439 13.9629 31.5335C13.9732 31.523 13.9813 31.5106 13.9868 31.4969C13.9922 31.4833 13.995 31.4686 13.9949 31.4539V28.7298C13.995 28.715 13.9922 28.7004 13.9868 28.6867C13.9813 28.673 13.9732 28.6606 13.9629 28.6502C13.9527 28.6397 13.9405 28.6315 13.9271 28.6259C13.9137 28.6203 13.8993 28.6175 13.8848 28.6176H13.3785C13.364 28.6175 13.3496 28.6203 13.3362 28.6259C13.3228 28.6315 13.3106 28.6397 13.3003 28.6502C13.2901 28.6606 13.282 28.673 13.2765 28.6867C13.271 28.7004 13.2683 28.715 13.2684 28.7298V31.4539C13.2683 31.4686 13.271 31.4833 13.2765 31.497C13.282 31.5106 13.2901 31.523 13.3003 31.5335C13.3106 31.5439 13.3228 31.5522 13.3362 31.5578C13.3496 31.5634 13.364 31.5662 13.3785 31.566ZM13.7747 31.3417H13.4885V28.8419H13.7747V31.3417Z" fill="#F9D5FF"/>
<path d="M13.9949 28.7792H13.2684V29.2504H13.9949V28.7792Z" fill="#2B2B2B"/>
<path d="M14.0764 25.8352H13.187V29.1113H14.0764V25.8352Z" fill="#F9D5FF"/>
<path d="M14.0764 26.6991H13.187V27.0918H14.0764V26.6991Z" fill="#2B2B2B"/>
<path d="M14.9065 26.4635H12.3549V26.9347H14.9065V26.4635Z" fill="#F9D5FF"/>
<path d="M17.3467 25.3303L17.241 23.4073C17.2256 23.1266 17.1051 22.8626 16.9044 22.6698C16.7037 22.4769 16.4381 22.3698 16.1623 22.3705L14.5749 22.3773L14.7489 25.557C14.7541 25.6604 14.7982 25.7577 14.872 25.8287C14.9458 25.8997 15.0436 25.9391 15.1451 25.9385H16.7963C16.8409 25.9383 16.8853 25.9323 16.9284 25.9206C17.1904 25.8576 17.3621 25.604 17.3467 25.3303Z" fill="white"/>
<path d="M15.1451 26.0506H16.7963C16.8497 26.0505 16.903 26.0437 16.9548 26.0304C17.2652 25.9563 17.4744 25.6601 17.4567 25.3258L17.351 23.4028C17.3338 23.0936 17.2009 22.8029 16.9798 22.5904C16.7587 22.378 16.4661 22.26 16.1622 22.2607L14.4582 22.2674L14.6387 25.5659C14.6463 25.6974 14.703 25.8209 14.7972 25.911C14.8914 26.0012 15.0159 26.0511 15.1451 26.0506ZM16.1666 22.4828C16.4136 22.4833 16.6511 22.58 16.8303 22.7531C17.0096 22.9262 17.1171 23.1627 17.1309 23.414L17.2366 25.337C17.2449 25.4436 17.2159 25.5497 17.1546 25.6364C17.0933 25.7231 17.0037 25.7848 16.9019 25.8105H16.8997C16.8659 25.8192 16.8312 25.8237 16.7963 25.8239H15.1451C15.0719 25.8238 15.0015 25.7952 14.9483 25.7439C14.8951 25.6926 14.8631 25.6226 14.8589 25.5481L14.6916 22.4852L16.1622 22.4785C16.1644 22.4828 16.1644 22.4828 16.1666 22.4828Z" fill="#F9D5FF"/>
<path d="M10.9744 25.4179H15.3489C15.7738 25.4179 16.0952 25.0116 16.0666 24.5114L15.809 20.0461C15.7804 19.5457 15.4127 19.1395 14.9856 19.1395H10.6111C10.1862 19.1395 9.86479 19.5457 9.8934 20.0459L10.151 24.5112C10.1796 25.0117 10.5495 25.4179 10.9744 25.4179Z" fill="white"/>
<path d="M10.9743 25.53H15.3488C15.4561 25.5301 15.5622 25.5073 15.6604 25.4633C15.7585 25.4193 15.8466 25.3549 15.9191 25.2742C16.0996 25.079 16.1942 24.7985 16.1766 24.5046L15.9191 20.0392C15.886 19.4805 15.4677 19.0273 14.9856 19.0273H10.6111C10.5038 19.0273 10.3977 19.05 10.2995 19.094C10.2014 19.1381 10.1133 19.2024 10.0409 19.2831C9.86035 19.4783 9.76567 19.7588 9.78328 20.0527L10.0409 24.5181C10.0739 25.0768 10.4922 25.53 10.9743 25.53ZM14.9856 19.2516C15.3532 19.2516 15.6747 19.6106 15.6989 20.0527L15.9565 24.518C15.9697 24.7515 15.897 24.9713 15.7583 25.1216C15.7062 25.1794 15.6429 25.2255 15.5724 25.2572C15.502 25.2889 15.4258 25.3053 15.3488 25.3056H10.9743C10.6067 25.3056 10.2853 24.9466 10.261 24.5046L10.0034 20.0392C9.99023 19.8058 10.0629 19.586 10.2016 19.4356C10.2537 19.3779 10.317 19.3317 10.3875 19.3001C10.4579 19.2684 10.5341 19.2519 10.6111 19.2516H14.9856Z" fill="#F9D5FF"/>
<path d="M12.7993 25.3303L12.6937 23.4073C12.6782 23.1266 12.5578 22.8626 12.3571 22.6698C12.1564 22.4769 11.8908 22.3698 11.6149 22.3705L10.0276 22.3773L10.1619 24.8523C10.1778 25.1459 10.3036 25.4221 10.5133 25.6241C10.723 25.8261 11.0006 25.9385 11.2891 25.9383H12.249C12.2936 25.9381 12.338 25.9321 12.3811 25.9203C12.6408 25.8576 12.8148 25.604 12.7993 25.3303Z" fill="white"/>
<path d="M11.2893 26.0506H12.2492C12.3026 26.0505 12.3558 26.0437 12.4077 26.0304C12.559 25.9914 12.6922 25.8996 12.7839 25.7708C12.8757 25.6421 12.9202 25.4846 12.9096 25.3258L12.804 23.4028C12.7869 23.0943 12.6547 22.8041 12.4345 22.5917C12.2143 22.3794 11.9227 22.2609 11.6195 22.2607H11.6151L9.91109 22.2674L10.052 24.8613C10.0702 25.1831 10.2086 25.4855 10.4386 25.7067C10.6687 25.9278 10.973 26.0508 11.2893 26.0506ZM11.6194 22.4828C11.8664 22.4833 12.1039 22.5799 12.2832 22.7531C12.4625 22.9262 12.57 23.1627 12.5838 23.414L12.6895 25.337C12.7027 25.5592 12.5574 25.7634 12.3548 25.8105H12.3526C12.3188 25.8192 12.2841 25.8237 12.2492 25.8239H11.2893C11.0288 25.8243 10.7781 25.7228 10.5888 25.5404C10.3996 25.3579 10.2862 25.1085 10.2721 24.8434L10.1444 22.4873L11.615 22.4806C11.6172 22.4828 11.6172 22.4828 11.6195 22.4828H11.6194Z" fill="#F9D5FF"/>
<path d="M14.5607 25.4406H10.5365C10.4703 25.4405 10.4047 25.4537 10.3435 25.4795C10.2824 25.5053 10.2268 25.5432 10.18 25.5909C10.1332 25.6386 10.096 25.6952 10.0707 25.7576C10.0454 25.8199 10.0324 25.8867 10.0325 25.9542C10.0324 26.0217 10.0454 26.0885 10.0707 26.1509C10.096 26.2133 10.1331 26.2699 10.18 26.3176C10.2268 26.3654 10.2824 26.4032 10.3436 26.429C10.4047 26.4548 10.4703 26.468 10.5365 26.468H14.5608L14.5607 25.4406Z" fill="white"/>
<path d="M10.5365 25.297H14.5608V25.584H10.5365C10.4886 25.5836 10.441 25.5928 10.3965 25.6112C10.3521 25.6297 10.3116 25.6569 10.2775 25.6913C10.2435 25.7257 10.2164 25.7667 10.1979 25.8118C10.1795 25.857 10.17 25.9054 10.17 25.9543C10.17 26.0032 10.1795 26.0516 10.1979 26.0967C10.2164 26.1419 10.2435 26.1829 10.2775 26.2173C10.3116 26.2517 10.3521 26.2789 10.3965 26.2973C10.441 26.3157 10.4886 26.325 10.5365 26.3245H14.5608V26.6115H10.5365C10.4515 26.6121 10.3672 26.5956 10.2884 26.5628C10.2097 26.53 10.1381 26.4817 10.0777 26.4206C10.0174 26.3595 9.96947 26.2869 9.93679 26.2068C9.9041 26.1268 9.88728 26.041 9.88728 25.9543C9.88728 25.8676 9.9041 25.7818 9.93679 25.7017C9.96947 25.6217 10.0174 25.549 10.0777 25.4879C10.1381 25.4268 10.2097 25.3785 10.2884 25.3458C10.3672 25.313 10.4515 25.2964 10.5365 25.297Z" fill="#F9D5FF"/>
<path d="M13.2684 26.468H17.2926C17.3588 26.4681 17.4244 26.4549 17.4856 26.4291C17.5468 26.4033 17.6024 26.3654 17.6492 26.3177C17.696 26.2699 17.7331 26.2133 17.7584 26.1509C17.7837 26.0885 17.7967 26.0217 17.7966 25.9542C17.7967 25.8867 17.7837 25.8199 17.7584 25.7575C17.7331 25.6951 17.696 25.6385 17.6491 25.5908C17.6023 25.543 17.5467 25.5052 17.4855 25.4794C17.4244 25.4536 17.3588 25.4404 17.2926 25.4404H13.2683L13.2684 26.468Z" fill="white"/>
<path d="M17.9375 25.9542C17.937 26.1284 17.869 26.2953 17.7481 26.4184C17.6273 26.5416 17.4635 26.611 17.2926 26.6115H13.2684V26.3245H17.2926C17.3884 26.3236 17.4799 26.2842 17.5474 26.2148C17.6148 26.1455 17.6526 26.0518 17.6526 25.9542C17.6526 25.8566 17.6148 25.7629 17.5474 25.6936C17.4799 25.6242 17.3884 25.5848 17.2926 25.584H13.2684V25.2969H17.2926C17.3774 25.2967 17.4613 25.3135 17.5397 25.3464C17.618 25.3794 17.6892 25.4278 17.7492 25.4889C17.8091 25.5499 17.8566 25.6225 17.8889 25.7024C17.9212 25.7822 17.9377 25.8678 17.9375 25.9542Z" fill="#F9D5FF"/>
<path d="M10.5273 25.3157H12.2684C12.6194 25.3157 12.9041 25.6058 12.9041 25.9636C12.9041 26.3215 12.6194 26.6115 12.2684 26.6115H10.5273C10.1762 26.6115 9.89158 26.3215 9.89158 25.9636C9.89158 25.6058 10.1762 25.3157 10.5273 25.3157Z" fill="#F9D5FF"/>
</g>
<g clip-path="url(#clip2_6045_4836)">
<path d="M16.519 21.1367H27.3814V23.9739H16.519V21.1367Z" fill="#F9D5FF"/>
<path d="M15.6687 21.0891H28.325V21.288H15.6687V21.0891Z" fill="#96B5C8"/>
<path d="M27.2922 21.2102H27.4748V32.1046H27.2922V21.2102ZM16.519 21.2102H16.7016V32.1046H16.519V21.2102Z" fill="#96B5C8"/>
</g>
<g clip-path="url(#clip3_6045_4836)">
<path d="M19.1654 9.13812H17.1967C17.0695 9.1379 16.9435 9.16329 16.826 9.21283C16.7085 9.26237 16.6018 9.33509 16.512 9.42679C16.4222 9.51849 16.3512 9.62736 16.303 9.74712C16.2547 9.86689 16.2303 9.99518 16.231 10.1246V10.5817C16.231 10.7107 16.2559 10.8385 16.3045 10.9577C16.353 11.077 16.4241 11.1853 16.5138 11.2765C16.6035 11.3678 16.7099 11.4402 16.8271 11.4896C16.9442 11.5389 17.0698 11.5644 17.1966 11.5644H18.0676L18.2672 14.5409L18.5361 14.522L18.3377 11.5644H19.1654C19.2922 11.5644 19.4177 11.5389 19.5349 11.4896C19.6521 11.4402 19.7585 11.3678 19.8482 11.2765C19.9379 11.1853 20.009 11.077 20.0575 10.9577C20.106 10.8385 20.131 10.7107 20.131 10.5817V10.1208C20.131 9.99175 20.106 9.86396 20.0575 9.74474C20.009 9.62551 19.9379 9.51717 19.8482 9.42592C19.7585 9.33467 19.6521 9.26229 19.5349 9.21291C19.4178 9.16353 19.2922 9.13811 19.1654 9.13812Z" fill="#F9D5FF"/>
<path d="M17.8631 9.7971C17.7545 9.7971 17.6834 9.85803 17.6909 9.96468L17.6946 10.0523C17.6983 10.1818 17.6422 10.277 17.5262 10.3227C17.6422 10.3684 17.6984 10.4636 17.6946 10.5931L17.6909 10.6808C17.6872 10.7874 17.7545 10.8483 17.8631 10.8483H17.9006V11.0083H17.8631C17.6273 11.0083 17.5038 10.875 17.515 10.6579L17.5187 10.5703C17.5224 10.4636 17.4551 10.4027 17.3428 10.4027V10.2427C17.4551 10.2427 17.5224 10.1818 17.5187 10.0751L17.515 9.98756C17.5038 9.77426 17.6273 9.63715 17.8631 9.63715H17.9006V9.7971H17.8631ZM18.5031 10.8521C18.6116 10.8521 18.6827 10.7912 18.6753 10.6845L18.6716 10.5969C18.6679 10.4674 18.7239 10.3722 18.84 10.3265C18.7239 10.2808 18.6678 10.1856 18.6716 10.0561L18.6753 9.96846C18.679 9.86181 18.6116 9.80088 18.5031 9.80088H18.4657V9.64096H18.5031C18.7389 9.64096 18.8624 9.77426 18.8511 9.99137L18.8474 10.079C18.8437 10.1856 18.9111 10.2465 19.0233 10.2465V10.4066C18.9111 10.4066 18.8437 10.4676 18.8474 10.5742L18.8511 10.6618C18.8623 10.8751 18.7389 11.0122 18.5031 11.0122H18.4657V10.8521H18.5031Z" fill="#FFA300"/>
</g>
<g clip-path="url(#clip4_6045_4836)">
<path d="M31.1557 15.7245H28.9754C28.6914 15.7255 28.4192 15.8396 28.2188 16.0418C28.0183 16.2441 27.9058 16.518 27.906 16.8035V16.9451H25.8501V17.2451H27.906V17.3034C27.906 17.4445 27.9337 17.5843 27.9874 17.7147C28.0411 17.8451 28.1199 17.9636 28.2192 18.0634C28.3185 18.1632 28.4364 18.2424 28.5662 18.2964C28.6959 18.3504 28.835 18.3782 28.9754 18.3782H31.1557C31.2961 18.3782 31.4352 18.3504 31.5649 18.2964C31.6947 18.2424 31.8126 18.1632 31.9119 18.0634C32.0112 17.9636 32.09 17.8451 32.1437 17.7147C32.1974 17.5843 32.2251 17.4445 32.2251 17.3034V16.7993C32.2251 16.6582 32.1974 16.5184 32.1437 16.388C32.09 16.2576 32.0112 16.1391 31.9119 16.0393C31.8126 15.9395 31.6947 15.8604 31.5649 15.8064C31.4352 15.7523 31.2961 15.7245 31.1557 15.7245Z" fill="#F9D5FF"/>
<path d="M29.3775 17.4575H29.1786L28.8635 16.6701H29.05L29.2822 17.2783L29.5143 16.6701H29.6925L29.3775 17.4575ZM30.5837 17.4575H30.4096V17.3659C30.3807 17.4029 30.3435 17.4324 30.3009 17.452C30.2584 17.4715 30.2118 17.4806 30.1651 17.4784C29.9453 17.4784 29.7754 17.3076 29.7754 17.0659C29.7754 16.8243 29.9453 16.6536 30.1651 16.6536C30.2118 16.6513 30.2584 16.6604 30.3009 16.68C30.3435 16.6995 30.3807 16.729 30.4096 16.7661V16.6742H30.5796V17.4575H30.5837ZM29.9536 17.0659C29.9536 17.2034 30.0448 17.32 30.1899 17.32C30.3308 17.32 30.4262 17.2117 30.4262 17.0659C30.4262 16.9201 30.3308 16.8118 30.1899 16.8118C30.0407 16.816 29.9536 16.9243 29.9536 17.0659ZM31.3754 16.6742L31.3339 16.845C31.2934 16.827 31.2497 16.8171 31.2054 16.8159C31.0977 16.8159 31.0189 16.895 31.0189 17.0283V17.4575H30.849V16.6701H31.0189V16.7576C31.045 16.7219 31.0795 16.6934 31.1193 16.6745C31.1591 16.6556 31.2029 16.647 31.2469 16.6495C31.2906 16.6517 31.3339 16.66 31.3754 16.6742Z" fill="#FFA300"/>
</g>
<g clip-path="url(#clip5_6045_4836)">
<path d="M25.4885 9.13818H23.6428C23.4024 9.13898 23.172 9.23787 23.0023 9.41318C22.8326 9.58848 22.7374 9.82588 22.7375 10.0733V10.5066C22.7375 10.6289 22.761 10.75 22.8065 10.8631C22.8519 10.9761 22.9186 11.0788 23.0027 11.1653C23.0868 11.2518 23.1866 11.3204 23.2964 11.3672C23.4062 11.414 23.524 11.4381 23.6428 11.4381H24.1649L23.6473 14.2249L23.8954 14.2736L24.4221 11.4381H25.4885C25.6074 11.4381 25.7252 11.414 25.835 11.3672C25.9448 11.3204 26.0446 11.2518 26.1287 11.1653C26.2128 11.0788 26.2794 10.9761 26.3249 10.8631C26.3704 10.75 26.3938 10.6289 26.3938 10.5066V10.0697C26.3938 9.94737 26.3704 9.82624 26.3249 9.71322C26.2794 9.6002 26.2128 9.49751 26.1287 9.41101C26.0446 9.32451 25.9448 9.25589 25.835 9.20908C25.7252 9.16227 25.6074 9.13818 25.4885 9.13818Z" fill="#F9D5FF"/>
<path d="M24.064 10.2971C24.0646 10.3141 24.0634 10.331 24.0605 10.3477H23.6149C23.6184 10.3931 23.6392 10.4352 23.6727 10.4649C23.7061 10.4947 23.7497 10.5096 23.7938 10.5066C23.8572 10.5031 23.9183 10.4805 23.9693 10.4416L24.0359 10.5391C23.9665 10.5994 23.8775 10.6303 23.7868 10.6257C23.6079 10.6257 23.478 10.4957 23.478 10.3008C23.478 10.1058 23.6008 9.97582 23.7798 9.97582C23.9482 9.97221 24.064 10.1058 24.064 10.2971ZM23.6184 10.2466H23.9306C23.9167 10.1491 23.8604 10.0913 23.7797 10.0913C23.7383 10.09 23.6981 10.1056 23.6679 10.1347C23.6376 10.1638 23.6198 10.204 23.6183 10.2466H23.6184ZM24.3588 10.6113H24.2254V9.67615H24.3588V10.6113ZM24.9763 10.1455C24.9194 10.1129 24.8555 10.0955 24.7903 10.095C24.7202 10.095 24.6746 10.1238 24.6746 10.1672C24.6746 10.2105 24.7167 10.2213 24.7728 10.2322L24.836 10.2429C24.9693 10.2608 25.0465 10.3187 25.0465 10.427C25.0465 10.5462 24.9447 10.6292 24.7728 10.6292C24.6802 10.6319 24.5892 10.6041 24.5131 10.5498L24.5728 10.4487C24.6286 10.4936 24.6987 10.5155 24.7693 10.5101C24.857 10.5101 24.9061 10.4812 24.9061 10.4342C24.9061 10.4018 24.8746 10.3765 24.8009 10.3656L24.7377 10.3585C24.6044 10.3406 24.5307 10.2755 24.5307 10.1744C24.5307 10.0516 24.6254 9.97579 24.7798 9.97579C24.8649 9.97326 24.9489 9.99581 25.0219 10.0408L24.9763 10.1455ZM25.7483 10.2971C25.7489 10.3141 25.7477 10.331 25.7448 10.3477H25.2991C25.3027 10.3931 25.3234 10.4353 25.357 10.465C25.3905 10.4947 25.4341 10.5097 25.4782 10.5066C25.5416 10.5031 25.6027 10.4805 25.6537 10.4416L25.7203 10.5391C25.6509 10.5994 25.5619 10.6303 25.4712 10.6257C25.2923 10.6257 25.1624 10.4957 25.1624 10.3008C25.1624 10.1058 25.2852 9.97582 25.4607 9.97582C25.629 9.97221 25.7448 10.1058 25.7483 10.2971ZM25.2991 10.2466H25.6114C25.5975 10.1491 25.5412 10.0913 25.4606 10.0913C25.4192 10.09 25.379 10.1056 25.3487 10.1347C25.3185 10.1638 25.3007 10.204 25.2991 10.2466Z" fill="#5E41F4"/>
</g>
<g clip-path="url(#clip6_6045_4836)">
<path d="M16.9438 14.2164H25.9626V19.7885H16.9438V14.2164Z" fill="#2B2B2B"/>
<path d="M17.6384 14.9716H21.6794V15.1693H17.6384V14.9716Z" fill="#5E41F4"/>
<path d="M22.5542 14.9716H25.2679V15.1693H22.5542V14.9716Z" fill="#FFA300"/>
<path d="M17.6384 15.5428H19.7302V15.7405H17.6384V15.5428Z" fill="#FF288C"/>
<path d="M20.6052 15.5428H25.2681V15.7405H20.6052V15.5428Z" fill="#3ACDFF"/>
<path d="M17.6384 16.1168H21.6794V16.3145H17.6384V16.1168Z" fill="#5E41F4"/>
<path d="M22.1882 16.1168H25.2654V16.3145H22.1882V16.1168Z" fill="#FF75C2"/>
<path d="M17.6384 16.6907H21.6794V16.8885H17.6384V16.6907Z" fill="#FFA300"/>
<path d="M22.5543 16.6907H25.268V16.8885H22.5543V16.6907ZM17.6384 17.2619H21.6794V17.4597H17.6384V17.2619Z" fill="#FF288C"/>
<path d="M22.5542 17.262H25.2679V17.4597H22.5542V17.262Z" fill="#5E41F4"/>
<path d="M17.6384 17.8332H19.1218V18.0309H17.6384V17.8332Z" fill="#3ACDFF"/>
<path d="M19.9914 17.8332H25.2653V18.0309H19.9914V17.8332ZM17.6384 18.4072H20.7317V18.6049H17.6384V18.4072Z" fill="#5E41F4"/>
<path d="M21.604 18.4072H25.2653V18.6049H21.604V18.4072Z" fill="#FFA300"/>
<path d="M17.6384 18.9811H21.6794V19.1789H17.6384V18.9811Z" fill="#3ACDFF"/>
<path d="M22.5542 18.9811H25.2679V19.1789H22.5542V18.9811Z" fill="#FF288C"/>
<path d="M23.9468 20.9709H23.3989L22.2635 19.4029C22.2573 19.3943 22.2492 19.3873 22.2399 19.3825C22.2306 19.3778 22.2203 19.3752 22.2099 19.3752H20.6967C20.6863 19.3752 20.676 19.3777 20.6667 19.3825C20.6574 19.3873 20.6493 19.3943 20.6431 19.4029L19.5076 20.9709H18.9598C18.9421 20.9709 18.9251 20.9781 18.9126 20.9908C18.9001 21.0036 18.8931 21.0209 18.8931 21.039C18.8931 21.057 18.9001 21.0743 18.9126 21.0871C18.9251 21.0998 18.9421 21.107 18.9598 21.107H19.5323C19.535 21.1076 19.5377 21.108 19.5404 21.1082H23.3662C23.3689 21.108 23.3716 21.1076 23.3743 21.107H23.9468C23.9645 21.107 23.9815 21.0998 23.994 21.0871C24.0065 21.0743 24.0135 21.057 24.0135 21.039C24.0135 21.0209 24.0065 21.0036 23.994 20.9908C23.9815 20.9781 23.9645 20.9709 23.9468 20.9709ZM20.7304 19.5113H22.1762L23.2331 20.9709H19.6734L20.7304 19.5113Z" fill="#2B2B2B"/>
</g>
<g clip-path="url(#clip7_6045_4836)">
<path d="M13.0135 21.6856L16.4589 23.9934L16.5265 24.0378C17.0063 24.3587 17.6503 24.2221 17.9649 23.7325C18.1102 23.5063 18.1653 23.2321 18.119 22.9659L17.416 18.9685C17.3403 18.5376 16.9367 18.251 16.5144 18.3282C16.1369 18.3973 15.8652 18.7373 15.875 19.1285L15.9783 23.1888L17.6364 22.1616L14.1911 19.8538C13.6953 19.5221 13.0298 19.6631 12.7046 20.169C12.3794 20.6748 12.5177 21.3538 13.0135 21.6856Z" fill="url(#paint0_linear_6045_4836)"/>
<path d="M14.2168 22.4048L20.6965 21.9732C20.974 21.9726 21.2465 22.049 21.4848 22.194L27.4958 25.8572L26.4235 27.6847L26.3163 27.6503L26.211 27.6138L25.9985 27.5409C25.8576 27.4902 25.7185 27.4375 25.5776 27.387C25.4386 27.3363 25.2996 27.2816 25.1605 27.2289C25.0215 27.1762 24.8845 27.1216 24.7455 27.0668C24.1955 26.848 23.6493 26.6171 23.1092 26.38C22.8411 26.2605 22.5691 26.141 22.303 26.0174L21.9017 25.833L21.5026 25.6446C21.2365 25.5209 20.9724 25.3893 20.7082 25.2616L20.5096 25.1644L20.3957 25.1069L20.2058 25.1178L19.7153 25.1442C19.5525 25.1524 19.3877 25.1604 19.2248 25.1665L18.7343 25.1867C18.5715 25.1928 18.4067 25.1969 18.2438 25.2029C18.081 25.207 17.9162 25.2151 17.7533 25.2171L17.2628 25.2272C17.1 25.2313 16.9352 25.2313 16.7723 25.2333C16.117 25.2394 15.4637 25.2353 14.8084 25.2171L14.3179 25.2009C14.155 25.1927 13.9902 25.1888 13.8274 25.1786L13.5811 25.1644L13.3349 25.1482L13.0887 25.13L12.9656 25.1199L12.8424 25.1077L14.2168 22.4048Z" fill="url(#paint1_linear_6045_4836)"/>
<path d="M18.022 22.6609C18.8352 22.6302 19.5316 23.25 19.6123 24.0761L19.7136 25.1441C19.5514 25.1522 19.3872 25.1603 19.2249 25.1663L18.7344 25.1866C18.5716 25.1926 18.4068 25.1967 18.2439 25.2028C18.0811 25.2068 17.9163 25.215 17.7535 25.217L17.263 25.2271C17.1001 25.2312 16.9353 25.2312 16.7725 25.2332C16.1171 25.2393 15.4638 25.2352 14.8085 25.217L14.318 25.2007C14.1552 25.1925 13.9903 25.1886 13.8275 25.1785L13.5813 25.1643L13.335 25.1481L13.0888 25.1298L12.9657 25.1197L12.8426 25.1076L13.8408 23.1445L14.2862 22.9773L18.022 22.6609Z" fill="#2B2B2B"/>
<path d="M14.2962 22.8546C14.2455 22.7108 14.2186 22.5595 14.2168 22.4067C14.2108 22.1494 14.8145 21.7442 14.7827 20.9642C14.7569 20.3645 14.1055 19.4933 13.0809 19.5297L12.2569 19.5864C11.3574 19.6189 10.6603 20.4374 10.6365 21.0755H10.6325C10.6325 21.0938 10.6345 21.112 10.6345 21.1282V21.1444H10.6365C10.9231 22.1108 11.2301 22.2003 11.1806 22.901L14.2962 22.8546Z" fill="url(#paint2_linear_6045_4836)"/>
<path d="M11.1766 22.9012L14.2129 22.4068L17.9383 22.8323C18.7421 22.9622 19.3082 23.7076 19.231 24.5342L18.5221 31.9051L16.4469 31.6963L16.433 31.5788L16.4211 31.4612L16.3953 31.2262C16.3814 31.0682 16.3655 30.9122 16.3536 30.7562C16.3278 30.4421 16.3059 30.1301 16.2861 29.8181C16.2463 29.1941 16.2205 28.572 16.2026 27.95C16.1945 27.6401 16.1847 27.328 16.1827 27.0181L16.1768 26.5521L16.1748 26.086C16.1742 25.9908 16.1742 25.8955 16.1745 25.8002L16.1351 25.7963C16.0258 25.7862 15.9146 25.772 15.8034 25.7598C15.6923 25.7477 15.583 25.7355 15.4718 25.7214L15.1402 25.6788C15.029 25.6647 14.9197 25.6484 14.8086 25.6321C14.5722 25.5957 13.6429 25.4255 12.8287 25.2755C12.5398 25.2215 12.2645 25.1087 12.0193 24.9437C11.7741 24.7788 11.564 24.5652 11.4015 24.3156C11.2129 24.0259 11.1268 23.6791 11.149 23.3321L11.1766 22.9012Z" fill="url(#paint3_linear_6045_4836)"/>
<path d="M13.5556 18.8368L12.803 18.8632C12.4152 18.8781 12.089 18.5695 12.0744 18.1739L12.0742 18.1703L12.0345 17.0134C12.0122 16.3782 12.4987 15.8449 13.1212 15.8221L13.1227 15.822C13.7452 15.7992 14.268 16.2956 14.2903 16.9307L14.2904 16.9323L14.3261 17.994C14.3422 18.4431 13.9984 18.8204 13.5582 18.8368L13.5556 18.8368Z" fill="#FDC068"/>
<path d="M14.2009 17.2646C14.201 17.2951 14.2117 17.3245 14.2309 17.3478C14.2501 17.3712 14.2768 17.3869 14.3062 17.3922L14.2982 17.139C14.2414 17.1531 14.2013 17.2049 14.2009 17.2646ZM13.4046 20.0119L13.8435 19.6837C13.8435 19.6837 13.4881 19.5237 13.22 19.5299L13.4046 20.0119Z" fill="#2B2B2B"/>
<path d="M13.0095 20.17L12.0305 19.8418L12.0563 17.6496L13.2558 17.607L13.4444 19.8154C13.4624 20.0016 13.329 20.1673 13.1466 20.1856C13.1003 20.1902 13.0536 20.1849 13.0095 20.17Z" fill="#FDC068"/>
<path d="M14.3717 17.5402C14.5922 17.5402 14.7629 17.4186 14.7629 17.2646C14.7629 17.1106 14.5902 16.9891 14.3717 16.9891C14.1513 16.9891 13.9805 17.1106 13.9805 17.2646C13.9805 17.4186 14.1514 17.5402 14.3717 17.5402ZM14.3717 17.0621C14.5445 17.0621 14.6915 17.1553 14.6915 17.2647C14.6915 17.3741 14.5445 17.4674 14.3717 17.4674C14.199 17.4674 14.052 17.3741 14.052 17.2647C14.052 17.1553 14.199 17.062 14.3717 17.062V17.0621ZM13.5615 17.5402C13.782 17.5402 13.9527 17.4186 13.9527 17.2646C13.9527 17.1106 13.7798 16.9891 13.5615 16.9891C13.3411 16.9891 13.1703 17.1106 13.1703 17.2646C13.1703 17.4186 13.3411 17.5402 13.5615 17.5402ZM13.5615 17.0621C13.7343 17.0621 13.8813 17.1553 13.8813 17.2647C13.8813 17.3741 13.7343 17.4674 13.5615 17.4674C13.3888 17.4674 13.2418 17.3741 13.2418 17.2647C13.2418 17.1553 13.3888 17.062 13.5615 17.062V17.0621Z" fill="#2B2B2B"/>
<path d="M13.9745 17.2504L14.1414 17.4388C14.1495 17.4476 14.1557 17.4581 14.1596 17.4694C14.1634 17.4808 14.165 17.4929 14.164 17.5049C14.1631 17.5169 14.1597 17.5286 14.1541 17.5392C14.1485 17.5498 14.1408 17.5591 14.1315 17.5665L14.0302 17.6333L13.9745 17.2504Z" fill="#FDC068"/>
<path d="M14.0303 17.6698C14.0374 17.6697 14.0442 17.6676 14.0502 17.6637L14.1533 17.5948C14.1667 17.5845 14.1777 17.5714 14.1856 17.5564C14.1935 17.5413 14.1981 17.5247 14.1991 17.5077C14.2004 17.4904 14.1983 17.4731 14.1928 17.4567C14.1874 17.4404 14.1787 17.4253 14.1673 17.4124L14.0005 17.224C13.9973 17.2204 13.9933 17.2175 13.989 17.2155C13.9846 17.2134 13.9799 17.2123 13.9751 17.2121C13.9703 17.2119 13.9655 17.2127 13.961 17.2144C13.9565 17.2161 13.9524 17.2186 13.9488 17.222C13.9453 17.2253 13.9425 17.2293 13.9404 17.2338C13.9384 17.2382 13.9373 17.243 13.9371 17.2479C13.9369 17.2528 13.9377 17.2577 13.9394 17.2623C13.941 17.2669 13.9436 17.2711 13.9468 17.2747L14.1136 17.4631C14.1231 17.4736 14.1281 17.4874 14.1275 17.5016C14.1253 17.5147 14.119 17.5267 14.1097 17.5361L14.0104 17.6009C14.0063 17.6034 14.0027 17.6067 14 17.6107C13.9972 17.6147 13.9953 17.6192 13.9944 17.624C13.9934 17.6287 13.9935 17.6337 13.9945 17.6384C13.9956 17.6432 13.9976 17.6476 14.0004 17.6515C14.0032 17.6571 14.0075 17.6618 14.0128 17.6651C14.0181 17.6683 14.0242 17.6699 14.0303 17.6698ZM14.0064 18.1844C14.0191 18.1841 14.0317 18.1827 14.0441 18.1804C14.0765 18.1722 14.107 18.1574 14.1336 18.1368C14.1602 18.1163 14.1825 18.0904 14.199 18.0608C14.2012 18.0564 14.2026 18.0517 14.203 18.0468C14.2034 18.0418 14.2029 18.0369 14.2014 18.0322C14.1999 18.0275 14.1976 18.0231 14.1945 18.0194C14.1913 18.0156 14.1875 18.0125 14.1832 18.0102L14.1831 18.0102C14.1746 18.0057 14.1648 18.0047 14.1556 18.0073C14.1464 18.0099 14.1385 18.016 14.1335 18.0244C14.1223 18.0447 14.1072 18.0625 14.0891 18.0768C14.071 18.0911 14.0503 18.1015 14.0282 18.1074C13.9805 18.1176 13.925 18.0953 13.8654 18.0446C13.858 18.0383 13.8485 18.0352 13.8389 18.0361C13.8293 18.0369 13.8204 18.0415 13.8141 18.049C13.8078 18.0564 13.8047 18.0661 13.8054 18.0759C13.8061 18.0857 13.8105 18.0949 13.8177 18.1013C13.8833 18.156 13.9468 18.1844 14.0064 18.1844ZM13.363 18.8449L12.8725 18.8611L13.4047 19.3373L13.363 18.8449Z" fill="#2B2B2B"/>
<path d="M13.5953 17.4246C13.5251 17.4246 13.4682 17.3666 13.4682 17.295C13.4682 17.2233 13.5251 17.1653 13.5953 17.1653C13.6655 17.1653 13.7224 17.2233 13.7224 17.295C13.7224 17.3666 13.6655 17.4246 13.5953 17.4246Z" fill="#2B2B2B"/>
<path d="M13.9169 17.2342H14.0043C14.0091 17.2343 14.0138 17.2335 14.0183 17.2317C14.0227 17.2299 14.0268 17.2273 14.0302 17.2239C14.0336 17.2205 14.0364 17.2164 14.0382 17.2119C14.0401 17.2074 14.041 17.2026 14.041 17.1977C14.041 17.1929 14.0401 17.188 14.0382 17.1835C14.0364 17.179 14.0336 17.175 14.0302 17.1716C14.0268 17.1682 14.0227 17.1655 14.0183 17.1637C14.0138 17.162 14.0091 17.1611 14.0043 17.1613H13.9169C13.9122 17.1611 13.9074 17.162 13.903 17.1637C13.8985 17.1655 13.8945 17.1682 13.891 17.1716C13.8876 17.175 13.8849 17.179 13.883 17.1835C13.8812 17.188 13.8802 17.1929 13.8802 17.1977C13.8802 17.2026 13.8812 17.2074 13.883 17.2119C13.8849 17.2164 13.8876 17.2205 13.891 17.2239C13.8945 17.2273 13.8985 17.2299 13.903 17.2317C13.9074 17.2335 13.9122 17.2343 13.9169 17.2342ZM12.648 17.2019H13.2199C13.2292 17.2017 13.2381 17.1977 13.2446 17.1909C13.2511 17.1841 13.2547 17.175 13.2547 17.1655C13.2547 17.1559 13.2511 17.1468 13.2446 17.14C13.2381 17.1332 13.2292 17.1292 13.2199 17.129H12.648C12.6432 17.1288 12.6385 17.1297 12.634 17.1315C12.6296 17.1332 12.6255 17.1359 12.6221 17.1393C12.6187 17.1427 12.6159 17.1468 12.6141 17.1513C12.6122 17.1558 12.6113 17.1606 12.6113 17.1655C12.6113 17.1703 12.6122 17.1752 12.6141 17.1796C12.6159 17.1841 12.6187 17.1882 12.6221 17.1916C12.6255 17.195 12.6296 17.1977 12.634 17.1994C12.6385 17.2012 12.6432 17.2021 12.648 17.2019ZM28.6044 24.599L27.2243 27.6948C27.1517 27.8568 26.966 27.9305 26.8052 27.861L26.418 27.6928L27.3096 25.7458L28.3302 24.4288C28.4475 24.2748 28.6838 24.4207 28.6044 24.599ZM20.0857 32.219L16.7516 32.2129C16.5773 32.213 16.4351 32.0707 16.4319 31.8929L16.4219 31.4634L18.5289 31.4897L20.1255 31.8948C20.3121 31.9395 20.2785 32.219 20.0857 32.219Z" fill="#2B2B2B"/>
<g clip-path="url(#clip8_6045_4836)">
</g>
<path d="M12.8883 15.82H13.3808C13.8676 15.8203 14.2622 16.2229 14.2625 16.7196L13.9151 16.209L13.6172 16.598C13.5887 16.636 13.552 16.6667 13.51 16.6878C13.468 16.7089 13.4217 16.7197 13.3749 16.7196C13.2054 16.719 13.0676 16.8586 13.067 17.0315V17.5442H12.7969V17.4611C12.7969 17.4474 12.7926 17.434 12.7847 17.4229C12.7767 17.4118 12.7654 17.4036 12.7525 17.3995C12.7396 17.3955 12.7258 17.3957 12.7131 17.4002C12.7003 17.4047 12.6893 17.4133 12.6817 17.4247L12.0462 18.3931L12.0045 16.9425V16.7196C12.0058 16.2225 12.4011 15.8201 12.8883 15.82Z" fill="#9F70A7"/>
<path d="M12.392 17.8157C12.1584 17.8157 11.969 17.6225 11.969 17.3841C11.969 17.1458 12.1584 16.9526 12.392 16.9526C12.6256 16.9526 12.8149 17.1458 12.8149 17.3841C12.8149 17.6225 12.6256 17.8157 12.392 17.8157Z" fill="#FDC068"/>
<path d="M15.6148 22.2791L13.7541 22.8484L12.5964 20.3785C12.3408 19.8313 11.6988 19.5992 11.1625 19.86C10.6261 20.1208 10.3986 20.7758 10.6542 21.323L12.2032 24.6355L12.2409 24.7165C12.4751 25.2172 13.0627 25.4295 13.5536 25.1906L13.5695 25.1824L16.2185 23.833L15.6148 22.2791Z" fill="url(#paint4_linear_6045_4836)"/>
<path d="M16.2205 23.8332L16.7031 23.588C17.0869 23.3922 17.2426 22.9159 17.0506 22.5242C16.8818 22.1798 16.4948 22.0089 16.1331 22.1191L15.6148 22.2771L16.2205 23.8332ZM17.4529 19.1762L17.341 18.6569C17.2516 18.2435 16.8507 17.9824 16.4455 18.0736C16.0887 18.1539 15.8403 18.4845 15.8569 18.8569L15.8803 19.3898L17.4529 19.1762Z" fill="#FDC068"/>
<path d="M14.7272 22.4432H14.7312C14.7359 22.4427 14.7404 22.4413 14.7446 22.439C14.7487 22.4367 14.7524 22.4336 14.7553 22.4298C14.7583 22.4261 14.7605 22.4218 14.7618 22.4172C14.7631 22.4125 14.7635 22.4077 14.763 22.4029L14.763 22.4027C14.7431 22.192 14.765 22.0481 14.9397 21.8496C14.9463 21.8423 14.9498 21.8327 14.9494 21.8228C14.9491 21.813 14.9449 21.8036 14.9378 21.7969C14.9306 21.7902 14.9212 21.7866 14.9115 21.787C14.9018 21.7874 14.8927 21.7917 14.8861 21.7989C14.6935 22.0157 14.6677 22.1819 14.6895 22.4088C14.691 22.4181 14.6955 22.4266 14.7024 22.4329C14.7093 22.4392 14.718 22.4428 14.7272 22.4432ZM13.6152 22.5567C13.6207 22.5566 13.6261 22.5552 13.6311 22.5526C13.6398 22.5481 13.6463 22.5403 13.6493 22.5308C13.6523 22.5213 13.6515 22.511 13.6471 22.5022L13.647 22.502L13.4186 22.0319C13.4166 22.0273 13.4137 22.0232 13.4101 22.0197C13.4065 22.0163 13.4022 22.0136 13.3976 22.0119C13.3929 22.0101 13.388 22.0094 13.383 22.0096C13.3781 22.0099 13.3733 22.0111 13.3688 22.0133C13.3644 22.0155 13.3604 22.0186 13.3571 22.0224C13.3539 22.0262 13.3514 22.0306 13.3498 22.0354C13.3483 22.0402 13.3477 22.0453 13.3481 22.0503C13.3485 22.0554 13.3499 22.0602 13.3522 22.0647L13.3531 22.0664L13.5814 22.5364C13.5846 22.5427 13.5895 22.5479 13.5954 22.5515C13.6014 22.5551 13.6083 22.5569 13.6152 22.5567Z" fill="#2B2B2B"/>
</g>
<defs>
<linearGradient id="paint0_linear_6045_4836" x1="15.3318" y1="25.3885" x2="15.3318" y2="18.0745" gradientUnits="userSpaceOnUse">
<stop stop-color="#F89D9A"/>
<stop offset="0.263" stop-color="#F5943B"/>
<stop offset="0.499" stop-color="#F05052"/>
<stop offset="0.758" stop-color="#ECE674"/>
<stop offset="1" stop-color="#E1EEC3"/>
</linearGradient>
<linearGradient id="paint1_linear_6045_4836" x1="20.1691" y1="21.9426" x2="20.1691" y2="30.2148" gradientUnits="userSpaceOnUse">
<stop stop-color="#9774AC"/>
<stop offset="0.401" stop-color="#47A6D3"/>
<stop offset="0.501" stop-color="#A7A7AE"/>
<stop offset="0.591" stop-color="#E89AC0"/>
<stop offset="1" stop-color="#BFE7D1"/>
</linearGradient>
<linearGradient id="paint2_linear_6045_4836" x1="12.7082" y1="25.3886" x2="12.7082" y2="18.0746" gradientUnits="userSpaceOnUse">
<stop stop-color="#F89D9A"/>
<stop offset="0.263" stop-color="#F5943B"/>
<stop offset="0.499" stop-color="#F05052"/>
<stop offset="0.758" stop-color="#ECE674"/>
<stop offset="1" stop-color="#E1EEC3"/>
</linearGradient>
<linearGradient id="paint3_linear_6045_4836" x1="15.1918" y1="22.4196" x2="15.1918" y2="31.2755" gradientUnits="userSpaceOnUse">
<stop stop-color="#9774AC"/>
<stop offset="0.401" stop-color="#47A6D3"/>
<stop offset="0.501" stop-color="#A7A7AE"/>
<stop offset="0.591" stop-color="#E89AC0"/>
<stop offset="1" stop-color="#BFE7D1"/>
</linearGradient>
<linearGradient id="paint4_linear_6045_4836" x1="13.3839" y1="25.3885" x2="13.3839" y2="18.0745" gradientUnits="userSpaceOnUse">
<stop stop-color="#F89D9A"/>
<stop offset="0.263" stop-color="#F5943B"/>
<stop offset="0.499" stop-color="#F05052"/>
<stop offset="0.758" stop-color="#ECE674"/>
<stop offset="1" stop-color="#E1EEC3"/>
</linearGradient>
<clipPath id="clip0_6045_4836">
<rect width="28.2375" height="23.6536" fill="white" transform="translate(5.8999 8.60364)"/>
</clipPath>
<clipPath id="clip1_6045_4836">
<rect width="8.15625" height="13.0773" fill="white" transform="matrix(-1 0 0 1 17.9375 19.0273)"/>
</clipPath>
<clipPath id="clip2_6045_4836">
<rect width="12.6562" height="11.0155" fill="white" transform="translate(15.6687 21.0891)"/>
</clipPath>
<clipPath id="clip3_6045_4836">
<rect width="3.9" height="5.40273" fill="white" transform="translate(16.2312 9.13818)"/>
</clipPath>
<clipPath id="clip4_6045_4836">
<rect width="6.375" height="2.65364" fill="white" transform="translate(25.8501 15.7245)"/>
</clipPath>
<clipPath id="clip5_6045_4836">
<rect width="3.65625" height="5.13546" fill="white" transform="translate(22.7375 9.13818)"/>
</clipPath>
<clipPath id="clip6_6045_4836">
<rect width="9.01875" height="6.89182" fill="white" transform="translate(16.9438 14.2164)"/>
</clipPath>
<clipPath id="clip7_6045_4836">
<rect width="18.0938" height="16.3991" fill="white" transform="matrix(-1 0 0 1 28.6438 15.82)"/>
</clipPath>
<clipPath id="clip8_6045_4836">
<rect width="132.463" height="90.2477" fill="white" transform="translate(-103.842 17.129)"/>
</clipPath>
</defs>
</svg>
