<svg width="300" height="155" viewBox="0 0 300 155" fill="none" xmlns="http://www.w3.org/2000/svg">
<g clip-path="url(#clip0_6196_15338)">
<path d="M150 138.398C232.843 138.398 300 136.522 300 134.207C300 131.892 232.843 130.016 150 130.016C67.1573 130.016 0 131.892 0 134.207C0 136.522 67.1573 138.398 150 138.398Z" fill="#E6E6E6"/>
<path d="M229.939 88.7923C229.75 88.7949 229.56 88.7975 229.368 88.7975C229.176 88.7975 228.987 88.7949 228.798 88.7923C218.757 88.5642 211.479 82.2974 213.331 75.7221L217.849 59.6818L218.99 55.6232L239.228 55.9679L240.458 59.9384L245.299 75.5666C247.349 82.1781 240.071 88.5642 229.939 88.7923Z" fill="#36393E"/>
<path opacity="0.2" d="M240.458 59.9384C237.007 61.9087 233.093 62.9237 229.118 62.8786C225.144 62.8335 221.254 61.73 217.849 59.6818L218.99 55.6232L239.228 55.9679L240.458 59.9384Z" fill="black"/>
<path d="M239.604 76.2544C240.478 72.9997 243.351 68.3047 251.409 62.6439C265.462 52.7699 257.079 45.3664 256.716 45.0562C255.954 44.4055 256.066 43.6749 256.978 43.4253C257.507 43.3196 258.053 43.3282 258.578 43.4504C259.104 43.5727 259.598 43.8058 260.026 44.1341C260.481 44.51 270.979 53.4649 255.121 64.6052C240.849 74.6326 243.884 81.1782 243.918 81.241C244.301 81.941 243.688 82.5012 242.547 82.4936C241.407 82.4861 240.172 81.913 239.788 81.2136C239.708 81.0657 238.789 79.2842 239.604 76.2544Z" fill="#36393E"/>
<path d="M220.028 91.13C219.722 91.13 219.418 91.0697 219.135 90.9525C218.851 90.8353 218.594 90.6635 218.377 90.4469C218.16 90.2303 217.988 89.9731 217.871 89.6901C217.754 89.4071 217.693 89.1038 217.693 88.7975V78.6897C217.693 78.071 217.939 77.4778 218.377 77.0403C218.815 76.6029 219.409 76.3571 220.028 76.3571C220.648 76.3571 221.241 76.6029 221.679 77.0403C222.117 77.4778 222.363 78.071 222.363 78.6897V88.7975C222.363 89.1038 222.303 89.4071 222.186 89.6901C222.068 89.9731 221.896 90.2303 221.679 90.4469C221.463 90.6635 221.205 90.8353 220.922 90.9525C220.639 91.0697 220.335 91.13 220.028 91.13Z" fill="#36393E"/>
<path d="M222.076 67.1337C221.947 67.412 221.766 67.6623 221.541 67.8704C221.316 68.0785 221.052 68.2403 220.764 68.3465C220.476 68.4528 220.171 68.5014 219.864 68.4896C219.558 68.4778 219.257 68.4058 218.978 68.2778L209.786 64.053C209.224 63.794 208.788 63.3228 208.573 62.7428C208.359 62.1629 208.384 61.5217 208.642 60.96C208.901 60.3984 209.372 59.9624 209.953 59.7476C210.533 59.5329 211.175 59.5571 211.738 59.8149L220.93 64.0397C221.209 64.1677 221.459 64.3493 221.668 64.5741C221.876 64.7988 222.038 65.0624 222.144 65.3497C222.251 65.637 222.299 65.9424 222.288 66.2485C222.276 66.5546 222.204 66.8554 222.076 67.1337Z" fill="#36393E"/>
<path d="M236.662 67.1337C236.79 67.4119 236.972 67.6623 237.197 67.8704C237.422 68.0785 237.686 68.2403 237.973 68.3465C238.261 68.4528 238.567 68.5014 238.873 68.4896C239.179 68.4778 239.481 68.4058 239.759 68.2778L248.952 64.053C249.514 63.7944 249.951 63.3232 250.166 62.7429C250.381 62.1627 250.356 61.521 250.097 60.959C249.838 60.397 249.366 59.9607 248.786 59.7462C248.205 59.5316 247.562 59.5563 247 59.8149L237.807 64.0397C237.529 64.1677 237.278 64.3493 237.07 64.5741C236.861 64.7988 236.699 65.0624 236.593 65.3497C236.487 65.637 236.438 65.9424 236.45 66.2485C236.462 66.5546 236.534 66.8554 236.662 67.1337Z" fill="#36393E"/>
<path d="M238.709 91.13C239.016 91.13 239.319 91.0697 239.603 90.9525C239.886 90.8353 240.144 90.6635 240.36 90.4469C240.577 90.2303 240.749 89.9731 240.867 89.6901C240.984 89.4071 241.044 89.1038 241.044 88.7975V78.6897C241.044 78.071 240.798 77.4778 240.36 77.0403C239.922 76.6029 239.328 76.3571 238.709 76.3571C238.09 76.3571 237.496 76.6029 237.058 77.0403C236.62 77.4778 236.374 78.071 236.374 78.6897V88.7975C236.374 89.1038 236.434 89.4071 236.552 89.6901C236.669 89.9731 236.841 90.2303 237.058 90.4469C237.275 90.6635 237.532 90.8353 237.816 90.9525C238.099 91.0697 238.402 91.13 238.709 91.13Z" fill="#36393E"/>
<path d="M248.468 25.6924C248.67 25.4385 248.815 25.1447 248.895 24.8305C248.975 24.5163 248.987 24.1887 248.931 23.8694L247.66 16.4011L246.39 8.9329C246.321 8.52966 246.147 8.15158 245.886 7.83664C245.625 7.5217 245.285 7.28101 244.901 7.13876C244.517 6.9965 244.103 6.95769 243.699 7.02624C243.295 7.09478 242.917 7.26826 242.602 7.52924L236.762 12.3628L233.244 15.2748C230.898 14.8581 228.5 14.822 226.142 15.1679L222.754 12.3628L216.914 7.52924C216.599 7.26827 216.22 7.09479 215.817 7.02624C215.413 6.9577 214.998 6.99651 214.615 7.13876C214.231 7.28102 213.891 7.52171 213.63 7.83664C213.368 8.15158 213.195 8.52967 213.126 8.9329L211.855 16.4012L210.584 23.8694C210.517 24.2619 210.552 24.6653 210.686 25.0403C208.508 28.3755 207.265 32.2328 207.085 36.2108C206.905 40.1889 207.795 44.1424 209.664 47.6601C211.532 51.1779 214.31 54.1313 217.708 56.2132C221.106 58.2952 225.001 59.4295 228.987 59.4983C232.972 59.5671 236.904 58.5678 240.372 56.6044C243.84 54.641 246.719 51.7852 248.707 48.334C250.696 44.8829 251.723 40.9624 251.681 36.9805C251.639 32.9986 250.529 29.1008 248.468 25.6924Z" fill="#36393E"/>
<path d="M216.329 10.5896C216.191 10.5898 216.053 10.6147 215.923 10.6631C215.733 10.7325 215.564 10.8513 215.434 11.0074C215.305 11.1635 215.219 11.3513 215.186 11.5514L213.645 20.6081C213.611 20.8077 213.631 21.0128 213.701 21.2026C213.772 21.3925 213.891 21.5604 214.047 21.6896C214.203 21.8188 214.39 21.9047 214.59 21.9387C214.79 21.9726 214.995 21.9534 215.186 21.8829L223.808 18.6878C223.998 18.6174 224.166 18.4982 224.295 18.3423C224.425 18.1864 224.511 17.9992 224.545 17.7996C224.579 17.6 224.559 17.395 224.489 17.2052C224.418 17.0153 224.299 16.8474 224.143 16.7182L217.062 10.8565C216.856 10.6845 216.597 10.5901 216.329 10.5896Z" fill="#E6E6E6"/>
<path d="M243.187 10.5896C242.919 10.5901 242.659 10.6846 242.454 10.8565L235.372 16.7182C235.216 16.8474 235.097 17.0153 235.027 17.2052C234.956 17.395 234.937 17.6 234.971 17.7996C235.005 17.9992 235.091 18.1864 235.22 18.3423C235.35 18.4982 235.518 18.6174 235.708 18.6878L244.33 21.8829C244.52 21.9534 244.725 21.9726 244.925 21.9387C245.125 21.9047 245.313 21.8188 245.469 21.6896C245.625 21.5604 245.744 21.3925 245.815 21.2026C245.885 21.0128 245.904 20.8077 245.87 20.6081L244.329 11.5514C244.296 11.3513 244.211 11.1635 244.081 11.0074C243.952 10.8513 243.783 10.7325 243.592 10.6631C243.462 10.6147 243.325 10.5898 243.187 10.5896Z" fill="#E6E6E6"/>
<path d="M229.369 43.442C231.088 43.442 232.482 42.0495 232.482 40.3319C232.482 38.6142 231.088 37.2218 229.369 37.2218C227.649 37.2218 226.255 38.6142 226.255 40.3319C226.255 42.0495 227.649 43.442 229.369 43.442Z" fill="#E6E6E6"/>
<path d="M229.369 39.5544C230.515 39.5544 231.444 39.2063 231.444 38.7768C231.444 38.3474 230.515 37.9993 229.369 37.9993C228.222 37.9993 227.293 38.3474 227.293 38.7768C227.293 39.2063 228.222 39.5544 229.369 39.5544Z" fill="#36393E"/>
<path d="M227.812 42.1461H230.666V45.645C230.666 45.8322 230.629 46.0175 230.557 46.1905C230.485 46.3634 230.38 46.5206 230.248 46.6529C230.115 46.7853 229.958 46.8903 229.785 46.9619C229.612 47.0336 229.426 47.0704 229.239 47.0704C228.86 47.0704 228.497 46.9202 228.23 46.6529C227.962 46.3856 227.812 46.023 227.812 45.645L227.812 42.1461Z" fill="#FE7575"/>
<path d="M229.542 6.86914C229.392 7.17916 229.247 7.49253 229.11 7.8123C227.5 11.5635 226.957 15.6857 227.541 19.7253C227.833 19.3019 228.14 18.8609 228.452 18.4149C227.784 14.5379 228.16 10.553 229.542 6.86914Z" fill="#36393E"/>
<path d="M231.877 9.72003C231.727 10.03 231.582 10.3434 231.445 10.6632C229.835 14.4144 229.292 18.5366 229.876 22.5762C230.168 22.1528 230.475 21.7118 230.787 21.2658C230.119 17.3888 230.495 13.4039 231.877 9.72003Z" fill="#36393E"/>
<path d="M239.076 65.6893L238.747 61.5104L238.418 57.3315C238.401 57.1059 238.324 56.8889 238.195 56.7023C238.067 56.5158 237.892 56.3663 237.687 56.2688C237.483 56.1714 237.256 56.1294 237.03 56.1472C236.804 56.1649 236.587 56.2417 236.4 56.3699L232.942 58.7439L230.416 60.4775C230.255 60.2888 230.055 60.1372 229.829 60.0332C229.603 59.9293 229.358 59.8755 229.109 59.8755C228.861 59.8755 228.615 59.9293 228.389 60.0332C228.164 60.1372 227.963 60.2888 227.802 60.4775L225.276 58.7439L221.818 56.3699C221.631 56.2417 221.414 56.1649 221.188 56.1472C220.962 56.1294 220.735 56.1714 220.531 56.2688C220.326 56.3663 220.151 56.5158 220.023 56.7023C219.895 56.8889 219.818 57.1058 219.8 57.3315L219.471 61.5104L219.142 65.6893C219.124 65.9149 219.166 66.1412 219.264 66.3455C219.361 66.5498 219.511 66.7248 219.698 66.853C219.884 66.9812 220.102 67.058 220.328 67.0757C220.553 67.0935 220.78 67.0515 220.984 66.9541L224.772 65.1492L227.884 63.6662C228.044 63.8283 228.235 63.957 228.445 64.0448C228.655 64.1326 228.881 64.1779 229.109 64.1779C229.337 64.1779 229.563 64.1326 229.773 64.0448C229.983 63.957 230.174 63.8283 230.334 63.6662L233.446 65.1492L237.234 66.9541C237.438 67.0515 237.665 67.0935 237.891 67.0757C238.116 67.058 238.334 66.9812 238.52 66.853C238.707 66.7248 238.857 66.5498 238.954 66.3455C239.052 66.1413 239.094 65.9149 239.076 65.6893Z" fill="#7282FE"/>
<path d="M225.217 37.7402C225.647 37.7402 225.996 37.3921 225.996 36.9626C225.996 36.5332 225.647 36.1851 225.217 36.1851C224.787 36.1851 224.439 36.5332 224.439 36.9626C224.439 37.3921 224.787 37.7402 225.217 37.7402Z" fill="#E6E6E6"/>
<path d="M233.52 37.7402C233.95 37.7402 234.298 37.3921 234.298 36.9626C234.298 36.5332 233.95 36.1851 233.52 36.1851C233.09 36.1851 232.741 36.5332 232.741 36.9626C232.741 37.3921 233.09 37.7402 233.52 37.7402Z" fill="#E6E6E6"/>
<path d="M78.7645 81.9231C78.9539 81.9257 79.1433 81.9283 79.3353 81.9283C79.5273 81.9283 79.7167 81.9257 79.9061 81.9231C89.9471 81.6951 97.2249 75.4282 95.3723 68.853L90.8552 52.8127L89.7136 48.754L69.4759 49.0987L68.246 53.0693L63.4046 68.6975C61.3548 75.309 68.6326 81.6951 78.7645 81.9231Z" fill="#36393E"/>
<path opacity="0.2" d="M68.2461 53.0693C71.6967 55.0396 75.6112 56.0546 79.5856 56.0095C83.5599 55.9644 87.4503 54.8608 90.8552 52.8127L89.7136 48.754L69.4759 49.0987L68.2461 53.0693Z" fill="black"/>
<path d="M66.6422 67.4841C64.4578 64.9161 59.8497 61.9008 50.1418 60.2286C33.2104 57.3111 37.6161 47.0363 37.8115 46.6006C38.2216 45.6868 37.8069 45.0746 36.8764 45.2384C36.3527 45.3692 35.863 45.6102 35.4402 45.9454C35.0174 46.2806 34.6712 46.7023 34.4248 47.182C34.1746 47.7163 28.5225 60.297 47.6274 63.5877C64.8219 66.5506 64.8832 73.7637 64.8786 73.8353C64.8329 74.6315 65.6271 74.8757 66.6544 74.3815C67.6817 73.8873 68.5525 72.8414 68.5996 72.0454C68.6092 71.8772 68.6761 69.8745 66.6422 67.4841Z" fill="#36393E"/>
<path d="M88.6757 84.2609C88.9823 84.2609 89.286 84.2006 89.5693 84.0834C89.8526 83.9662 90.1101 83.7943 90.3269 83.5777C90.5437 83.3611 90.7157 83.104 90.8331 82.821C90.9504 82.538 91.0108 82.2347 91.0108 81.9283V71.8206C91.0101 71.2024 90.7637 70.6098 90.3259 70.173C89.888 69.7362 89.2945 69.4908 88.6757 69.4908C88.0569 69.4908 87.4633 69.7362 87.0255 70.173C86.5877 70.6098 86.3413 71.2024 86.3406 71.8206V81.9283C86.3406 82.2347 86.401 82.538 86.5183 82.821C86.6357 83.104 86.8077 83.3611 87.0245 83.5777C87.2413 83.7943 87.4988 83.9662 87.7821 84.0834C88.0654 84.2006 88.369 84.2609 88.6757 84.2609Z" fill="#36393E"/>
<path d="M86.6283 60.2645C86.7565 60.5428 86.9383 60.7931 87.1633 61.0012C87.3883 61.2093 87.6522 61.3711 87.9398 61.4774C88.2274 61.5836 88.5332 61.6322 88.8396 61.6204C89.146 61.6086 89.4471 61.5367 89.7257 61.4086L98.9183 57.1839C99.1972 57.056 99.4481 56.8745 99.6568 56.6498C99.8654 56.425 100.028 56.1614 100.134 55.8739C100.241 55.5865 100.29 55.2809 100.278 54.9746C100.266 54.6683 100.194 54.3673 100.066 54.0888C99.9376 53.8104 99.7557 53.5599 99.5304 53.3517C99.3052 53.1435 99.0411 52.9817 98.7532 52.8756C98.4654 52.7694 98.1594 52.721 97.8528 52.733C97.5461 52.745 97.2449 52.8173 96.9663 52.9458L87.7737 57.1705C87.4951 57.2986 87.2445 57.4801 87.0362 57.7049C86.8278 57.9297 86.6658 58.1933 86.5595 58.4806C86.4531 58.7679 86.4045 59.0733 86.4163 59.3794C86.4281 59.6855 86.5002 59.9863 86.6283 60.2645Z" fill="#36393E"/>
<path d="M72.0422 60.2645C71.914 60.5428 71.7322 60.7931 71.5072 61.0012C71.2822 61.2093 71.0183 61.3711 70.7307 61.4774C70.4431 61.5836 70.1373 61.6322 69.8309 61.6204C69.5245 61.6086 69.2234 61.5367 68.9448 61.4086L59.7522 57.1839C59.4733 57.056 59.2224 56.8745 59.0137 56.6498C58.8051 56.425 58.6428 56.1614 58.5362 55.8739C58.4297 55.5865 58.3808 55.2809 58.3926 54.9746C58.4043 54.6683 58.4764 54.3673 58.6046 54.0888C58.7329 53.8104 58.9148 53.5599 59.1401 53.3517C59.3653 53.1435 59.6294 52.9817 59.9173 52.8756C60.2051 52.7694 60.5111 52.721 60.8177 52.733C61.1244 52.745 61.4256 52.8173 61.7042 52.9458L70.8968 57.1705C71.1754 57.2986 71.426 57.4801 71.6344 57.7049C71.8427 57.9297 72.0047 58.1933 72.111 58.4806C72.2174 58.7679 72.266 59.0733 72.2542 59.3794C72.2424 59.6855 72.1704 59.9863 72.0422 60.2645Z" fill="#36393E"/>
<path d="M69.9948 84.2609C69.6881 84.2609 69.3845 84.2006 69.1012 84.0834C68.8179 83.9662 68.5604 83.7943 68.3436 83.5777C68.1268 83.3611 67.9548 83.104 67.8374 82.821C67.7201 82.538 67.6597 82.2347 67.6597 81.9283V71.8206C67.6604 71.2024 67.9068 70.6098 68.3446 70.173C68.7824 69.7362 69.376 69.4908 69.9948 69.4908C70.6136 69.4908 71.2071 69.7362 71.645 70.173C72.0828 70.6098 72.3292 71.2024 72.3299 71.8206V81.9283C72.3299 82.2347 72.2695 82.538 72.1522 82.821C72.0348 83.104 71.8628 83.3611 71.646 83.5777C71.4291 83.7943 71.1717 83.9662 70.8884 84.0834C70.6051 84.2006 70.3014 84.2609 69.9948 84.2609Z" fill="#36393E"/>
<path d="M98.0178 18.1711C98.1524 17.7961 98.1874 17.3927 98.1195 17.0002L96.8487 9.53196L95.5778 2.06371C95.5091 1.66048 95.3355 1.28239 95.0742 0.967452C94.813 0.652514 94.4733 0.411825 94.0894 0.269569C93.7055 0.127314 93.2909 0.0885038 92.8872 0.157048C92.4835 0.225592 92.105 0.399074 91.7897 0.660052L85.9504 5.4936L82.5617 8.29866C80.204 7.95277 77.8059 7.98889 75.4597 8.40562L71.9417 5.49359L66.1024 0.660041C65.7871 0.399063 65.4086 0.225582 65.005 0.157038C64.6013 0.088493 64.1867 0.127298 63.8028 0.269554C63.4189 0.41181 63.0792 0.652503 62.8179 0.967441C62.5567 1.28238 62.383 1.66047 62.3144 2.0637L61.0435 9.53196L59.7726 17.0002C59.7165 17.3195 59.7288 17.6471 59.8087 17.9613C59.8886 18.2755 60.0342 18.5693 60.2361 18.8232C58.1721 22.2324 57.0605 26.1318 57.017 30.1157C56.9734 34.0996 57.9996 38.0224 59.9886 41.4758C61.9776 44.9291 64.8568 47.7869 68.3265 49.7518C71.7963 51.7166 75.7297 52.7166 79.7177 52.6478C83.7056 52.579 87.6021 51.4438 91.0018 49.3604C94.4016 47.277 97.1802 44.3216 99.0486 40.8016C100.917 37.2816 101.807 33.3258 101.626 29.3458C101.444 25.3658 100.198 21.507 98.0178 18.1711Z" fill="#36393E"/>
<path d="M91.6422 3.98735L84.5611 9.84877C84.405 9.97797 84.2856 10.1462 84.2151 10.336C84.1447 10.5259 84.1254 10.7309 84.1594 10.9305C84.1934 11.1301 84.2793 11.3173 84.4087 11.4732C84.538 11.6291 84.7061 11.7482 84.8962 11.8186L93.5186 15.0138C93.7087 15.0842 93.9139 15.1034 94.1138 15.0695C94.3137 15.0356 94.5011 14.9497 94.6572 14.8205C94.8133 14.6913 94.9326 14.5233 95.0031 14.3335C95.0736 14.1436 95.0928 13.9386 95.0589 13.7389L93.5177 4.68224C93.4849 4.48214 93.3993 4.2944 93.2697 4.13829C93.1402 3.98218 92.9714 3.86334 92.7806 3.79399C92.6509 3.74556 92.5136 3.72066 92.3751 3.72046C92.1071 3.72096 91.8477 3.81541 91.6422 3.98735Z" fill="#E6E6E6"/>
<path d="M65.1117 3.79399C64.921 3.86334 64.7521 3.98218 64.6226 4.13829C64.4931 4.2944 64.4075 4.48214 64.3746 4.68224L62.8335 13.7389C62.7995 13.9386 62.8187 14.1436 62.8893 14.3335C62.9598 14.5233 63.0791 14.6913 63.2352 14.8205C63.3913 14.9497 63.5787 15.0356 63.7785 15.0695C63.9784 15.1034 64.1837 15.0842 64.3737 15.0138L72.9961 11.8186C73.1862 11.7482 73.3543 11.6291 73.4836 11.4732C73.613 11.3173 73.699 11.1301 73.7329 10.9305C73.7669 10.7309 73.7477 10.5259 73.6772 10.336C73.6067 10.1462 73.4874 9.97822 73.3314 9.84902L66.2501 3.98735C66.0446 3.81541 65.7853 3.72096 65.5172 3.72046C65.3787 3.72066 65.2414 3.74556 65.1117 3.79399Z" fill="#E6E6E6"/>
<path d="M79.3354 36.5728C81.0549 36.5728 82.4489 35.1804 82.4489 33.4628C82.4489 31.7451 81.0549 30.3527 79.3354 30.3527C77.6159 30.3527 76.2219 31.7451 76.2219 33.4628C76.2219 35.1804 77.6159 36.5728 79.3354 36.5728Z" fill="#E6E6E6"/>
<path d="M79.3354 32.6852C80.4818 32.6852 81.4111 32.3371 81.4111 31.9077C81.4111 31.4783 80.4818 31.1302 79.3354 31.1302C78.1891 31.1302 77.2598 31.4783 77.2598 31.9077C77.2598 32.3371 78.1891 32.6852 79.3354 32.6852Z" fill="#36393E"/>
<path d="M79.4651 40.2013C79.2777 40.2013 79.0921 40.1644 78.919 40.0928C78.7458 40.0211 78.5885 39.9162 78.456 39.7838C78.3235 39.6514 78.2184 39.4943 78.1467 39.3213C78.075 39.1484 78.0381 38.963 78.0381 38.7758V35.277H80.8921V38.7758C80.8921 38.963 80.8552 39.1484 80.7835 39.3213C80.7118 39.4943 80.6066 39.6514 80.4741 39.7838C80.3416 39.9162 80.1843 40.0211 80.0112 40.0928C79.838 40.1644 79.6525 40.2013 79.4651 40.2013Z" fill="#FE7575"/>
<path d="M79.1621 0C79.3118 0.310015 79.4571 0.623382 79.5937 0.943159C81.204 4.69436 81.747 8.81657 81.1631 12.8562C80.8709 12.4328 80.5639 11.9917 80.2517 11.5458C80.9204 7.66878 80.5444 3.68386 79.1621 0Z" fill="#36393E"/>
<path d="M76.8269 2.85089C76.9766 3.16091 77.1219 3.47427 77.2585 3.79405C78.8687 7.54525 79.4118 11.6675 78.8278 15.7071C78.5357 15.2837 78.2287 14.8426 77.9165 14.3967C78.5852 10.5197 78.2092 6.53475 76.8269 2.85089Z" fill="#36393E"/>
<path d="M69.6278 13.4647L69.9567 9.28577L70.2857 5.10687C70.3034 4.88124 70.3803 4.66425 70.5087 4.47771C70.637 4.29118 70.8122 4.14167 71.0167 4.04422C71.2212 3.94677 71.4478 3.9048 71.6736 3.92255C71.8995 3.94029 72.1168 4.01712 72.3035 4.1453L75.762 6.51933L78.2875 8.25291C78.4489 8.06413 78.6494 7.91255 78.8751 7.80861C79.1008 7.70468 79.3464 7.65086 79.5949 7.65086C79.8435 7.65086 80.089 7.70468 80.3147 7.80861C80.5404 7.91255 80.7409 8.06413 80.9023 8.25291L83.4278 6.51933L86.8864 4.1453C87.0731 4.01712 87.2903 3.94029 87.5162 3.92255C87.7421 3.9048 87.9687 3.94677 88.1732 4.04422C88.3777 4.14167 88.5529 4.29118 88.6812 4.47771C88.8095 4.66425 88.8864 4.88124 88.9042 5.10687L89.2331 9.28577L89.5621 13.4647C89.5799 13.6903 89.5378 13.9166 89.4403 14.1209C89.3427 14.3252 89.1931 14.5002 89.0063 14.6284C88.8196 14.7566 88.6024 14.8334 88.3765 14.8511C88.1506 14.8689 87.924 14.8269 87.7195 14.7295L83.932 12.9246L80.82 11.4416C80.6599 11.6037 80.4692 11.7323 80.2589 11.8202C80.0485 11.908 79.8229 11.9532 79.5949 11.9532C79.367 11.9532 79.1413 11.908 78.931 11.8202C78.7206 11.7323 78.5299 11.6037 78.3698 11.4416L75.2578 12.9246L71.4703 14.7295C71.2658 14.8269 71.0392 14.8689 70.8134 14.8512C70.5875 14.8334 70.3702 14.7566 70.1835 14.6284C69.9968 14.5002 69.8471 14.3252 69.7496 14.1209C69.652 13.9166 69.61 13.6903 69.6278 13.4647Z" fill="#7282FE"/>
<path d="M82.7083 30.0935C82.7083 30.5229 83.0567 30.0935 83.4866 30.0935C83.9165 30.0935 84.265 30.5229 84.265 30.0935C84.2646 29.8875 84.1824 29.6902 84.0364 29.5447C83.8905 29.3993 83.6928 29.3176 83.4866 29.3176C83.2805 29.3176 83.0827 29.3993 82.9368 29.5447C82.7909 29.6902 82.7087 29.8875 82.7083 30.0935Z" fill="#E6E6E6"/>
<path d="M75.9625 30.0935C75.9625 30.5229 75.614 30.0935 75.1841 30.0935C74.7542 30.0935 74.4058 30.5229 74.4058 30.0935C74.4062 29.8875 74.4884 29.6902 74.6343 29.5447C74.7802 29.3993 74.978 29.3176 75.1841 29.3176C75.3903 29.3176 75.588 29.3993 75.734 29.5447C75.8799 29.6902 75.9621 29.8875 75.9625 30.0935Z" fill="#E6E6E6"/>
<path d="M162.32 88.7989V83.8566H137.582V84.1657V88.7989V128.646V133.588H142.53H162.32V128.646H142.53V88.7989H162.32Z" fill="#36393E"/>
<path d="M174.38 83.8568V133.588H199.118V83.8568H174.38ZM194.171 128.646H179.328V88.799H194.171V128.646Z" fill="#7282FE"/>
<path d="M105.731 128.646V84.1657H100.784V128.646V133.588H105.731H125.522V128.646H105.731Z" fill="#7282FE"/>
<path d="M89.6516 88.7989V83.8566H64.9133V84.1657V88.7989V106.097V111.039V128.646V133.588H69.8611H89.6516V128.646H69.8611V111.039H89.6516V106.097H69.8611V88.7989H89.6516Z" fill="#36393E"/>
<path d="M283.229 88.7989V83.8566H258.49V84.1657V88.7989V106.097V111.039V128.646V133.588H263.438H283.229V128.646H263.438V111.039H283.229V106.097H263.438V88.7989H283.229Z" fill="#7282FE"/>
<path d="M48.215 84.1657V125.012L35.1697 111.982L35.14 112.012L35.1123 111.984L21.7761 125.306V84.0114H16.8284V133.434H21.7761V132.295L35.1423 118.943L48.215 132.002V133.588H53.1627V84.1657H48.215Z" fill="#36393E"/>
<path d="M242.101 84.1657V85.3043L228.735 98.656L215.662 85.5976V84.0114H210.714V133.434H215.662V92.5868L228.707 105.618L228.737 105.588L228.765 105.615L242.101 92.2936V133.588H247.049V84.1657H242.101Z" fill="#36393E"/>
<path d="M113.064 53.7205C114.741 53.7205 116.101 52.3624 116.101 50.687C116.101 49.0116 114.741 47.6534 113.064 47.6534C111.387 47.6534 110.027 49.0116 110.027 50.687C110.027 52.3624 111.387 53.7205 113.064 53.7205Z" fill="#7282FE"/>
<path d="M38.155 87.4266C39.8322 87.4266 41.1919 86.0684 41.1919 84.393C41.1919 82.7177 39.8322 81.3595 38.155 81.3595C36.4778 81.3595 35.1182 82.7177 35.1182 84.393C35.1182 86.0684 36.4778 87.4266 38.155 87.4266Z" fill="#7282FE"/>
<path d="M98.2173 154.839C99.8945 154.839 101.254 153.481 101.254 151.805C101.254 150.13 99.8945 148.772 98.2173 148.772C96.5401 148.772 95.1804 150.13 95.1804 151.805C95.1804 153.481 96.5401 154.839 98.2173 154.839Z" fill="#7282FE"/>
<path d="M174.476 62.8212C176.154 62.8212 177.513 61.463 177.513 59.7876C177.513 58.1123 176.154 56.7541 174.476 56.7541C172.799 56.7541 171.439 58.1123 171.439 59.7876C171.439 61.463 172.799 62.8212 174.476 62.8212Z" fill="#7282FE"/>
<path d="M263.895 152.142C265.572 152.142 266.932 150.784 266.932 149.109C266.932 147.433 265.572 146.075 263.895 146.075C262.218 146.075 260.858 147.433 260.858 149.109C260.858 150.784 262.218 152.142 263.895 152.142Z" fill="#7282FE"/>
<path d="M266.932 72.596C268.609 72.596 269.969 71.2378 269.969 69.5624C269.969 67.887 268.609 66.5289 266.932 66.5289C265.255 66.5289 263.895 67.887 263.895 69.5624C263.895 71.2378 265.255 72.596 266.932 72.596Z" fill="#7282FE"/>
<path d="M228.465 127.2C230.142 127.2 231.502 125.842 231.502 124.166C231.502 122.491 230.142 121.133 228.465 121.133C226.788 121.133 225.428 122.491 225.428 124.166C225.428 125.842 226.788 127.2 228.465 127.2Z" fill="#7282FE"/>
</g>
<defs>
<clipPath id="clip0_6196_15338">
<rect width="300" height="154.839" fill="white"/>
</clipPath>
</defs>
</svg>
