<svg width="147" height="34" viewBox="0 0 147 34" fill="none" xmlns="http://www.w3.org/2000/svg">
<g clip-path="url(#clip0_6045_12536)">
<path d="M26.8869 4.95829C26.7939 4.96024 26.7022 4.9805 26.617 5.0179C26.5318 5.0553 26.4548 5.10911 26.3904 5.17627C26.2604 5.3119 26.1895 5.49363 26.1935 5.68149C26.1974 5.86936 26.2758 6.04796 26.4115 6.178C26.5471 6.30805 26.7288 6.3789 26.9167 6.37495H28.0486L20.9511 13.4583H17C16.8778 13.4576 16.7574 13.4885 16.6507 13.5481C16.5439 13.6077 16.4544 13.6939 16.3909 13.7983L12.6084 20.1025L10.4125 17.9208C10.3493 17.8527 10.2725 17.7987 10.1871 17.7621C10.1017 17.7255 10.0096 17.7072 9.91669 17.7083H4.25002C4.06216 17.7083 3.88199 17.7829 3.74915 17.9158C3.61631 18.0486 3.54169 18.2288 3.54169 18.4166C3.54169 18.6045 3.61631 18.7846 3.74915 18.9175C3.88199 19.0503 4.06216 19.125 4.25002 19.125H9.61919L12.2542 21.7458C12.3174 21.8138 12.3942 21.8679 12.4796 21.9045C12.565 21.9411 12.6571 21.9594 12.75 21.9583H12.835C12.942 21.9435 13.0444 21.9054 13.1349 21.8466C13.2255 21.7879 13.3021 21.7099 13.3592 21.6183L17.3967 14.875H21.25C21.3429 14.8761 21.435 14.8578 21.5204 14.8212C21.6058 14.7846 21.6826 14.7305 21.7459 14.6625L29.0417 7.36662V8.49995C29.0417 8.68781 29.1163 8.86798 29.2492 9.00082C29.382 9.13366 29.5622 9.20829 29.75 9.20829C29.9379 9.20829 30.1181 9.13366 30.2509 9.00082C30.3837 8.86798 30.4584 8.68781 30.4584 8.49995V5.66662C30.4584 5.47876 30.3837 5.29859 30.2509 5.16575C30.1181 5.03291 29.9379 4.95829 29.75 4.95829H26.9167C26.9068 4.95808 26.8969 4.95808 26.8869 4.95829Z" fill="#7A45FF"/>
<path d="M25.5 13.4584C25.3122 13.4584 25.132 13.533 24.9992 13.6658C24.8663 13.7987 24.7917 13.9788 24.7917 14.1667V28.3334C24.7917 28.5212 24.8663 28.7014 24.9992 28.8342C25.132 28.9671 25.3122 29.0417 25.5 29.0417H29.75C29.9379 29.0417 30.1181 28.9671 30.2509 28.8342C30.3837 28.7014 30.4584 28.5212 30.4584 28.3334V14.1667C30.4584 13.9788 30.3837 13.7987 30.2509 13.6658C30.1181 13.533 29.9379 13.4584 29.75 13.4584H25.5Z" fill="#7A45FF"/>
<path d="M18.4166 16.2916C18.2288 16.2916 18.0486 16.3663 17.9158 16.4991C17.7829 16.6319 17.7083 16.8121 17.7083 17V28.3333C17.7083 28.5212 17.7829 28.7013 17.9158 28.8342C18.0486 28.967 18.2288 29.0416 18.4166 29.0416H22.6666C22.8545 29.0416 23.0347 28.967 23.1675 28.8342C23.3004 28.7013 23.375 28.5212 23.375 28.3333V17C23.375 16.8121 23.3004 16.6319 23.1675 16.4991C23.0347 16.3663 22.8545 16.2916 22.6666 16.2916H18.4166Z" fill="#7A45FF" fill-opacity="0.75"/>
<path d="M4.25002 20.5416C4.06216 20.5416 3.88199 20.6163 3.74915 20.7491C3.61631 20.8819 3.54169 21.0621 3.54169 21.25V28.3333C3.54169 28.5212 3.61631 28.7013 3.74915 28.8342C3.88199 28.967 4.06216 29.0416 4.25002 29.0416H8.50002C8.68788 29.0416 8.86805 28.967 9.00089 28.8342C9.13373 28.7013 9.20835 28.5212 9.20835 28.3333V21.25C9.20835 21.0621 9.13373 20.8819 9.00089 20.7491C8.86805 20.6163 8.68788 20.5416 8.50002 20.5416H4.25002Z" fill="#7A45FF" fill-opacity="0.25"/>
<path d="M11.3333 23.375C11.1455 23.375 10.9653 23.4496 10.8325 23.5825C10.6996 23.7153 10.625 23.8955 10.625 24.0833V28.3333C10.625 28.5212 10.6996 28.7014 10.8325 28.8342C10.9653 28.967 11.1455 29.0417 11.3333 29.0417H15.5833C15.7712 29.0417 15.9514 28.967 16.0842 28.8342C16.217 28.7014 16.2917 28.5212 16.2917 28.3333V24.0833C16.2917 23.8955 16.217 23.7153 16.0842 23.5825C15.9514 23.4496 15.7712 23.375 15.5833 23.375H11.3333Z" fill="#7A45FF" fill-opacity="0.5"/>
<path d="M55.1994 7.43404C57.9145 7.43404 60.0493 8.2736 61.6034 9.9528C63.1576 11.632 63.9346 13.9453 63.9346 16.8928C63.9346 19.9475 63.1531 22.3234 61.59 24.0203C60.027 25.7173 57.9325 26.5659 55.3065 26.5659H47V7.43404H55.1994ZM54.9314 23.0289C56.4498 23.0289 57.6289 22.5287 58.4684 21.5284C59.3079 20.528 59.7278 19.1079 59.7278 17.2679C59.7278 15.16 59.2767 13.5836 58.3746 12.5385C57.4725 11.4935 56.0836 10.971 54.2079 10.971H51.2069V23.0289H54.9314ZM73.4469 6.97852C75.787 6.97852 77.6493 7.51445 79.0338 8.58623C80.4183 9.65802 81.1104 11.1765 81.1104 13.1414H77.0375C76.9839 12.1768 76.6579 11.4533 76.0595 10.971C75.4611 10.4887 74.5366 10.2475 73.2862 10.2475C72.4108 10.2475 71.7053 10.4396 71.1693 10.8236C70.6334 11.2077 70.3655 11.7391 70.3655 12.418C70.3655 12.9717 70.5307 13.3737 70.8612 13.6238C71.1917 13.8738 71.6606 14.0971 72.268 14.2936C72.8753 14.4901 73.9382 14.7759 75.4566 15.1511C77.0464 15.5441 78.2701 15.9728 79.1275 16.4372C79.985 16.9017 80.637 17.4957 81.0836 18.2191C81.5302 18.9426 81.7535 19.8313 81.7535 20.8853C81.7535 22.1 81.4319 23.1807 80.7889 24.1275C80.1458 25.0743 79.2079 25.7932 77.9754 26.2845C76.7428 26.7758 75.3494 27.0214 73.7953 27.0214C71.4194 27.0214 69.4678 26.4274 67.9405 25.2395C66.4132 24.0516 65.6495 22.4214 65.6495 20.3494V20.2154H69.7224C69.7224 21.3408 70.1065 22.2116 70.8746 22.8279C71.6427 23.4442 72.661 23.7524 73.9293 23.7524C75.0547 23.7524 75.9612 23.5514 76.649 23.1495C77.3368 22.7475 77.6806 22.1535 77.6806 21.3676C77.6806 20.8495 77.493 20.4119 77.1179 20.0546C76.7428 19.6973 76.2426 19.4071 75.6174 19.1838C74.9922 18.9604 73.9382 18.6791 72.4555 18.3397C70.7406 17.911 69.4901 17.4555 68.7042 16.9731C67.9183 16.4908 67.3198 15.9058 66.9089 15.218C66.498 14.5303 66.2926 13.7041 66.2926 12.7395C66.2926 11.5426 66.6365 10.4976 67.3242 9.60443C68.012 8.71128 68.9096 8.0503 70.0171 7.62158C71.1247 7.19285 72.268 6.97852 73.4469 6.97852ZM93.7846 7.43404L100.939 26.5659H96.5713L95.1243 22.3054H87.97L86.4695 26.5659H82.209L89.4705 7.43404H93.7846ZM91.5606 12.15L89.0686 19.1704H94.0257L91.6141 12.15H91.5606ZM111.255 7.80917V26.5659H107.45V14.4008H102.734V11.5337H103.002C106.092 11.5337 107.834 10.2922 108.227 7.80917H111.255ZM126.073 6.97852C128.895 6.97852 131.169 7.91635 132.892 9.79202C134.616 11.6677 135.478 14.0972 135.478 17.0804C135.478 19.9922 134.612 22.377 132.879 24.2347C131.146 26.0924 128.878 27.0214 126.073 27.0214C123.251 27.0214 120.977 26.0925 119.253 24.2347C117.53 22.3769 116.668 19.9922 116.668 17.0804C116.668 14.1149 117.534 11.6899 119.267 9.80542C121 7.92091 123.268 6.97852 126.073 6.97852ZM120.875 17.0804C120.875 19.0096 121.33 20.5592 122.241 21.7293C123.152 22.8995 124.429 23.4844 126.073 23.4844C127.681 23.4844 128.949 22.9083 129.878 21.7561C130.807 20.6039 131.271 19.0453 131.271 17.0804C131.271 15.026 130.811 13.4182 129.891 12.2572C128.971 11.0962 127.69 10.5155 126.046 10.5155C124.438 10.5155 123.174 11.0961 122.255 12.2572C121.335 13.4183 120.875 15.026 120.875 17.0804ZM147 7.80917V26.5659H143.195V14.4008H138.479V11.5337H138.747C141.837 11.5337 143.579 10.2922 143.972 7.80917H147Z" fill="#061A40"/>
</g>
<defs>
<clipPath id="clip0_6045_12536">
<rect width="147" height="34" fill="white"/>
</clipPath>
</defs>
</svg>
