<svg width="34" height="34" viewBox="0 0 34 34" fill="none" xmlns="http://www.w3.org/2000/svg">
<path d="M26.8869 4.95833C26.7939 4.96029 26.7022 4.98054 26.617 5.01794C26.5318 5.05534 26.4548 5.10916 26.3904 5.17632C26.2604 5.31194 26.1895 5.49368 26.1935 5.68154C26.1974 5.8694 26.2758 6.048 26.4114 6.17805C26.5471 6.3081 26.7288 6.37894 26.9167 6.375H28.0486L20.9511 13.4583H17C16.8778 13.4576 16.7574 13.4886 16.6507 13.5481C16.5439 13.6077 16.4544 13.6939 16.3908 13.7983L12.6083 20.1025L10.4125 17.9208C10.3493 17.8528 10.2725 17.7987 10.1871 17.7621C10.1017 17.7255 10.0096 17.7072 9.91667 17.7083H4.25001C4.06214 17.7083 3.88198 17.783 3.74914 17.9158C3.6163 18.0486 3.54167 18.2288 3.54167 18.4167C3.54167 18.6045 3.6163 18.7847 3.74914 18.9175C3.88198 19.0504 4.06214 19.125 4.25001 19.125H9.61917L12.2542 21.7458C12.3174 21.8139 12.3942 21.8679 12.4796 21.9045C12.565 21.9411 12.6571 21.9595 12.75 21.9583H12.835C12.942 21.9435 13.0443 21.9054 13.1349 21.8467C13.2255 21.7879 13.3021 21.71 13.3592 21.6183L17.3967 14.875H21.25C21.3429 14.8761 21.435 14.8578 21.5204 14.8212C21.6058 14.7846 21.6826 14.7306 21.7458 14.6625L29.0417 7.36666V8.5C29.0417 8.68786 29.1163 8.86803 29.2491 9.00086C29.382 9.1337 29.5621 9.20833 29.75 9.20833C29.9379 9.20833 30.118 9.1337 30.2509 9.00086C30.3837 8.86803 30.4583 8.68786 30.4583 8.5V5.66667C30.4583 5.4788 30.3837 5.29864 30.2509 5.1658C30.118 5.03296 29.9379 4.95833 29.75 4.95833H26.9167C26.9068 4.95812 26.8968 4.95812 26.8869 4.95833Z" fill="#7A45FF"/>
<path d="M25.5 13.4583C25.3121 13.4583 25.132 13.533 24.9991 13.6658C24.8663 13.7986 24.7917 13.9788 24.7917 14.1667V28.3333C24.7917 28.5212 24.8663 28.7014 24.9991 28.8342C25.132 28.967 25.3121 29.0417 25.5 29.0417H29.75C29.9379 29.0417 30.118 28.967 30.2509 28.8342C30.3837 28.7014 30.4583 28.5212 30.4583 28.3333V14.1667C30.4583 13.9788 30.3837 13.7986 30.2509 13.6658C30.118 13.533 29.9379 13.4583 29.75 13.4583H25.5Z" fill="#7A45FF"/>
<path d="M18.4167 16.2917C18.2288 16.2917 18.0486 16.3663 17.9158 16.4991C17.783 16.632 17.7083 16.8121 17.7083 17V28.3333C17.7083 28.5212 17.783 28.7014 17.9158 28.8342C18.0486 28.967 18.2288 29.0417 18.4167 29.0417H22.6667C22.8545 29.0417 23.0347 28.967 23.1675 28.8342C23.3004 28.7014 23.375 28.5212 23.375 28.3333V17C23.375 16.8121 23.3004 16.632 23.1675 16.4991C23.0347 16.3663 22.8545 16.2917 22.6667 16.2917H18.4167Z" fill="#7A45FF" fill-opacity="0.75"/>
<path d="M4.25001 20.5417C4.06214 20.5417 3.88198 20.6163 3.74914 20.7491C3.6163 20.882 3.54167 21.0621 3.54167 21.25V28.3333C3.54167 28.5212 3.6163 28.7014 3.74914 28.8342C3.88198 28.967 4.06214 29.0417 4.25001 29.0417H8.50001C8.68787 29.0417 8.86803 28.967 9.00087 28.8342C9.13371 28.7014 9.20834 28.5212 9.20834 28.3333V21.25C9.20834 21.0621 9.13371 20.882 9.00087 20.7491C8.86803 20.6163 8.68787 20.5417 8.50001 20.5417H4.25001Z" fill="#7A45FF" fill-opacity="0.25"/>
<path d="M11.3333 23.375C11.1455 23.375 10.9653 23.4496 10.8325 23.5825C10.6996 23.7153 10.625 23.8955 10.625 24.0833V28.3333C10.625 28.5212 10.6996 28.7014 10.8325 28.8342C10.9653 28.967 11.1455 29.0417 11.3333 29.0417H15.5833C15.7712 29.0417 15.9514 28.967 16.0842 28.8342C16.217 28.7014 16.2917 28.5212 16.2917 28.3333V24.0833C16.2917 23.8955 16.217 23.7153 16.0842 23.5825C15.9514 23.4496 15.7712 23.375 15.5833 23.375H11.3333Z" fill="#7A45FF" fill-opacity="0.5"/>
</svg>
