<svg xmlns="http://www.w3.org/2000/svg" width="94" height="28" viewBox="0 0 94 28" fill="none">
<path fill-rule="evenodd" clip-rule="evenodd" d="M18.9241 0.6998C19.4568 1.25201 19.4568 2.14731 18.9241 2.69952L15.7965 5.94171L18.9241 9.1839C19.4568 9.73611 19.4568 10.6314 18.9241 11.1836L14.832 15.4257C14.2993 15.9779 13.4357 15.9779 12.903 15.4257C12.3703 14.8735 12.3703 13.9782 12.903 13.426L16.0306 10.1838L13.8675 7.94143L6.64789 15.4257C6.1152 15.9779 5.25155 15.9779 4.71887 15.4257L0.626807 11.1836C0.0941241 10.6314 0.0941241 9.73611 0.626807 9.1839L4.71887 4.94185C5.25155 4.38964 6.1152 4.38964 6.64789 4.94185C7.18057 5.49406 7.18057 6.38937 6.64789 6.94157L3.52033 10.1838L5.68338 12.4261L16.9951 0.6998C17.5277 0.147593 18.3914 0.147593 18.9241 0.6998Z" fill="#2A2747"/>
<path fill-rule="evenodd" clip-rule="evenodd" d="M18.9221 0.6998C19.4548 1.25201 19.4548 2.14731 18.9221 2.69952L15.7946 5.94171L18.9221 9.1839C19.4548 9.73611 19.4548 10.6314 18.9221 11.1836L14.8301 15.4257C14.2974 15.9779 13.4337 15.9779 12.901 15.4257C12.3684 14.8735 12.3684 13.9782 12.901 13.426L16.0286 10.1838L12.901 6.94157C12.3684 6.38937 12.3684 5.49406 12.901 4.94185L16.9931 0.6998C17.5258 0.147593 18.3894 0.147593 18.9221 0.6998Z" fill="url(#paint0_linear_1016_24048)"/>
<path fill-rule="evenodd" clip-rule="evenodd" d="M6.64789 4.9415C7.18057 5.49371 7.18057 6.38901 6.64789 6.94122L3.52033 10.1834L6.64789 13.4256C7.18057 13.9778 7.18057 14.8731 6.64789 15.4253C6.1152 15.9775 5.25155 15.9775 4.71887 15.4253L0.626807 11.1833C0.094124 10.6311 0.094124 9.73576 0.626807 9.18355L4.71887 4.9415C5.25155 4.38929 6.1152 4.38929 6.64789 4.9415Z" fill="url(#paint1_linear_1016_24048)"/>
<path d="M25.4916 13.9406C24.8259 13.9406 24.2198 13.7787 23.6732 13.455C23.1267 13.1312 22.6973 12.6861 22.385 12.1195C22.0768 11.5529 21.9227 10.9224 21.9227 10.2281C21.9227 9.5337 22.0768 8.90535 22.385 8.34304C22.6973 7.77647 23.1267 7.33343 23.6732 7.01393C24.2198 6.69018 24.828 6.5283 25.4978 6.5283C26.3361 6.5283 27.0614 6.77324 27.6737 7.26314C28.286 7.75304 28.6866 8.40481 28.8757 9.21846H27.4888C27.308 8.81377 27.0408 8.4964 26.6874 8.26636C26.334 8.03206 25.9354 7.91491 25.4916 7.91491C24.8793 7.91491 24.3677 8.13643 23.9568 8.57947C23.55 9.0225 23.3466 9.57204 23.3466 10.2281C23.3466 10.8841 23.552 11.4358 23.963 11.8831C24.3739 12.3304 24.8834 12.554 25.4916 12.554C25.9395 12.554 26.3361 12.4347 26.6813 12.1962C27.0306 11.9576 27.2977 11.6232 27.4826 11.193H28.8942C28.7051 12.0194 28.3004 12.6839 27.6798 13.1866C27.0593 13.6893 26.3299 13.9406 25.4916 13.9406Z" fill="#2A2747"/>
<path d="M35.2801 13.4614C34.7253 13.7809 34.1048 13.9406 33.4185 13.9406C32.7323 13.9406 32.1118 13.7809 31.557 13.4614C31.0022 13.1376 30.5667 12.6946 30.2502 12.1323C29.9338 11.5657 29.7756 10.9331 29.7756 10.2345C29.7756 9.53157 29.9338 8.89896 30.2502 8.33665C30.5667 7.77008 31.0022 7.32704 31.557 7.00754C32.1118 6.68805 32.7323 6.5283 33.4185 6.5283C34.1048 6.5283 34.7253 6.68805 35.2801 7.00754C35.8348 7.32704 36.2704 7.77008 36.5868 8.33665C36.9032 8.90322 37.0615 9.53583 37.0615 10.2345C37.0615 10.9331 36.9032 11.5657 36.5868 12.1323C36.2704 12.6946 35.8348 13.1376 35.2801 13.4614ZM31.8221 11.9022C32.2412 12.3368 32.7734 12.554 33.4185 12.554C34.0637 12.554 34.5938 12.3368 35.0088 11.9022C35.428 11.4677 35.6376 10.9118 35.6376 10.2345C35.6376 9.55713 35.428 9.0012 35.0088 8.56669C34.5938 8.13217 34.0637 7.91491 33.4185 7.91491C32.7734 7.91491 32.2412 8.13217 31.8221 8.56669C31.407 9.0012 31.1995 9.55713 31.1995 10.2345C31.1995 10.9118 31.407 11.4677 31.8221 11.9022Z" fill="#2A2747"/>
<path d="M43.848 4.17041H45.2473V13.7681H44.187L44.0083 12.9694C43.3549 13.6211 42.5536 13.947 41.6043 13.947C40.5811 13.947 39.7346 13.5934 39.0648 12.8863C38.3949 12.1791 38.06 11.2952 38.06 10.2345C38.06 9.16947 38.3929 8.28553 39.0586 7.58264C39.7284 6.87974 40.577 6.5283 41.6043 6.5283C42.4673 6.5283 43.2152 6.80306 43.848 7.3526V4.17041ZM40.1188 11.8958C40.538 12.3346 41.0681 12.554 41.7091 12.554C42.3502 12.554 42.8823 12.3325 43.3056 11.8895C43.733 11.4464 43.9466 10.8948 43.9466 10.2345C43.9466 9.57417 43.733 9.0225 43.3056 8.57947C42.8823 8.13643 42.3502 7.91491 41.7091 7.91491C41.0681 7.91491 40.538 8.13643 40.1188 8.57947C39.6997 9.01824 39.4901 9.56991 39.4901 10.2345C39.4901 10.899 39.6997 11.4528 40.1188 11.8958Z" fill="#2A2747"/>
<path d="M53.7289 10.2536C53.7289 10.3899 53.7186 10.5476 53.6981 10.7265H48.1628C48.2491 11.2973 48.4792 11.7489 48.8532 12.0812C49.2271 12.4134 49.6936 12.5796 50.2524 12.5796C50.6551 12.5796 51.0147 12.488 51.3311 12.3048C51.6517 12.1216 51.9023 11.8682 52.0831 11.5444H53.5625C53.2913 12.2899 52.8619 12.8756 52.2742 13.3016C51.6866 13.7276 51.0127 13.9406 50.2524 13.9406C49.258 13.9406 48.4258 13.587 47.756 12.8799C47.0862 12.1685 46.7513 11.2867 46.7513 10.2345C46.7513 9.54009 46.9033 8.90961 47.2074 8.34304C47.5115 7.77647 47.9307 7.33343 48.4649 7.01393C48.9991 6.69018 49.5949 6.5283 50.2524 6.5283C50.9305 6.5283 51.5366 6.69657 52.0708 7.0331C52.605 7.36538 53.0139 7.8148 53.2974 8.38138C53.5851 8.94369 53.7289 9.56778 53.7289 10.2536ZM50.2524 7.83823C49.7305 7.83823 49.2867 7.99159 48.921 8.29831C48.5553 8.60503 48.3149 9.0225 48.1998 9.55074H52.3235C52.1961 9.01398 51.9475 8.59438 51.5777 8.29192C51.212 7.98946 50.7702 7.83823 50.2524 7.83823Z" fill="#2A2747"/>
<path d="M57.9688 13.909C57.1921 13.909 56.5695 13.7194 56.1011 13.3403C55.6326 12.9569 55.3758 12.4329 55.3306 11.7684H55.9346C55.9798 12.2583 56.1833 12.6395 56.5449 12.9122C56.9106 13.1805 57.3914 13.3147 57.9873 13.3147C58.5831 13.3147 59.0618 13.1848 59.4235 12.9249C59.7851 12.6608 59.9659 12.3072 59.9659 11.8642C59.9659 11.7322 59.9515 11.6107 59.9228 11.5C59.894 11.385 59.8467 11.2849 59.781 11.1997C59.7193 11.1102 59.6536 11.0314 59.5837 10.9632C59.518 10.8951 59.4276 10.8354 59.3125 10.7843C59.2016 10.7289 59.1009 10.6821 59.0105 10.6437C58.9201 10.6054 58.8009 10.5692 58.653 10.5351C58.505 10.501 58.3797 10.4755 58.277 10.4584C58.1783 10.4371 58.0468 10.4116 57.8825 10.3817C57.7099 10.3519 57.5784 10.3285 57.488 10.3115C57.3976 10.2944 57.2702 10.2667 57.1058 10.2284C56.9414 10.19 56.814 10.156 56.7236 10.1261C56.6373 10.0921 56.5264 10.0473 56.3908 9.99196C56.2593 9.93232 56.1545 9.87268 56.0764 9.81304C56.0024 9.74914 55.9203 9.67246 55.8299 9.583C55.7394 9.49355 55.6716 9.3977 55.6264 9.29546C55.5812 9.18896 55.5422 9.06755 55.5093 8.93123C55.4764 8.79491 55.46 8.64794 55.46 8.49033C55.46 7.91523 55.6881 7.4509 56.1442 7.09732C56.6004 6.73948 57.1962 6.56057 57.9318 6.56057C58.6715 6.56057 59.2611 6.74374 59.7008 7.1101C60.1447 7.4722 60.3809 7.96848 60.4097 8.59895H59.818C59.7892 8.13888 59.6084 7.78104 59.2755 7.52545C58.9427 7.26985 58.4906 7.14205 57.9194 7.14205C57.3606 7.14205 56.9106 7.26559 56.5695 7.51267C56.2326 7.75548 56.0641 8.07711 56.0641 8.47755C56.0641 8.6309 56.0846 8.76935 56.1257 8.89289C56.1709 9.01217 56.2449 9.11654 56.3476 9.206C56.4504 9.2912 56.549 9.36149 56.6435 9.41687C56.738 9.47225 56.8777 9.5255 57.0627 9.57661C57.2476 9.62347 57.3976 9.65968 57.5126 9.68524C57.6277 9.70654 57.8003 9.73636 58.0304 9.7747C58.3509 9.83008 58.5954 9.87694 58.7639 9.91528C58.9365 9.94936 59.1564 10.0175 59.4235 10.1198C59.6947 10.222 59.9001 10.3391 60.0399 10.4712C60.1796 10.6033 60.3049 10.7864 60.4159 11.0207C60.5268 11.255 60.5823 11.5277 60.5823 11.8387C60.5823 12.4649 60.3419 12.9675 59.8611 13.3467C59.3844 13.7216 58.7536 13.909 57.9688 13.909Z" fill="#2A2747"/>
<path d="M64.8416 13.1678H65.5875V13.7684H64.7738C64.1081 13.7684 63.5821 13.5682 63.1958 13.1678C62.8137 12.7673 62.6226 12.2178 62.6226 11.5192V7.28902H61.4884V7.14205L63.1219 5.45511H63.2452V6.70114H65.532V7.28902H63.2452V11.5C63.2452 12.0325 63.3828 12.4436 63.6581 12.7332C63.9376 13.0229 64.3321 13.1678 64.8416 13.1678Z" fill="#2A2747"/>
<path d="M72.0474 13.0655C71.5214 13.6278 70.8125 13.909 69.9208 13.909C69.029 13.909 68.3181 13.6278 67.788 13.0655C67.262 12.4989 66.999 11.7428 66.999 10.7971V6.70114H67.6216V10.7076C67.6216 11.5042 67.8271 12.1347 68.238 12.5991C68.653 13.0591 69.214 13.2892 69.9208 13.2892C70.6317 13.2892 71.1926 13.0591 71.6035 12.5991C72.0145 12.1347 72.2199 11.5042 72.2199 10.7076V6.70114H72.8425V10.7971C72.8425 11.7428 72.5775 12.4989 72.0474 13.0655Z" fill="#2A2747"/>
<path d="M80.8989 4.19629H81.5153V13.7684H81.0221L80.9297 12.2923C80.6215 12.795 80.2126 13.1912 79.703 13.4809C79.1935 13.7663 78.6243 13.909 77.9956 13.909C77.334 13.909 76.7361 13.7492 76.2019 13.4297C75.6718 13.1102 75.2567 12.6715 74.9568 12.1134C74.6568 11.5511 74.5068 10.9249 74.5068 10.2348C74.5068 9.54466 74.6568 8.92058 74.9568 8.36253C75.2567 7.80021 75.6718 7.35931 76.2019 7.03981C76.7361 6.72031 77.334 6.56057 77.9956 6.56057C78.612 6.56057 79.1709 6.69901 79.6722 6.97591C80.1777 7.25281 80.5866 7.6362 80.8989 8.1261V4.19629ZM78.0388 13.2892C78.873 13.2892 79.5633 12.9995 80.1099 12.4201C80.6605 11.8408 80.9358 11.1123 80.9358 10.2348C80.9358 9.35723 80.6605 8.62877 80.1099 8.04942C79.5633 7.47007 78.873 7.18039 78.0388 7.18039C77.2087 7.18039 76.5163 7.4722 75.9615 8.05581C75.4108 8.63516 75.1355 9.36149 75.1355 10.2348C75.1355 11.1038 75.4108 11.8301 75.9615 12.4137C76.5163 12.9974 77.2087 13.2892 78.0388 13.2892Z" fill="#2A2747"/>
<path d="M83.8144 5.24424V4.33687H84.5911V5.24424H83.8144ZM83.8946 13.7684V6.70114H84.511V13.7684H83.8946Z" fill="#2A2747"/>
<path d="M89.8737 13.909C89.2038 13.909 88.5957 13.7514 88.0491 13.4361C87.5067 13.1166 87.0793 12.6779 86.767 12.1198C86.4588 11.5575 86.3047 10.9292 86.3047 10.2348C86.3047 9.17831 86.6437 8.30289 87.3218 7.60851C88.0039 6.90988 88.8545 6.56057 89.8737 6.56057C90.8928 6.56057 91.7414 6.90988 92.4194 7.60851C93.1015 8.30715 93.4426 9.18257 93.4426 10.2348C93.4426 11.287 93.1015 12.1624 92.4194 12.861C91.7414 13.5597 90.8928 13.909 89.8737 13.909ZM89.8737 13.2892C90.7202 13.2892 91.4208 12.9995 91.9756 12.4201C92.5345 11.8408 92.8139 11.1123 92.8139 10.2348C92.8139 9.35723 92.5345 8.62877 91.9756 8.04942C91.4208 7.47007 90.7202 7.18039 89.8737 7.18039C89.0271 7.18039 88.3244 7.47007 87.7656 8.04942C87.2108 8.62451 86.9334 9.35297 86.9334 10.2348C86.9334 11.1123 87.2129 11.8408 87.7717 12.4201C88.3306 12.9995 89.0312 13.2892 89.8737 13.2892Z" fill="#2A2747"/>
<path d="M38.1605 20.7349H39.0918C39.3323 20.7349 39.5192 20.7944 39.6526 20.9133C39.7881 21.0322 39.8559 21.196 39.8559 21.4046C39.8559 21.6133 39.7881 21.7782 39.6526 21.8993C39.517 22.0183 39.3301 22.0777 39.0918 22.0777H38.4294V23.1311H38.1605V20.7349ZM39.0689 21.8489C39.2416 21.8489 39.3716 21.8107 39.4591 21.7344C39.5465 21.6582 39.5902 21.5482 39.5902 21.4046C39.5902 21.261 39.5465 21.1522 39.4591 21.0782C39.3716 21.0019 39.2416 20.9638 39.0689 20.9638H38.4294V21.8489H39.0689Z" fill="black"/>
<path d="M41.6612 23.158C41.4447 23.158 41.2567 23.1086 41.0971 23.0099C40.9375 22.9112 40.814 22.7698 40.7266 22.5859C40.6413 22.3997 40.5987 22.182 40.5987 21.933C40.5987 21.6817 40.6413 21.4641 40.7266 21.2801C40.8118 21.0961 40.9343 20.9548 41.0939 20.8561C41.2534 20.7574 41.4425 20.708 41.6612 20.708C41.8798 20.708 42.0689 20.7574 42.2285 20.8561C42.388 20.9548 42.5105 21.0961 42.5957 21.2801C42.681 21.4641 42.7236 21.6806 42.7236 21.9296C42.7236 22.1809 42.6799 22.3985 42.5924 22.5825C42.5072 22.7665 42.3848 22.9089 42.2252 23.0099C42.0656 23.1086 41.8776 23.158 41.6612 23.158ZM41.6612 22.9224C41.9082 22.9224 42.1006 22.836 42.2383 22.6633C42.376 22.4905 42.4449 22.246 42.4449 21.9296C42.4449 21.6133 42.376 21.3699 42.2383 21.1993C42.1028 21.0288 41.9104 20.9436 41.6612 20.9436C41.4119 20.9436 41.2185 21.03 41.0807 21.2027C40.943 21.3732 40.8741 21.6155 40.8741 21.9296C40.8741 22.246 40.943 22.4905 41.0807 22.6633C41.2185 22.836 41.4119 22.9224 41.6612 22.9224Z" fill="black"/>
<path d="M46.8221 20.7349L46.0055 23.1311H45.776L45.1103 21.1691L44.4414 23.1311H44.2151L43.3953 20.7349H43.6708L44.3332 22.7373L45.0119 20.7349L45.2185 20.7383L45.8875 22.744L46.5564 20.7349H46.8221Z" fill="black"/>
<path d="M47.633 20.7349H49.1086V20.9638H47.8986V21.7984H49.0431V22.0306H47.8986V22.9022H49.1086V23.1311H47.633V20.7349Z" fill="black"/>
<path d="M51.8038 23.1311H51.5185L51.2299 22.3335C51.1949 22.2348 51.1457 22.1686 51.0823 22.1349C51.0211 22.1013 50.9337 22.0844 50.82 22.0844H50.2363V23.1311H49.9707V20.7349H50.8987C51.1501 20.7349 51.3425 20.7921 51.4759 20.9066C51.6114 21.021 51.6792 21.1859 51.6792 21.4013C51.6792 21.5583 51.6387 21.6907 51.5578 21.7984C51.4791 21.9038 51.3644 21.979 51.2135 22.0239C51.2813 22.0351 51.3392 22.0654 51.3873 22.1147C51.4354 22.1618 51.4759 22.2303 51.5086 22.32L51.8038 23.1311ZM50.8758 21.8556C51.2343 21.8556 51.4135 21.7053 51.4135 21.4046C51.4135 21.2566 51.3698 21.1466 51.2824 21.0748C51.1949 21.0008 51.0594 20.9638 50.8758 20.9638H50.2363V21.8556H50.8758Z" fill="black"/>
<path d="M52.6543 20.7349H54.1299V20.9638H52.9199V21.7984H54.0643V22.0306H52.9199V22.9022H54.1299V23.1311H52.6543V20.7349Z" fill="black"/>
<path d="M54.992 20.7349H55.7757C56.1495 20.7349 56.4381 20.8393 56.6414 21.0479C56.8469 21.2543 56.9496 21.5482 56.9496 21.9296C56.9496 22.3133 56.8469 22.6094 56.6414 22.8181C56.4381 23.0267 56.1495 23.1311 55.7757 23.1311H54.992V20.7349ZM55.7593 22.8955C56.061 22.8955 56.2872 22.8147 56.4381 22.6532C56.5911 22.4916 56.6676 22.2505 56.6676 21.9296C56.6676 21.2902 56.3648 20.9705 55.7593 20.9705H55.2608V22.8955H55.7593Z" fill="black"/>
<path d="M60.4381 21.8993C60.5715 21.9375 60.6753 22.007 60.7497 22.108C60.824 22.2067 60.8612 22.3301 60.8612 22.4782C60.8612 22.6868 60.7934 22.8484 60.6578 22.9628C60.5223 23.075 60.331 23.1311 60.084 23.1311H59.1133V20.7349H60.0512C60.2895 20.7349 60.4742 20.7899 60.6054 20.8998C60.7387 21.0075 60.8054 21.1612 60.8054 21.3609C60.8054 21.4888 60.7726 21.5998 60.707 21.6941C60.6436 21.786 60.554 21.8545 60.4381 21.8993ZM59.379 21.7984H60.0086C60.1835 21.7984 60.3157 21.7625 60.4054 21.6907C60.495 21.6189 60.5398 21.5134 60.5398 21.3743C60.5398 21.1006 60.3627 20.9638 60.0086 20.9638H59.379V21.7984ZM60.061 22.9022C60.2447 22.9022 60.3791 22.8674 60.4644 22.7979C60.5518 22.7261 60.5955 22.6173 60.5955 22.4715C60.5955 22.1775 60.4174 22.0306 60.061 22.0306H59.379V22.9022H60.061Z" fill="black"/>
<path d="M62.5499 22.1618V23.1311H62.281V22.1585L61.3628 20.7349H61.6776L62.4187 21.9128L63.1598 20.7349H63.4681L62.5499 22.1618Z" fill="black"/>
<path d="M75.2675 20.3456C75.0462 20.2189 74.8757 20.0403 74.7563 19.8094C74.6369 19.5786 74.5772 19.3115 74.5772 19.0083C74.5772 18.708 74.6369 18.443 74.7563 18.2136C74.8757 17.9842 75.046 17.8061 75.2675 17.6795C75.4888 17.5529 75.7484 17.4897 76.0463 17.4897C76.2341 17.4897 76.4159 17.5189 76.5916 17.5773C76.7673 17.6357 76.9089 17.7151 77.0162 17.8152L76.7867 18.37C76.5533 18.1949 76.3118 18.1071 76.0623 18.1071C75.8315 18.1071 75.6544 18.1829 75.5311 18.3345C75.4075 18.4862 75.3458 18.7107 75.3458 19.0083C75.3458 19.3087 75.4075 19.5354 75.5311 19.6884C75.6544 19.8413 75.8315 19.9178 76.0623 19.9178C76.3118 19.9178 76.5533 19.8302 76.7867 19.6549L77.0162 20.2097C76.9089 20.3098 76.7673 20.3892 76.5916 20.4475C76.4159 20.5059 76.2341 20.5351 76.0463 20.5351C75.7486 20.5355 75.489 20.4722 75.2675 20.3456Z" fill="#404041"/>
<path d="M78.1876 20.3499C77.9702 20.2261 77.8033 20.0487 77.6865 19.8179C77.5697 19.587 77.5114 19.3171 77.5114 19.0083C77.5114 18.6995 77.5702 18.4311 77.6884 18.2031C77.8064 17.9751 77.9736 17.7991 78.1896 17.6754C78.4055 17.5516 78.6597 17.4897 78.9522 17.4897C79.2447 17.4897 79.499 17.5516 79.7149 17.6754C79.9309 17.7991 80.0967 17.9751 80.2121 18.2031C80.3275 18.4313 80.3852 18.6995 80.3852 19.0083C80.3852 19.3171 80.3275 19.587 80.2121 19.8179C80.0967 20.0487 79.9311 20.2261 79.7149 20.3499C79.499 20.4737 79.2447 20.5355 78.9522 20.5355C78.6599 20.5355 78.4049 20.4737 78.1876 20.3499ZM79.4575 19.7011C79.5797 19.5426 79.6406 19.3117 79.6406 19.0085C79.6406 18.7082 79.5795 18.4794 79.4575 18.3221C79.3354 18.1651 79.167 18.0863 78.9524 18.0863C78.7377 18.0863 78.5701 18.1642 78.4493 18.3201C78.3286 18.4759 78.2683 18.7053 78.2683 19.0085C78.2683 19.3146 78.3286 19.5461 78.4493 19.7032C78.5701 19.8604 78.7377 19.939 78.9524 19.939C79.167 19.9387 79.3354 19.8596 79.4575 19.7011Z" fill="#404041"/>
<path d="M81.0693 17.5269H82.2405C82.557 17.5269 82.83 17.5861 83.0595 17.7043C83.2889 17.8225 83.4646 17.9929 83.5868 18.2153C83.7089 18.438 83.7698 18.7021 83.7698 19.008C83.7698 19.3168 83.7095 19.5832 83.5887 19.8071C83.468 20.031 83.2929 20.202 83.0634 20.3202C82.834 20.4384 82.5595 20.4976 82.2403 20.4976H81.0693V17.5269ZM82.1883 19.8718C82.4673 19.8718 82.6759 19.8003 82.8142 19.657C82.9524 19.5137 83.0214 19.2975 83.0214 19.0082C83.0214 18.438 82.7438 18.1528 82.1883 18.1528H81.826V19.8718H82.1883Z" fill="#404041"/>
<path d="M84.4542 17.5269H85.211V20.4976H84.4542V17.5269Z" fill="#404041"/>
<path d="M88.5313 17.5269V20.4976H87.9719L86.6718 18.8119V20.4976H85.9674V17.5269H86.5189L87.819 19.2041V17.5269H88.5313Z" fill="#404041"/>
<path d="M91.8357 18.8206V20.3102C91.6828 20.3826 91.5117 20.4383 91.3225 20.4771C91.1333 20.516 90.9394 20.5355 90.7409 20.5355C90.4296 20.5355 90.1593 20.4743 89.9298 20.352C89.7004 20.2296 89.5239 20.0537 89.4005 19.8242C89.277 19.5948 89.2153 19.3228 89.2153 19.0085C89.2153 18.7026 89.277 18.4348 89.4005 18.2053C89.5239 17.9759 89.6984 17.7993 89.9237 17.6754C90.1492 17.5516 90.4119 17.4897 90.7125 17.4897C90.9192 17.4897 91.1143 17.5175 91.2981 17.5732C91.482 17.6289 91.6315 17.7054 91.7469 17.8026L91.5095 18.3575C91.3781 18.2685 91.2513 18.2039 91.1292 18.1634C91.007 18.1231 90.8763 18.103 90.7367 18.103C90.4817 18.103 90.2919 18.1774 90.1672 18.3262C90.0425 18.4751 89.98 18.7024 89.98 19.0083C89.98 19.3255 90.045 19.5605 90.1751 19.7134C90.3052 19.8664 90.5057 19.9429 90.7768 19.9429C90.9029 19.9429 91.029 19.9289 91.1552 19.9011V19.3504H90.656V18.8204H91.8357V18.8206Z" fill="#404041"/>
<path d="M77.4361 21.729V24.9164H76.8359L75.441 23.1078V24.9164H74.6852V21.729H75.2768L76.6717 23.5286V21.729H77.4361Z" fill="#404041"/>
<path d="M78.3387 21.729H79.1505V24.9164H78.3387V21.729Z" fill="#404041"/>
<path d="M82.7997 21.729V24.9164H82.1994L80.8045 23.1078V24.9164H80.0488V21.729H80.6403L82.0352 23.5286V21.729H82.7997Z" fill="#404041"/>
<path d="M83.4344 25.0464C83.5784 25.0612 83.6835 25.0688 83.7498 25.0688C83.8792 25.0688 83.9657 25.0418 84.0089 24.9882C84.0522 24.9345 84.0738 24.8315 84.0738 24.6792V21.729H84.8856V24.6658C84.8856 25.0418 84.8123 25.3179 84.6653 25.4941C84.5186 25.6701 84.2665 25.7583 83.9096 25.7583C83.7684 25.7583 83.6101 25.7449 83.4344 25.718V25.0464Z" fill="#404041"/>
<path d="M87.861 24.2584H86.4962L86.2242 24.9164H85.4123L86.8504 21.729H87.4895L88.932 24.9164H88.133L87.861 24.2584ZM87.5976 23.6271L87.1788 22.6198L86.76 23.6271H87.5976Z" fill="#404041"/>
<path d="M89.8388 24.8626C89.6143 24.7999 89.4313 24.7148 89.2903 24.6075L89.5451 24.0122C89.6948 24.1106 89.8539 24.1861 90.0222 24.2383C90.1906 24.2905 90.3597 24.3166 90.5297 24.3166C90.7024 24.3166 90.8349 24.2919 90.9271 24.2428C91.0191 24.1935 91.0653 24.1242 91.0653 24.0346C91.0653 23.954 91.0235 23.8876 90.94 23.8354C90.8565 23.7831 90.6996 23.7318 90.4692 23.681C90.1783 23.6214 89.9524 23.5474 89.7912 23.4594C89.63 23.3714 89.5169 23.2676 89.4521 23.1483C89.3873 23.0289 89.3549 22.8842 89.3549 22.7142C89.3549 22.5201 89.4081 22.3447 89.5148 22.1881C89.6213 22.0315 89.771 21.9091 89.9639 21.8209C90.1567 21.733 90.377 21.689 90.6247 21.689C90.8464 21.689 91.0616 21.721 91.2704 21.7852C91.479 21.8493 91.6424 21.9336 91.7606 22.038L91.5101 22.6334C91.3747 22.5349 91.2323 22.4595 91.0826 22.4072C90.9328 22.355 90.7831 22.3289 90.6334 22.3289C90.4867 22.3289 90.3685 22.3581 90.2792 22.4163C90.19 22.4745 90.1454 22.5528 90.1454 22.6513C90.1454 22.7049 90.1612 22.7497 90.193 22.7855C90.2247 22.8213 90.2836 22.8564 90.3701 22.8908C90.4565 22.9251 90.586 22.9617 90.7587 23.0005C91.038 23.0632 91.2575 23.1387 91.4173 23.2267C91.5771 23.3146 91.69 23.4176 91.7562 23.5356C91.8224 23.6536 91.8556 23.7947 91.8556 23.9587C91.8556 24.2691 91.739 24.5131 91.5058 24.6908C91.2725 24.8684 90.9444 24.9572 90.5212 24.9572C90.2909 24.9566 90.0635 24.9251 89.8388 24.8626Z" fill="#404041"/>
<path d="M69.2966 19.4643H73.1375V17.5925H69.3027C68.6905 17.5551 68.0786 17.7233 67.5564 18.0592C67.1063 18.3764 66.7642 18.8243 66.5843 19.3469C66.3862 19.9628 66.2784 20.5974 66.2962 21.2318C66.2782 21.8664 66.3862 22.5195 66.5843 23.1167C66.7644 23.6393 67.1065 24.0872 67.5564 24.4044C68.0786 24.7403 68.6907 24.9083 69.3027 24.8711H73.1373V22.7917H69.2966C68.8097 22.7917 68.4671 22.6423 68.2507 22.3619C68.0343 22.0815 67.908 21.6703 67.908 21.128C67.908 20.0251 68.3588 19.4643 69.2966 19.4643Z" fill="url(#paint2_linear_1016_24048)"/>
<path fill-rule="evenodd" clip-rule="evenodd" d="M68.6257 20.8379L70.4261 21.1944C70.4261 21.1946 69.1056 22.6173 68.6257 20.8379Z" fill="#404041"/>
<path fill-rule="evenodd" clip-rule="evenodd" d="M72.8477 20.8438L71.1022 21.2191C71.1022 21.2193 72.6139 22.6271 72.8477 20.8438Z" fill="#404041"/>
<defs>
<linearGradient id="paint0_linear_1016_24048" x1="12.5015" y1="9.14289" x2="19.3227" y2="9.18443" gradientUnits="userSpaceOnUse">
<stop stop-color="#F6430F"/>
<stop offset="1" stop-color="#EE9F15"/>
</linearGradient>
<linearGradient id="paint1_linear_1016_24048" x1="0.227295" y1="10.969" x2="7.04824" y2="11.0261" gradientUnits="userSpaceOnUse">
<stop stop-color="#F6430F"/>
<stop offset="1" stop-color="#EE9F15"/>
</linearGradient>
<linearGradient id="paint2_linear_1016_24048" x1="66.2941" y1="21.232" x2="73.1374" y2="21.232" gradientUnits="userSpaceOnUse">
<stop stop-color="#ED722F"/>
<stop offset="0.2694" stop-color="#ED8225"/>
<stop offset="0.7101" stop-color="#EE9719"/>
<stop offset="1" stop-color="#EE9F14"/>
</linearGradient>
</defs>
</svg>