<svg width="15" height="13" viewBox="0 0 15 13" fill="none" xmlns="http://www.w3.org/2000/svg">
<path d="M8.98305 0.493774C8.78431 0.493827 8.5901 0.553147 8.42525 0.664153C8.26041 0.775159 8.13241 0.932805 8.05762 1.11694C7.98284 1.30107 7.96467 1.50332 8.00543 1.69784C8.0462 1.89235 8.14404 2.07029 8.28646 2.2089L11.5762 5.49866L1.01325 5.63106C0.880872 5.62919 0.749437 5.65364 0.626589 5.70301C0.50374 5.75237 0.391928 5.82566 0.29765 5.91862C0.203373 6.01157 0.128509 6.12234 0.0774115 6.24447C0.0263136 6.36661 0 6.49769 0 6.63008C0 6.76248 0.0263136 6.89356 0.0774115 7.0157C0.128509 7.13783 0.203373 7.2486 0.29765 7.34155C0.391928 7.43451 0.50374 7.5078 0.626589 7.55716C0.749437 7.60653 0.880872 7.63098 1.01325 7.62911L11.5762 7.49672L8.28646 10.7865C8.19058 10.8785 8.11403 10.9888 8.0613 11.1108C8.00857 11.2328 7.98071 11.3641 7.97935 11.497C7.978 11.6299 8.00318 11.7618 8.05342 11.8848C8.10366 12.0079 8.17795 12.1197 8.27194 12.2137C8.36593 12.3077 8.47772 12.382 8.60078 12.4322C8.72384 12.4824 8.85569 12.5076 8.9886 12.5063C9.12151 12.5049 9.25281 12.4771 9.37482 12.4243C9.49683 12.3716 9.60709 12.295 9.69915 12.1992L14.6065 7.29184C14.7285 7.19886 14.8274 7.07903 14.8957 6.94165C14.9639 6.80427 14.9996 6.65302 15 6.49963C15.0004 6.34623 14.9654 6.19481 14.8979 6.05709C14.8303 5.91938 14.7319 5.79907 14.6104 5.70549C14.6084 5.70418 14.6065 5.70288 14.6045 5.70159L9.69915 0.796214C9.60605 0.700513 9.49472 0.624442 9.37172 0.572496C9.24873 0.52055 9.11657 0.493782 8.98305 0.493774Z" fill="#F8FAFB"/>
</svg>
