<svg width="15" height="13" viewBox="0 0 15 13" fill="none" xmlns="http://www.w3.org/2000/svg">
<path d="M8.98305 0.590881C8.78431 0.590934 8.5901 0.650254 8.42525 0.76126C8.26041 0.872266 8.13241 1.02991 8.05762 1.21404C7.98284 1.39818 7.96467 1.60043 8.00543 1.79494C8.0462 1.98946 8.14404 2.16739 8.28646 2.30601L11.5762 5.59577L1.01325 5.72817C0.880872 5.72629 0.749437 5.75075 0.626589 5.80012C0.50374 5.84948 0.391928 5.92277 0.29765 6.01573C0.203373 6.10868 0.128509 6.21944 0.0774115 6.34158C0.0263136 6.46372 0 6.5948 0 6.72719C0 6.85959 0.0263136 6.99066 0.0774115 7.1128C0.128509 7.23494 0.203373 7.34571 0.29765 7.43866C0.391928 7.53161 0.50374 7.6049 0.626589 7.65427C0.749437 7.70363 0.880872 7.72809 1.01325 7.72622L11.5762 7.59382L8.28646 10.8836C8.19058 10.9756 8.11403 11.0859 8.0613 11.2079C8.00857 11.3299 7.98071 11.4612 7.97935 11.5941C7.978 11.727 8.00318 11.8589 8.05342 11.982C8.10366 12.105 8.17795 12.2168 8.27194 12.3108C8.36593 12.4048 8.47772 12.4791 8.60078 12.5293C8.72384 12.5796 8.85569 12.6047 8.9886 12.6034C9.12151 12.602 9.25281 12.5742 9.37482 12.5214C9.49683 12.4687 9.60709 12.3922 9.69915 12.2963L14.6065 7.38894C14.7285 7.29596 14.8274 7.17614 14.8957 7.03876C14.9639 6.90138 14.9996 6.75013 15 6.59673C15.0004 6.44334 14.9654 6.29191 14.8979 6.1542C14.8303 6.01649 14.7319 5.89618 14.6104 5.8026C14.6084 5.80129 14.6065 5.79999 14.6045 5.7987L9.69915 0.893321C9.60605 0.79762 9.49472 0.721549 9.37172 0.669603C9.24873 0.617657 9.11657 0.590889 8.98305 0.590881Z" fill="#7A45FF"/>
</svg>
