<svg width="15" height="13" viewBox="0 0 15 13" fill="none" xmlns="http://www.w3.org/2000/svg">
<path d="M6.01695 0.493774C6.21569 0.493827 6.4099 0.553147 6.57475 0.664153C6.73959 0.775159 6.86759 0.932805 6.94238 1.11694C7.01716 1.30107 7.03533 1.50332 6.99457 1.69784C6.9538 1.89235 6.85596 2.07029 6.71354 2.2089L3.42377 5.49866L13.9867 5.63106C14.1191 5.62919 14.2506 5.65364 14.3734 5.70301C14.4963 5.75237 14.6081 5.82566 14.7023 5.91862C14.7966 6.01157 14.8715 6.12234 14.9226 6.24447C14.9737 6.36661 15 6.49769 15 6.63008C15 6.76248 14.9737 6.89356 14.9226 7.0157C14.8715 7.13783 14.7966 7.2486 14.7023 7.34155C14.6081 7.43451 14.4963 7.5078 14.3734 7.55716C14.2506 7.60653 14.1191 7.63098 13.9867 7.62911L3.42377 7.49672L6.71354 10.7865C6.80942 10.8785 6.88597 10.9888 6.9387 11.1108C6.99143 11.2328 7.01929 11.3641 7.02065 11.497C7.022 11.6299 6.99682 11.7618 6.94658 11.8848C6.89634 12.0079 6.82205 12.1197 6.72806 12.2137C6.63407 12.3077 6.52228 12.382 6.39922 12.4322C6.27616 12.4824 6.14431 12.5076 6.0114 12.5063C5.87849 12.5049 5.74719 12.4771 5.62518 12.4243C5.50317 12.3716 5.39291 12.295 5.30085 12.1992L0.393522 7.29184C0.271517 7.19886 0.172559 7.07903 0.104317 6.94165C0.0360746 6.80427 0.00038147 6.65302 3.8147e-06 6.49963C-0.00037384 6.34623 0.0345755 6.19481 0.10214 6.05709C0.169705 5.91938 0.268073 5.79907 0.38962 5.70549C0.391566 5.70418 0.393517 5.70288 0.395473 5.70159L5.30085 0.796214C5.39395 0.700513 5.50528 0.624442 5.62828 0.572496C5.75127 0.52055 5.88343 0.493782 6.01695 0.493774Z" fill="black"/>
</svg>
