<svg width="26" height="33" viewBox="0 0 26 33" fill="none" xmlns="http://www.w3.org/2000/svg">
<path d="M1.85714 29.3333C1.85714 31.35 3.52857 33 5.57143 33H20.4286C22.4714 33 24.1429 31.35 24.1429 29.3333V11C24.1429 8.98333 22.4714 7.33333 20.4286 7.33333H5.57143C3.52857 7.33333 1.85714 8.98333 1.85714 11V29.3333ZM24.1429 1.83333H19.5L18.1814 0.531667C17.8471 0.201667 17.3643 0 16.8814 0H9.11857C8.63571 0 8.15286 0.201667 7.81857 0.531667L6.5 1.83333H1.85714C0.835714 1.83333 0 2.65833 0 3.66667C0 4.675 0.835714 5.5 1.85714 5.5H24.1429C25.1643 5.5 26 4.675 26 3.66667C26 2.65833 25.1643 1.83333 24.1429 1.83333Z" fill="white"/>
</svg>
