<svg width="27" height="27" viewBox="0 0 27 27" fill="none" xmlns="http://www.w3.org/2000/svg">
<g clip-path="url(#clip0_6045_12549)">
<path d="M13.1573 26.6699C20.3149 26.6699 26.1173 20.8675 26.1173 13.7099C26.1173 6.55227 20.3149 0.749878 13.1573 0.749878C5.99966 0.749878 0.197266 6.55227 0.197266 13.7099C0.197266 20.8675 5.99966 26.6699 13.1573 26.6699Z" fill="white"/>
<mask id="mask0_6045_12549" style="mask-type:luminance" maskUnits="userSpaceOnUse" x="4" y="5" width="18" height="18">
<path d="M21.399 12.4691H13.1609V15.8073H17.9028C17.4608 17.928 15.6122 19.1455 13.1609 19.1455C10.2675 19.1455 7.93669 16.8677 7.93669 14.04C7.93669 11.2124 10.2675 8.93457 13.1609 8.93457C14.4066 8.93457 15.5318 9.36658 16.4159 10.0735L18.9879 7.56002C17.4206 6.22475 15.4113 5.40002 13.1609 5.40002C8.25818 5.40002 4.31995 9.24875 4.31995 14.04C4.31995 18.8313 8.25818 22.68 13.1609 22.68C17.5813 22.68 21.5999 19.5382 21.5999 14.04C21.5999 13.5295 21.5196 12.9797 21.399 12.4691Z" fill="white"/>
</mask>
<g mask="url(#mask0_6045_12549)">
<path d="M3.51624 19.1455V8.93457L10.3479 14.04L3.51624 19.1455Z" fill="#FBBC05"/>
</g>
<mask id="mask1_6045_12549" style="mask-type:luminance" maskUnits="userSpaceOnUse" x="4" y="5" width="18" height="18">
<path d="M21.399 12.4691H13.1609V15.8073H17.9028C17.4608 17.928 15.6122 19.1455 13.1609 19.1455C10.2675 19.1455 7.93669 16.8677 7.93669 14.04C7.93669 11.2124 10.2675 8.93457 13.1609 8.93457C14.4066 8.93457 15.5318 9.36658 16.4159 10.0735L18.9879 7.56002C17.4206 6.22475 15.4113 5.40002 13.1609 5.40002C8.25818 5.40002 4.31995 9.24875 4.31995 14.04C4.31995 18.8313 8.25818 22.68 13.1609 22.68C17.5813 22.68 21.5999 19.5382 21.5999 14.04C21.5999 13.5295 21.5196 12.9797 21.399 12.4691Z" fill="white"/>
</mask>
<g mask="url(#mask1_6045_12549)">
<path d="M3.51624 8.9345L10.3479 14.04L13.1609 11.6443L22.8055 10.1127V4.6145H3.51624V8.9345Z" fill="#EA4335"/>
</g>
<mask id="mask2_6045_12549" style="mask-type:luminance" maskUnits="userSpaceOnUse" x="4" y="5" width="18" height="18">
<path d="M21.399 12.4691H13.1609V15.8073H17.9028C17.4608 17.928 15.6122 19.1455 13.1609 19.1455C10.2675 19.1455 7.93669 16.8677 7.93669 14.04C7.93669 11.2124 10.2675 8.93457 13.1609 8.93457C14.4066 8.93457 15.5318 9.36658 16.4159 10.0735L18.9879 7.56002C17.4206 6.22475 15.4113 5.40002 13.1609 5.40002C8.25818 5.40002 4.31995 9.24875 4.31995 14.04C4.31995 18.8313 8.25818 22.68 13.1609 22.68C17.5813 22.68 21.5999 19.5382 21.5999 14.04C21.5999 13.5295 21.5196 12.9797 21.399 12.4691Z" fill="white"/>
</mask>
<g mask="url(#mask2_6045_12549)">
<path d="M3.51624 19.1454L15.572 10.1127L18.7467 10.5054L22.8055 4.6145V23.4654H3.51624V19.1454Z" fill="#34A853"/>
</g>
<mask id="mask3_6045_12549" style="mask-type:luminance" maskUnits="userSpaceOnUse" x="4" y="5" width="18" height="18">
<path d="M21.399 12.4691H13.1609V15.8073H17.9028C17.4608 17.928 15.6122 19.1455 13.1609 19.1455C10.2675 19.1455 7.93669 16.8677 7.93669 14.04C7.93669 11.2124 10.2675 8.93457 13.1609 8.93457C14.4066 8.93457 15.5318 9.36658 16.4159 10.0735L18.9879 7.56002C17.4206 6.22475 15.4113 5.40002 13.1609 5.40002C8.25818 5.40002 4.31995 9.24875 4.31995 14.04C4.31995 18.8313 8.25818 22.68 13.1609 22.68C17.5813 22.68 21.5999 19.5382 21.5999 14.04C21.5999 13.5295 21.5196 12.9797 21.399 12.4691Z" fill="white"/>
</mask>
<g mask="url(#mask3_6045_12549)">
<path d="M22.8052 23.4655L10.3476 14.04L8.74011 12.8618L22.8052 8.93457V23.4655Z" fill="#4285F4"/>
</g>
</g>
<defs>
<clipPath id="clip0_6045_12549">
<rect width="27" height="27" fill="white"/>
</clipPath>
</defs>
</svg>
