<svg width="74" height="18" viewBox="0 0 74 18" fill="none" xmlns="http://www.w3.org/2000/svg">
<g clip-path="url(#clip0_5962_15387)">
<path d="M10.9072 13.4702C11.3101 13.0664 11.9623 13.0675 12.364 13.4726C12.7656 13.8777 12.7645 14.5334 12.3616 14.9372L10.5725 16.7302C8.92188 18.3844 6.23029 18.4084 4.55185 16.7859C4.54215 16.7766 3.79477 16.0411 1.32926 13.6146C-0.310993 12.0005 -0.474401 9.41754 1.06912 7.75886L3.94699 4.66614C5.47891 3.01976 8.30277 2.83981 10.0543 4.26144L12.6681 6.38303C13.1107 6.74231 13.1799 7.39435 12.8225 7.83938C12.4652 8.28442 11.8166 8.35393 11.374 7.99464L8.76022 5.87307C7.84421 5.12959 6.24184 5.2317 5.45142 6.08118L2.5735 9.17394C1.82208 9.98143 1.90438 11.2823 2.77033 12.1345C4.58081 13.9163 5.97613 15.2894 5.97774 15.291C6.85036 16.1345 8.26132 16.1219 9.11809 15.2632L10.9072 13.4702Z" fill="#FFA116"/>
<path fill-rule="evenodd" clip-rule="evenodd" d="M6.56083 11.6759C5.99194 11.6759 5.53076 11.2122 5.53076 10.6403C5.53076 10.0683 5.99194 9.60464 6.56083 9.60464H14.1576C14.7265 9.60464 15.1876 10.0683 15.1876 10.6403C15.1876 11.2122 14.7265 11.6759 14.1576 11.6759H6.56083Z" fill="#B3B3B3"/>
<path fill-rule="evenodd" clip-rule="evenodd" d="M7.98365 0.328111C8.3723 -0.0895655 9.02415 -0.111388 9.43958 0.279368C9.85501 0.670125 9.87671 1.32549 9.48806 1.74317L2.57354 9.17398C1.82209 9.9814 1.90438 11.2822 2.77028 12.1345L5.96351 15.2772C6.37005 15.6773 6.37701 16.3329 5.97905 16.7417C5.5811 17.1504 4.92894 17.1574 4.5224 16.7573L1.32916 13.6146C-0.310994 12.0003 -0.474401 9.41743 1.06919 7.75886L7.98365 0.328111Z" fill="black"/>
<path fill-rule="evenodd" clip-rule="evenodd" d="M21.3136 6.30532V13.1212C21.3136 13.383 21.4062 13.6068 21.5913 13.7926C21.7764 13.9785 21.9994 14.0714 22.2603 14.0714H24.0969C24.2568 14.0714 24.3936 14.1284 24.5072 14.2424C24.6208 14.3564 24.6776 14.4937 24.6776 14.6541V14.6668C24.6776 14.8273 24.6208 14.9624 24.5072 15.0722C24.3936 15.1862 24.2568 15.2432 24.0969 15.2432H22.2603C21.6755 15.2432 21.1769 15.0363 20.7645 14.6225C20.3522 14.2086 20.146 13.7082 20.146 13.1212V6.30532C20.146 6.14484 20.2028 6.0076 20.3164 5.89358C20.43 5.78378 20.5647 5.72888 20.7203 5.72888H20.7393C20.895 5.72888 21.0296 5.78378 21.1432 5.89358C21.2568 6.0076 21.3136 6.14484 21.3136 6.30532ZM28.6285 9.51055C27.9974 9.51055 27.4588 9.73437 27.0128 10.182C26.571 10.6296 26.3501 11.1702 26.3501 11.8036C26.3501 11.9176 26.3585 12.0296 26.3754 12.1394L30.3705 10.3277C29.9161 9.78293 29.3354 9.51055 28.6285 9.51055ZM31.759 10.3467C31.8263 10.4903 31.8326 10.6381 31.7779 10.7901C31.7232 10.9379 31.6222 11.0456 31.475 11.1132C30.8859 11.3792 30.1117 11.7297 29.1524 12.1647C27.9616 12.7052 27.1895 13.0557 26.8361 13.2162C27.2905 13.799 27.888 14.0904 28.6285 14.0904C29.1208 14.0904 29.5668 13.9447 29.9665 13.6533C30.3536 13.3703 30.625 13.003 30.7807 12.5511C30.8733 12.2893 31.0584 12.1584 31.3361 12.1584C31.5339 12.1584 31.6917 12.2407 31.8095 12.4054C31.9231 12.5659 31.9462 12.7411 31.8789 12.9312C31.6433 13.6153 31.2309 14.1685 30.6419 14.5908C30.0402 15.0258 29.3691 15.2432 28.6285 15.2432C27.6776 15.2432 26.8655 14.9054 26.1923 14.2297C25.5191 13.554 25.1825 12.739 25.1825 11.7846C25.1825 10.8302 25.5191 10.0152 26.1923 9.33952C26.8655 8.66384 27.6776 8.32601 28.6285 8.32601C29.3144 8.32601 29.9413 8.51393 30.5093 8.88978C31.0689 9.25718 31.4855 9.74281 31.759 10.3467ZM36.3095 9.51055C35.6784 9.51055 35.1398 9.73437 34.6938 10.182C34.252 10.6296 34.0311 11.1702 34.0311 11.8036C34.0311 11.9176 34.0395 12.0296 34.0563 12.1394L38.0515 10.3277C37.597 9.78293 37.0164 9.51055 36.3095 9.51055ZM39.44 10.3467C39.5073 10.4903 39.5136 10.6381 39.4589 10.7901C39.4042 10.9379 39.3032 11.0456 39.156 11.1132C38.5669 11.3792 37.7927 11.7297 36.8334 12.1647C35.6426 12.7052 34.8705 13.0557 34.5171 13.2162C34.9715 13.799 35.569 14.0904 36.3095 14.0904C36.8018 14.0904 37.2478 13.9447 37.6475 13.6533C38.0346 13.3703 38.306 13.003 38.4617 12.5511C38.5543 12.2893 38.7394 12.1584 39.0171 12.1584C39.2149 12.1584 39.3726 12.2407 39.4905 12.4054C39.6041 12.5659 39.6272 12.7411 39.5599 12.9312C39.3243 13.6153 38.9119 14.1685 38.3229 14.5908C37.7212 15.0258 37.0501 15.2432 36.3095 15.2432C35.3586 15.2432 34.5465 14.9054 33.8733 14.2297C33.2001 13.554 32.8635 12.739 32.8635 11.7846C32.8635 10.8302 33.2001 10.0152 33.8733 9.33952C34.5465 8.66384 35.3586 8.32601 36.3095 8.32601C36.9954 8.32601 37.6223 8.51393 38.1903 8.88978C38.7499 9.25718 39.1665 9.74281 39.44 10.3467ZM41.3271 5.72888C41.4828 5.72888 41.6174 5.78378 41.731 5.89358C41.8446 6.0076 41.9014 6.14484 41.9014 6.30532V8.32601H43.0375C43.1932 8.32601 43.3278 8.38302 43.4414 8.49704C43.555 8.61106 43.6118 8.74831 43.6118 8.90878V8.92145C43.6118 9.08192 43.555 9.21706 43.4414 9.32685C43.3278 9.44088 43.1932 9.49788 43.0375 9.49788H41.9014V13.4443C41.9014 13.6174 41.9624 13.7652 42.0844 13.8877C42.2065 14.0101 42.3558 14.0714 42.5326 14.0714H43.0375C43.1932 14.0714 43.3278 14.1284 43.4414 14.2424C43.555 14.3564 43.6118 14.4937 43.6118 14.6541V14.6668C43.6118 14.8273 43.555 14.9624 43.4414 15.0722C43.3278 15.1862 43.1932 15.2432 43.0375 15.2432H42.5326C42.0361 15.2432 41.6111 15.068 41.2577 14.7175C40.9084 14.3627 40.7338 13.9383 40.7338 13.4443V6.30532C40.7338 6.14484 40.7906 6.0076 40.9042 5.89358C41.0178 5.78378 41.1525 5.72888 41.3081 5.72888H41.3271ZM49.0775 5.72888C49.4772 5.72888 49.8706 5.77745 50.2577 5.87457C50.548 5.95059 50.6932 6.1364 50.6932 6.43201V6.45101C50.6932 6.63682 50.6175 6.78885 50.466 6.90709C50.3187 7.02111 50.1546 7.0549 49.9737 7.00844C49.6792 6.93243 49.3804 6.89442 49.0775 6.89442C48.0929 6.89442 47.2514 7.24493 46.5529 7.94594C45.8545 8.64696 45.5052 9.49366 45.5052 10.4861C45.5052 11.4785 45.8545 12.3252 46.5529 13.0262C47.2514 13.723 48.0929 14.0714 49.0775 14.0714C49.3804 14.0714 49.6792 14.0355 49.9737 13.9637C50.1546 13.9172 50.3187 13.951 50.466 14.065C50.6175 14.1791 50.6932 14.3311 50.6932 14.5211V14.5338C50.6932 14.8336 50.548 15.0215 50.2577 15.0975C49.8706 15.1947 49.4772 15.2432 49.0775 15.2432C47.7689 15.2432 46.6518 14.7787 45.7261 13.8497C44.8005 12.9206 44.3376 11.7994 44.3376 10.4861C44.3376 9.17271 44.8005 8.05152 45.7261 7.12246C46.6518 6.1934 47.7689 5.72888 49.0775 5.72888ZM54.9597 9.51055C54.3286 9.51055 53.79 9.73437 53.344 10.182C52.9022 10.6296 52.6813 11.1702 52.6813 11.8036C52.6813 12.4329 52.9022 12.9713 53.344 13.4189C53.79 13.8666 54.3286 14.0904 54.9597 14.0904C55.5909 14.0904 56.1273 13.8666 56.5691 13.4189C57.0151 12.9713 57.2381 12.4329 57.2381 11.8036C57.2381 11.1702 57.0151 10.6296 56.5691 10.182C56.1273 9.73437 55.5909 9.51055 54.9597 9.51055ZM54.9597 8.32601C55.9106 8.32601 56.7227 8.66384 57.3959 9.33952C58.0691 10.0152 58.4058 10.8302 58.4058 11.7846C58.4058 12.739 58.0691 13.554 57.3959 14.2297C56.7227 14.9054 55.9106 15.2432 54.9597 15.2432C54.0088 15.2432 53.1967 14.9054 52.5235 14.2297C51.8503 13.554 51.5137 12.739 51.5137 11.7846C51.5137 10.8302 51.8503 10.0152 52.5235 9.33952C53.1967 8.66384 54.0088 8.32601 54.9597 8.32601ZM62.7354 9.51055C62.1042 9.51055 61.5657 9.73437 61.1197 10.182C60.6779 10.6296 60.457 11.1702 60.457 11.8036C60.457 12.4329 60.6779 12.9713 61.1197 13.4189C61.5657 13.8666 62.1042 14.0904 62.7354 14.0904C63.3665 14.0904 63.903 13.8666 64.3448 13.4189C64.7908 12.9713 65.0138 12.4329 65.0138 11.8036C65.0138 11.1702 64.7908 10.6296 64.3448 10.182C63.903 9.73437 63.3665 9.51055 62.7354 9.51055ZM65.6071 5.72888C65.7627 5.72888 65.8974 5.78378 66.011 5.89358C66.1246 6.0076 66.1814 6.14484 66.1814 6.30532V11.8036C66.1772 12.7538 65.8385 13.5646 65.1653 14.2361C64.492 14.9075 63.6821 15.2432 62.7354 15.2432C61.7845 15.2432 60.9724 14.9054 60.2992 14.2297C59.626 13.554 59.2893 12.739 59.2893 11.7846C59.2893 10.8302 59.626 10.0152 60.2992 9.33952C60.9724 8.66384 61.7845 8.32601 62.7354 8.32601C63.6021 8.32601 64.3616 8.61528 65.0138 9.19383V6.30532C65.0138 6.14484 65.0706 6.0076 65.1842 5.89358C65.2978 5.78378 65.4324 5.72888 65.5881 5.72888H65.6071ZM70.7004 9.51055C70.0692 9.51055 69.5307 9.73437 69.0847 10.182C68.6429 10.6296 68.422 11.1702 68.422 11.8036C68.422 11.9176 68.4304 12.0296 68.4472 12.1394L72.4423 10.3277C71.9879 9.78293 71.4073 9.51055 70.7004 9.51055ZM73.8308 10.3467C73.8982 10.4903 73.9045 10.6381 73.8498 10.7901C73.7951 10.9379 73.6941 11.0456 73.5468 11.1132C72.9577 11.3792 72.1836 11.7297 71.2242 12.1647C70.0335 12.7052 69.2614 13.0557 68.9079 13.2162C69.3624 13.799 69.9598 14.0904 70.7004 14.0904C71.1927 14.0904 71.6387 13.9447 72.0384 13.6533C72.4255 13.3703 72.6969 13.003 72.8526 12.5511C72.9451 12.2893 73.1303 12.1584 73.408 12.1584C73.6057 12.1584 73.7635 12.2407 73.8813 12.4054C73.9949 12.5659 74.0181 12.7411 73.9507 12.9312C73.7151 13.6153 73.3028 14.1685 72.7137 14.5908C72.112 15.0258 71.4409 15.2432 70.7004 15.2432C69.7495 15.2432 68.9374 14.9054 68.2642 14.2297C67.591 13.554 67.2543 12.739 67.2543 11.7846C67.2543 10.8302 67.591 10.0152 68.2642 9.33952C68.9374 8.66384 69.7495 8.32601 70.7004 8.32601C71.3862 8.32601 72.0131 8.51393 72.5812 8.88978C73.1408 9.25718 73.5573 9.74281 73.8308 10.3467Z" fill="black"/>
</g>
<defs>
<clipPath id="clip0_5962_15387">
<rect width="74" height="18" fill="white"/>
</clipPath>
</defs>
</svg>
