<svg width="32" height="32" viewBox="0 0 32 32" fill="none" xmlns="http://www.w3.org/2000/svg">
<path d="M25.9378 1.04889C25.2622 0.373333 24.3556 0 23.4133 0H3.55556C1.58222 0 0 1.6 0 3.55556V28.4444C0 30.4 1.6 32 3.55556 32H28.4444C30.4 32 32 30.4 32 28.4444V8.58667C32 7.64444 31.6267 6.73778 30.9511 6.08L25.9378 1.04889ZM16 28.4444C13.0489 28.4444 10.6667 26.0622 10.6667 23.1111C10.6667 20.16 13.0489 17.7778 16 17.7778C18.9511 17.7778 21.3333 20.16 21.3333 23.1111C21.3333 26.0622 18.9511 28.4444 16 28.4444ZM17.7778 10.6667H7.11111C5.15556 10.6667 3.55556 9.06667 3.55556 7.11111C3.55556 5.15556 5.15556 3.55556 7.11111 3.55556H17.7778C19.7333 3.55556 21.3333 5.15556 21.3333 7.11111C21.3333 9.06667 19.7333 10.6667 17.7778 10.6667Z" fill="white"/>
</svg>
