<svg width="28" height="28" viewBox="0 0 28 28" fill="none" xmlns="http://www.w3.org/2000/svg">
<path d="M23.133 0C22.5359 0 21.9388 0.228012 21.4832 0.683599L19.8335 2.33335L25.6669 8.16673L27.3166 6.51698C28.2278 5.6058 28.2278 4.12865 27.3166 3.21747L24.7827 0.683599C24.3272 0.228012 23.73 0 23.133 0ZM17.5001 4.6667L3.50003 18.6668L5.25005 19.2501L5.83338 22.1668L8.75007 22.7502L9.33341 24.5002L23.3335 10.5001L17.5001 4.6667ZM1.34442 23.5112L0.0433011 27.1936C0.0143559 27.2644 -0.000355213 27.3403 6.51208e-06 27.4169C6.51208e-06 27.5716 0.0614653 27.72 0.170862 27.8294C0.280259 27.9388 0.428633 28.0002 0.583344 28.0002C0.655775 28.0006 0.727639 27.9874 0.79526 27.9615L4.48897 26.6558L1.34442 23.5112Z" fill="white"/>
</svg>
