<svg width="27" height="36" viewBox="0 0 27 36" fill="none" xmlns="http://www.w3.org/2000/svg">
<path d="M13.5 0C11.2792 0 9.45 1.80665 9.45 4H6.75H4.05C1.82929 4 0 5.80671 0 8V32C0 34.1933 1.82929 36 4.05 36H22.95C25.1707 36 27 34.1933 27 32V8C27 5.80671 25.1707 4 22.95 4H20.25H17.55C17.55 1.80665 15.7208 0 13.5 0ZM13.5 2.66667C14.2616 2.66667 14.85 3.24783 14.85 4C14.85 4.75217 14.2616 5.33333 13.5 5.33333C12.7384 5.33333 12.15 4.75217 12.15 4C12.15 3.24783 12.7384 2.66667 13.5 2.66667ZM4.05 6.66667H6.75C6.75 8.14 7.95825 9.33333 9.45 9.33333H17.55C19.0417 9.33333 20.25 8.14 20.25 6.66667H22.95C23.7128 6.66667 24.3 7.24663 24.3 8V32C24.3 32.7534 23.7128 33.3333 22.95 33.3333H4.05C3.28721 33.3333 2.7 32.7534 2.7 32V8C2.7 7.24663 3.28721 6.66667 4.05 6.66667ZM18.9211 13.3333C18.4898 13.3337 18.0587 13.4976 17.7293 13.8229L16.5375 15L19.9125 18.3333L21.1043 17.1563C21.7631 16.5056 21.7671 15.4527 21.1069 14.8021L20.1129 13.8203C19.7835 13.495 19.3524 13.333 18.9211 13.3333ZM14.85 16.6667L7.27998 24.1432L8.35313 24.75L8.775 26L10.0406 26.4167L10.655 27.4766L18.225 20L14.85 16.6667ZM6.15146 26.7422L5.43164 28.7578C5.41066 28.8082 5.39991 28.8622 5.4 28.9167C5.39991 28.9714 5.41076 29.0256 5.43193 29.0762C5.4531 29.1268 5.48417 29.1728 5.52337 29.2115C5.56256 29.2502 5.6091 29.2809 5.66033 29.3018C5.71155 29.3227 5.76645 29.3334 5.82188 29.3333C5.87332 29.3329 5.92426 29.3232 5.97217 29.3047H5.9748H5.97744L8.02354 28.5911L6.15146 26.7422Z" fill="#7282FE"/>
</svg>
