<svg width="32" height="32" viewBox="0 0 32 32" fill="none" xmlns="http://www.w3.org/2000/svg">
<rect width="32" height="32" rx="3" fill="#FEFCFF"/>
<path d="M24.1422 6.08332C24.0656 6.08493 23.99 6.10161 23.9199 6.13241C23.8497 6.16321 23.7863 6.20753 23.7333 6.26284C23.6262 6.37453 23.5678 6.52419 23.5711 6.6789C23.5743 6.83361 23.6389 6.9807 23.7506 7.08779C23.8623 7.19489 24.0119 7.25324 24.1667 7.24999H25.0988L19.2538 13.0833H16C15.8993 13.0827 15.8002 13.1082 15.7123 13.1573C15.6244 13.2063 15.5507 13.2773 15.4983 13.3633L12.3833 18.555L10.575 16.7583C10.5229 16.7023 10.4597 16.6578 10.3893 16.6276C10.319 16.5975 10.2432 16.5824 10.1667 16.5833H5.49999C5.34528 16.5833 5.19691 16.6448 5.08751 16.7542C4.97811 16.8636 4.91666 17.0119 4.91666 17.1667C4.91666 17.3214 4.97811 17.4697 5.08751 17.5791C5.19691 17.6885 5.34528 17.75 5.49999 17.75H9.92166L12.0917 19.9083C12.1437 19.9644 12.207 20.0089 12.2773 20.039C12.3476 20.0692 12.4235 20.0843 12.5 20.0833H12.57C12.6581 20.0711 12.7424 20.0397 12.817 19.9913C12.8916 19.943 12.9546 19.8788 13.0017 19.8033L16.3267 14.25H19.5C19.5765 14.2509 19.6523 14.2358 19.7227 14.2057C19.793 14.1756 19.8562 14.131 19.9083 14.075L25.9167 8.06665V8.99999C25.9167 9.1547 25.9781 9.30307 26.0875 9.41246C26.1969 9.52186 26.3453 9.58332 26.5 9.58332C26.6547 9.58332 26.8031 9.52186 26.9125 9.41246C27.0219 9.30307 27.0833 9.1547 27.0833 8.99999V6.66665C27.0833 6.51194 27.0219 6.36357 26.9125 6.25417C26.8031 6.14478 26.6547 6.08332 26.5 6.08332H24.1667C24.1585 6.08315 24.1503 6.08315 24.1422 6.08332Z" fill="#7A45FF"/>
<path d="M23 13.0833C22.8453 13.0833 22.6969 13.1448 22.5875 13.2542C22.4781 13.3636 22.4167 13.5119 22.4167 13.6666V25.3333C22.4167 25.488 22.4781 25.6364 22.5875 25.7458C22.6969 25.8552 22.8453 25.9166 23 25.9166H26.5C26.6547 25.9166 26.8031 25.8552 26.9125 25.7458C27.0219 25.6364 27.0833 25.488 27.0833 25.3333V13.6666C27.0833 13.5119 27.0219 13.3636 26.9125 13.2542C26.8031 13.1448 26.6547 13.0833 26.5 13.0833H23Z" fill="#7A45FF"/>
<path d="M17.1667 15.4167C17.012 15.4167 16.8636 15.4781 16.7542 15.5875C16.6448 15.6969 16.5833 15.8453 16.5833 16V25.3334C16.5833 25.4881 16.6448 25.6364 16.7542 25.7458C16.8636 25.8552 17.012 25.9167 17.1667 25.9167H20.6667C20.8214 25.9167 20.9698 25.8552 21.0792 25.7458C21.1886 25.6364 21.25 25.4881 21.25 25.3334V16C21.25 15.8453 21.1886 15.6969 21.0792 15.5875C20.9698 15.4781 20.8214 15.4167 20.6667 15.4167H17.1667Z" fill="#7A45FF" fill-opacity="0.75"/>
<path d="M5.49999 18.9167C5.34528 18.9167 5.19691 18.9781 5.08751 19.0875C4.97811 19.1969 4.91666 19.3453 4.91666 19.5V25.3334C4.91666 25.4881 4.97811 25.6364 5.08751 25.7458C5.19691 25.8552 5.34528 25.9167 5.49999 25.9167H8.99999C9.1547 25.9167 9.30307 25.8552 9.41247 25.7458C9.52187 25.6364 9.58332 25.4881 9.58332 25.3334V19.5C9.58332 19.3453 9.52187 19.1969 9.41247 19.0875C9.30307 18.9781 9.1547 18.9167 8.99999 18.9167H5.49999Z" fill="#7A45FF" fill-opacity="0.25"/>
<path d="M11.3333 21.25C11.1786 21.25 11.0303 21.3115 10.9209 21.4209C10.8115 21.5303 10.75 21.6786 10.75 21.8333V25.3333C10.75 25.488 10.8115 25.6364 10.9209 25.7458C11.0303 25.8552 11.1786 25.9167 11.3333 25.9167H14.8333C14.988 25.9167 15.1364 25.8552 15.2458 25.7458C15.3552 25.6364 15.4167 25.488 15.4167 25.3333V21.8333C15.4167 21.6786 15.3552 21.5303 15.2458 21.4209C15.1364 21.3115 14.988 21.25 14.8333 21.25H11.3333Z" fill="#7A45FF" fill-opacity="0.5"/>
</svg>
